<svg id="Layer_1" data-name="Layer 1" xmlns="http://www.w3.org/2000/svg" xmlns:xlink="http://www.w3.org/1999/xlink" viewBox="0 0 747.36 637.7"><defs><style>.cls-1{opacity:0.3;}.cls-1,.cls-12,.cls-13,.cls-15,.cls-16,.cls-17,.cls-19,.cls-7,.cls-8{isolation:isolate;}.cls-2{fill:#423725;stroke-miterlimit:10;stroke-width:4px;}.cls-2,.cls-5{stroke:#fff;}.cls-3{opacity:0.7;}.cls-12,.cls-13,.cls-16,.cls-17,.cls-19,.cls-4,.cls-7,.cls-8{fill:#fff;}.cls-5,.cls-6{fill:none;}.cls-7{font-size:48px;}.cls-13,.cls-16,.cls-17,.cls-19,.cls-7,.cls-8{font-family:Roboto-Bold, Roboto;font-weight:700;}.cls-12,.cls-8{font-size:9px;}.cls-9{letter-spacing:-0.02em;}.cls-10{letter-spacing:-0.01em;}.cls-11{letter-spacing:-0.08em;}.cls-12{font-family:Roboto-Thin, Roboto;font-weight:200;}.cls-13{font-size:24px;}.cls-14{letter-spacing:-0.01em;}.cls-16{font-size:18px;}.cls-17{font-size:21px;}.cls-18{letter-spacing:-0.01em;}.cls-19{font-size:36px;}.cls-20{letter-spacing:-0.01em;}.cls-21{letter-spacing:-0.1em;}</style></defs><g id="Centro"><image width="2627" height="2628" transform="translate(91.84 6.98) scale(0.24)" xlink:href="empresotas1.png"/><image class="cls-1" width="347" height="347" transform="translate(116.16 199.38)" xlink:href="../../../Downloads/EC8A1E6C.png"/><g id="SVGID"><path class="cls-2" d="M270,486.74a155.73,155.73,0,0,1-155.7-155.6c-.1-86,69.6-155.6,155.6-155.7h.1a155.65,155.65,0,1,1,0,311.3Z" transform="translate(0 21.84)"/></g><g class="cls-3"><path class="cls-4" d="M199.86,350.84c.4-1,.9-1.9,1.3-2.9a5.84,5.84,0,0,0,.4-1.8V334c-3.8.8-7.5,1.5-11.5,2.4,2.1,4.9,3.1,10,6,14.5h-11.3c.4-2.2-.4-4.2-1.1-6.3l-2.1-6c-.1,0-.2-.1-.3-.1-3.8,1.3-7.6,2.6-11.3,4.1a11.69,11.69,0,0,0-3.1,2c-1.9,1.6-2.4,3.8-2.4,6.2h-7.9a2.09,2.09,0,0,1,.4-.6,25.28,25.28,0,0,0,1.8-3.7c3.7-10.3,7.4-20.5,11.1-30.8.6-1.6.8-3.4,1.3-5.3h8.7a1,1,0,0,1,1.2.9c2.3,6.4,4.7,12.8,7,19.3.3.8.6.9,1.4.7,3.7-.8,7.3-1.6,11-2.3.9-.2,1.2-.4,1.2-1.4-.1-3.3-.1-6.5,0-9.8.1-2.6-.2-5.1-2-7.3.4,0,.6-.1.8-.1h16.4a23.4,23.4,0,0,1,8.6,1.6,8.08,8.08,0,0,1,1.6,14.1c-1,.7-2,1.2-3,1.8-.3.1-.5.3-.8.4a40.78,40.78,0,0,1,4.2,1.8,9.25,9.25,0,0,1,5.4,8.6c0,4.1-1.4,7.5-5.1,9.7a16.58,16.58,0,0,1-7.8,2.4c-6.6.2-13.3.2-19.9.2A.22.22,0,0,0,199.86,350.84Zm10.8-4.7c2.4-.1,4.7-.1,6.9-.4,2.5-.3,4.7-1.4,5.6-4,.8-2.4.8-4.9-.9-6.9a9,9,0,0,0-7.2-3.2,22.54,22.54,0,0,0-3.6.6c-.6.1-.8.4-.8,1v12.9Zm0-19.1a2.77,2.77,0,0,0,.9-.1,52.92,52.92,0,0,0,5.4-1.3,8.52,8.52,0,0,0,2.9-1.7,4.65,4.65,0,0,0-1.3-7.7c-2.5-1.2-5.1-.8-7.8-.8C210.66,319.34,210.66,323.24,210.66,327Zm-35.9-7.8h-.2c-2.2,6.4-4.4,12.8-6.7,19.4,3.7-2.8,7.9-3.6,12-5.1C178.16,328.74,176.46,324,174.76,319.24Z" transform="translate(0 21.84)"/><path class="cls-4" d="M288.26,350.94c1.7-2.9,1.4-6,1.4-9v-24.7a13.66,13.66,0,0,0-1.4-6.8h15.8a23.63,23.63,0,0,1,8.3,1.3c4.8,1.8,7,5.9,5.8,10.7-.6,2.4-2.3,3.9-4.4,5.1a20.92,20.92,0,0,1-2.1,1c.4.1.6.3.9.3a19.34,19.34,0,0,1,5.5,2.9c4.4,3.6,4.2,13.2-2.3,16.7a20,20,0,0,1-9.2,2.4c-5.8.1-11.7.1-17.5.1A2.13,2.13,0,0,1,288.26,350.94Zm10.4-4.8c2.8,0,5.5.2,8.2-.6a6.17,6.17,0,0,0,4.2-3.5,6.86,6.86,0,0,0-4.7-9.7,50.55,50.55,0,0,0-6.8-.6c-.8-.1-1,.3-1,1V345A4.1,4.1,0,0,1,298.66,346.14Zm.1-30.9v11.6c1.9-.1,3.8-.1,5.6-.3,3.1-.4,4.8-2.3,4.9-5.5a4.92,4.92,0,0,0-4.5-5.5C302.76,315.34,300.76,315.34,298.76,315.24Z" transform="translate(0 21.84)"/><path class="cls-4" d="M331.86,338.34c.5,4.5,3.3,7,8.1,7.3a18.7,18.7,0,0,0,8.4-1.5,13.92,13.92,0,0,0,1.3-.6c.8,1.8,1.6,3.5,2.4,5.3a21,21,0,0,1-6.3,2.4,24.21,24.21,0,0,1-12.8-.6c-5.3-1.8-8.3-5.5-9.2-11a19.34,19.34,0,0,1,.3-8.3,12.68,12.68,0,0,1,12-9.9,26.7,26.7,0,0,1,6.9.4c5.4,1.2,8.4,4.9,9.4,10.2a35.93,35.93,0,0,1,.3,4.7c.1.8-.3,1.1-1.1,1.2-2.3.2-4.6.4-6.9.5-3.9.1-7.8,0-11.7,0A3.75,3.75,0,0,0,331.86,338.34Zm12.3-4.9c.1-3.9-2.2-6.7-5.6-6.9-3.8-.2-6.3,2.4-6.6,6.9Z" transform="translate(0 21.84)"/><path class="cls-4" d="M265.36,350.94H254a3.55,3.55,0,0,0,.4-.9,10.16,10.16,0,0,0,1.2-4.9c0-5.1-.1-10.2,0-15.3,0-2.6-.2-5.1-1.7-7.4h9.7v3.3c.7-.5,1.2-.9,1.7-1.3a13.76,13.76,0,0,1,10.4-2.5c4.2.7,6.7,3.6,6.7,8.1.1,4.1.1,8.3,0,12.4,0,2.9-.1,5.7,1.7,8.3h-11.3c0-.1-.1-.1,0-.2a12.58,12.58,0,0,0,1.6-6.9c-.1-3.5-.1-7.1,0-10.6.1-4.5-2.8-5.8-6.5-5a5.78,5.78,0,0,0-1.7.6c-1.8.8-2.8,1.9-2.7,4.1.2,3.4.1,6.7,0,10.1C263.66,345.74,263.66,348.44,265.36,350.94Z" transform="translate(0 21.84)"/><path class="cls-4" d="M351.86,322.44h10.8c-.8,2.3.1,4.3.9,6.3,1.8,4.5,3.5,9.1,5.4,13.8.2-.4.3-.7.4-.9,1.7-4.6,3.5-9.2,5.2-13.8a7.73,7.73,0,0,0,.6-5.4h8.2c-4.3,7.8-6.9,16.3-10.4,24.4a13.12,13.12,0,0,0-.9,3.4c-.1.5-.2.7-.8.7H365c-.6,0-.7-.4-.9-.8-3-7.4-6.1-14.7-9.2-22.1C354,326.14,352.86,324.34,351.86,322.44Z" transform="translate(0 21.84)"/><path class="cls-4" d="M250.16,350.94h-12.8a1.61,1.61,0,0,1,.4-.7,12,12,0,0,0,1.5-5.9v-26.8a12.51,12.51,0,0,0-1.7-6.6c-.1-.1-.1-.3-.2-.5h12.8a12.81,12.81,0,0,0-1.1,2.4,16,16,0,0,0-.7,3.8c-.1,9.4,0,18.7,0,28.1A11.72,11.72,0,0,0,250.16,350.94Z" transform="translate(0 21.84)"/><path class="cls-4" d="M199.86,350.84c.4-1,.9-1.9,1.3-2.9a5.84,5.84,0,0,0,.4-1.8V334c-3.8.8-7.5,1.5-11.5,2.4,2.1,4.9,3.1,10,6,14.5h-11.3c.4-2.2-.4-4.2-1.1-6.3l-2.1-6c-.1,0-.2-.1-.3-.1-3.8,1.3-7.6,2.6-11.3,4.1a11.69,11.69,0,0,0-3.1,2c-1.9,1.6-2.4,3.8-2.4,6.2h-7.9a2.09,2.09,0,0,1,.4-.6,25.28,25.28,0,0,0,1.8-3.7c3.7-10.3,7.4-20.5,11.1-30.8.6-1.6.8-3.4,1.3-5.3h8.7a1,1,0,0,1,1.2.9c2.3,6.4,4.7,12.8,7,19.3.3.8.6.9,1.4.7,3.7-.8,7.3-1.6,11-2.3.9-.2,1.2-.4,1.2-1.4-.1-3.3-.1-6.5,0-9.8.1-2.6-.2-5.1-2-7.3.4,0,.6-.1.8-.1h16.4a23.4,23.4,0,0,1,8.6,1.6,8.08,8.08,0,0,1,1.6,14.1c-1,.7-2,1.2-3,1.8-.3.1-.5.3-.8.4a40.78,40.78,0,0,1,4.2,1.8,9.25,9.25,0,0,1,5.4,8.6c0,4.1-1.4,7.5-5.1,9.7a16.58,16.58,0,0,1-7.8,2.4c-6.6.2-13.3.2-19.9.2A.22.22,0,0,0,199.86,350.84Zm10.8-4.7c2.4-.1,4.7-.1,6.9-.4,2.5-.3,4.7-1.4,5.6-4,.8-2.4.8-4.9-.9-6.9a9,9,0,0,0-7.2-3.2,22.54,22.54,0,0,0-3.6.6c-.6.1-.8.4-.8,1v12.9Zm0-19.1a2.77,2.77,0,0,0,.9-.1,52.92,52.92,0,0,0,5.4-1.3,8.52,8.52,0,0,0,2.9-1.7,4.65,4.65,0,0,0-1.3-7.7c-2.5-1.2-5.1-.8-7.8-.8C210.66,319.34,210.66,323.24,210.66,327Zm-35.9-7.8h-.2c-2.2,6.4-4.4,12.8-6.7,19.4,3.7-2.8,7.9-3.6,12-5.1C178.16,328.74,176.46,324,174.76,319.24Z" transform="translate(0 21.84)"/><path class="cls-4" d="M288.26,350.94c1.7-2.9,1.4-6,1.4-9v-24.7a13.66,13.66,0,0,0-1.4-6.8h15.8a23.63,23.63,0,0,1,8.3,1.3c4.8,1.8,7,5.9,5.8,10.7-.6,2.4-2.3,3.9-4.4,5.1a20.92,20.92,0,0,1-2.1,1c.4.1.6.3.9.3a19.34,19.34,0,0,1,5.5,2.9c4.4,3.6,4.2,13.2-2.3,16.7a20,20,0,0,1-9.2,2.4c-5.8.1-11.7.1-17.5.1A2.13,2.13,0,0,1,288.26,350.94Zm10.4-4.8c2.8,0,5.5.2,8.2-.6a6.17,6.17,0,0,0,4.2-3.5,6.86,6.86,0,0,0-4.7-9.7,50.55,50.55,0,0,0-6.8-.6c-.8-.1-1,.3-1,1V345A4.1,4.1,0,0,1,298.66,346.14Zm.1-30.9v11.6c1.9-.1,3.8-.1,5.6-.3,3.1-.4,4.8-2.3,4.9-5.5a4.92,4.92,0,0,0-4.5-5.5C302.76,315.34,300.76,315.34,298.76,315.24Z" transform="translate(0 21.84)"/><path class="cls-4" d="M331.86,338.34c.5,4.5,3.3,7,8.1,7.3a18.7,18.7,0,0,0,8.4-1.5,13.92,13.92,0,0,0,1.3-.6c.8,1.8,1.6,3.5,2.4,5.3a21,21,0,0,1-6.3,2.4,24.21,24.21,0,0,1-12.8-.6c-5.3-1.8-8.3-5.5-9.2-11a19.34,19.34,0,0,1,.3-8.3,12.68,12.68,0,0,1,12-9.9,26.7,26.7,0,0,1,6.9.4c5.4,1.2,8.4,4.9,9.4,10.2a35.93,35.93,0,0,1,.3,4.7c.1.8-.3,1.1-1.1,1.2-2.3.2-4.6.4-6.9.5-3.9.1-7.8,0-11.7,0A3.75,3.75,0,0,0,331.86,338.34Zm12.3-4.9c.1-3.9-2.2-6.7-5.6-6.9-3.8-.2-6.3,2.4-6.6,6.9Z" transform="translate(0 21.84)"/><path class="cls-4" d="M265.36,350.94H254a3.55,3.55,0,0,0,.4-.9,10.16,10.16,0,0,0,1.2-4.9c0-5.1-.1-10.2,0-15.3,0-2.6-.2-5.1-1.7-7.4h9.7v3.3c.7-.5,1.2-.9,1.7-1.3a13.76,13.76,0,0,1,10.4-2.5c4.2.7,6.7,3.6,6.7,8.1.1,4.1.1,8.3,0,12.4,0,2.9-.1,5.7,1.7,8.3h-11.3c0-.1-.1-.1,0-.2a12.58,12.58,0,0,0,1.6-6.9c-.1-3.5-.1-7.1,0-10.6.1-4.5-2.8-5.8-6.5-5a5.78,5.78,0,0,0-1.7.6c-1.8.8-2.8,1.9-2.7,4.1.2,3.4.1,6.7,0,10.1C263.66,345.74,263.66,348.44,265.36,350.94Z" transform="translate(0 21.84)"/><path class="cls-4" d="M351.86,322.44h10.8c-.8,2.3.1,4.3.9,6.3,1.8,4.5,3.5,9.1,5.4,13.8.2-.4.3-.7.4-.9,1.7-4.6,3.5-9.2,5.2-13.8a7.73,7.73,0,0,0,.6-5.4h8.2c-4.3,7.8-6.9,16.3-10.4,24.4a13.12,13.12,0,0,0-.9,3.4c-.1.5-.2.7-.8.7H365c-.6,0-.7-.4-.9-.8-3-7.4-6.1-14.7-9.2-22.1C354,326.14,352.86,324.34,351.86,322.44Z" transform="translate(0 21.84)"/><path class="cls-4" d="M250.16,350.94h-12.8a1.61,1.61,0,0,1,.4-.7,12,12,0,0,0,1.5-5.9v-26.8a12.51,12.51,0,0,0-1.7-6.6c-.1-.1-.1-.3-.2-.5h12.8a12.81,12.81,0,0,0-1.1,2.4,16,16,0,0,0-.7,3.8c-.1,9.4,0,18.7,0,28.1A11.72,11.72,0,0,0,250.16,350.94Z" transform="translate(0 21.84)"/><path class="cls-4" d="M199.86,350.84c.4-1,.9-1.9,1.3-2.9a5.84,5.84,0,0,0,.4-1.8V334c-3.8.8-7.5,1.5-11.5,2.4,2.1,4.9,3.1,10,6,14.5h-11.3c.4-2.2-.4-4.2-1.1-6.3l-2.1-6c-.1,0-.2-.1-.3-.1-3.8,1.3-7.6,2.6-11.3,4.1a11.69,11.69,0,0,0-3.1,2c-1.9,1.6-2.4,3.8-2.4,6.2h-7.9a2.09,2.09,0,0,1,.4-.6,25.28,25.28,0,0,0,1.8-3.7c3.7-10.3,7.4-20.5,11.1-30.8.6-1.6.8-3.4,1.3-5.3h8.7a1,1,0,0,1,1.2.9c2.3,6.4,4.7,12.8,7,19.3.3.8.6.9,1.4.7,3.7-.8,7.3-1.6,11-2.3.9-.2,1.2-.4,1.2-1.4-.1-3.3-.1-6.5,0-9.8.1-2.6-.2-5.1-2-7.3.4,0,.6-.1.8-.1h16.4a23.4,23.4,0,0,1,8.6,1.6,8.08,8.08,0,0,1,1.6,14.1c-1,.7-2,1.2-3,1.8-.3.1-.5.3-.8.4a40.78,40.78,0,0,1,4.2,1.8,9.25,9.25,0,0,1,5.4,8.6c0,4.1-1.4,7.5-5.1,9.7a16.58,16.58,0,0,1-7.8,2.4c-6.6.2-13.3.2-19.9.2A.22.22,0,0,0,199.86,350.84Zm10.8-4.7c2.4-.1,4.7-.1,6.9-.4,2.5-.3,4.7-1.4,5.6-4,.8-2.4.8-4.9-.9-6.9a9,9,0,0,0-7.2-3.2,22.54,22.54,0,0,0-3.6.6c-.6.1-.8.4-.8,1v12.9Zm0-19.1a2.77,2.77,0,0,0,.9-.1,52.92,52.92,0,0,0,5.4-1.3,8.52,8.52,0,0,0,2.9-1.7,4.65,4.65,0,0,0-1.3-7.7c-2.5-1.2-5.1-.8-7.8-.8C210.66,319.34,210.66,323.24,210.66,327Zm-35.9-7.8h-.2c-2.2,6.4-4.4,12.8-6.7,19.4,3.7-2.8,7.9-3.6,12-5.1C178.16,328.74,176.46,324,174.76,319.24Z" transform="translate(0 21.84)"/><path class="cls-4" d="M288.26,350.94c1.7-2.9,1.4-6,1.4-9v-24.7a13.66,13.66,0,0,0-1.4-6.8h15.8a23.63,23.63,0,0,1,8.3,1.3c4.8,1.8,7,5.9,5.8,10.7-.6,2.4-2.3,3.9-4.4,5.1a20.92,20.92,0,0,1-2.1,1c.4.1.6.3.9.3a19.34,19.34,0,0,1,5.5,2.9c4.4,3.6,4.2,13.2-2.3,16.7a20,20,0,0,1-9.2,2.4c-5.8.1-11.7.1-17.5.1A2.13,2.13,0,0,1,288.26,350.94Zm10.4-4.8c2.8,0,5.5.2,8.2-.6a6.17,6.17,0,0,0,4.2-3.5,6.86,6.86,0,0,0-4.7-9.7,50.55,50.55,0,0,0-6.8-.6c-.8-.1-1,.3-1,1V345A4.1,4.1,0,0,1,298.66,346.14Zm.1-30.9v11.6c1.9-.1,3.8-.1,5.6-.3,3.1-.4,4.8-2.3,4.9-5.5a4.92,4.92,0,0,0-4.5-5.5C302.76,315.34,300.76,315.34,298.76,315.24Z" transform="translate(0 21.84)"/><path class="cls-4" d="M331.86,338.34c.5,4.5,3.3,7,8.1,7.3a18.7,18.7,0,0,0,8.4-1.5,13.92,13.92,0,0,0,1.3-.6c.8,1.8,1.6,3.5,2.4,5.3a21,21,0,0,1-6.3,2.4,24.21,24.21,0,0,1-12.8-.6c-5.3-1.8-8.3-5.5-9.2-11a19.34,19.34,0,0,1,.3-8.3,12.68,12.68,0,0,1,12-9.9,26.7,26.7,0,0,1,6.9.4c5.4,1.2,8.4,4.9,9.4,10.2a35.93,35.93,0,0,1,.3,4.7c.1.8-.3,1.1-1.1,1.2-2.3.2-4.6.4-6.9.5-3.9.1-7.8,0-11.7,0A3.75,3.75,0,0,0,331.86,338.34Zm12.3-4.9c.1-3.9-2.2-6.7-5.6-6.9-3.8-.2-6.3,2.4-6.6,6.9Z" transform="translate(0 21.84)"/><path class="cls-4" d="M265.36,350.94H254a3.55,3.55,0,0,0,.4-.9,10.16,10.16,0,0,0,1.2-4.9c0-5.1-.1-10.2,0-15.3,0-2.6-.2-5.1-1.7-7.4h9.7v3.3c.7-.5,1.2-.9,1.7-1.3a13.76,13.76,0,0,1,10.4-2.5c4.2.7,6.7,3.6,6.7,8.1.1,4.1.1,8.3,0,12.4,0,2.9-.1,5.7,1.7,8.3h-11.3c0-.1-.1-.1,0-.2a12.58,12.58,0,0,0,1.6-6.9c-.1-3.5-.1-7.1,0-10.6.1-4.5-2.8-5.8-6.5-5a5.78,5.78,0,0,0-1.7.6c-1.8.8-2.8,1.9-2.7,4.1.2,3.4.1,6.7,0,10.1C263.66,345.74,263.66,348.44,265.36,350.94Z" transform="translate(0 21.84)"/><path class="cls-4" d="M351.86,322.44h10.8c-.8,2.3.1,4.3.9,6.3,1.8,4.5,3.5,9.1,5.4,13.8.2-.4.3-.7.4-.9,1.7-4.6,3.5-9.2,5.2-13.8a7.73,7.73,0,0,0,.6-5.4h8.2c-4.3,7.8-6.9,16.3-10.4,24.4a13.12,13.12,0,0,0-.9,3.4c-.1.5-.2.7-.8.7H365c-.6,0-.7-.4-.9-.8-3-7.4-6.1-14.7-9.2-22.1C354,326.14,352.86,324.34,351.86,322.44Z" transform="translate(0 21.84)"/><path class="cls-4" d="M250.16,350.94h-12.8a1.61,1.61,0,0,1,.4-.7,12,12,0,0,0,1.5-5.9v-26.8a12.51,12.51,0,0,0-1.7-6.6c-.1-.1-.1-.3-.2-.5h12.8a12.81,12.81,0,0,0-1.1,2.4,16,16,0,0,0-.7,3.8c-.1,9.4,0,18.7,0,28.1A11.72,11.72,0,0,0,250.16,350.94Z" transform="translate(0 21.84)"/><path class="cls-4" d="M199.86,350.84c.4-1,.9-1.9,1.3-2.9a5.84,5.84,0,0,0,.4-1.8V334c-3.8.8-7.5,1.5-11.5,2.4,2.1,4.9,3.1,10,6,14.5h-11.3c.4-2.2-.4-4.2-1.1-6.3l-2.1-6c-.1,0-.2-.1-.3-.1-3.8,1.3-7.6,2.6-11.3,4.1a11.69,11.69,0,0,0-3.1,2c-1.9,1.6-2.4,3.8-2.4,6.2h-7.9a2.09,2.09,0,0,1,.4-.6,25.28,25.28,0,0,0,1.8-3.7c3.7-10.3,7.4-20.5,11.1-30.8.6-1.6.8-3.4,1.3-5.3h8.7a1,1,0,0,1,1.2.9c2.3,6.4,4.7,12.8,7,19.3.3.8.6.9,1.4.7,3.7-.8,7.3-1.6,11-2.3.9-.2,1.2-.4,1.2-1.4-.1-3.3-.1-6.5,0-9.8.1-2.6-.2-5.1-2-7.3.4,0,.6-.1.8-.1h16.4a23.4,23.4,0,0,1,8.6,1.6,8.08,8.08,0,0,1,1.6,14.1c-1,.7-2,1.2-3,1.8-.3.1-.5.3-.8.4a40.78,40.78,0,0,1,4.2,1.8,9.25,9.25,0,0,1,5.4,8.6c0,4.1-1.4,7.5-5.1,9.7a16.58,16.58,0,0,1-7.8,2.4c-6.6.2-13.3.2-19.9.2A.22.22,0,0,0,199.86,350.84Zm10.8-4.7c2.4-.1,4.7-.1,6.9-.4,2.5-.3,4.7-1.4,5.6-4,.8-2.4.8-4.9-.9-6.9a9,9,0,0,0-7.2-3.2,22.54,22.54,0,0,0-3.6.6c-.6.1-.8.4-.8,1v12.9Zm0-19.1a2.77,2.77,0,0,0,.9-.1,52.92,52.92,0,0,0,5.4-1.3,8.52,8.52,0,0,0,2.9-1.7,4.65,4.65,0,0,0-1.3-7.7c-2.5-1.2-5.1-.8-7.8-.8C210.66,319.34,210.66,323.24,210.66,327Zm-35.9-7.8h-.2c-2.2,6.4-4.4,12.8-6.7,19.4,3.7-2.8,7.9-3.6,12-5.1C178.16,328.74,176.46,324,174.76,319.24Z" transform="translate(0 21.84)"/><path class="cls-4" d="M288.26,350.94c1.7-2.9,1.4-6,1.4-9v-24.7a13.66,13.66,0,0,0-1.4-6.8h15.8a23.63,23.63,0,0,1,8.3,1.3c4.8,1.8,7,5.9,5.8,10.7-.6,2.4-2.3,3.9-4.4,5.1a20.92,20.92,0,0,1-2.1,1c.4.1.6.3.9.3a19.34,19.34,0,0,1,5.5,2.9c4.4,3.6,4.2,13.2-2.3,16.7a20,20,0,0,1-9.2,2.4c-5.8.1-11.7.1-17.5.1A2.13,2.13,0,0,1,288.26,350.94Zm10.4-4.8c2.8,0,5.5.2,8.2-.6a6.17,6.17,0,0,0,4.2-3.5,6.86,6.86,0,0,0-4.7-9.7,50.55,50.55,0,0,0-6.8-.6c-.8-.1-1,.3-1,1V345A4.1,4.1,0,0,1,298.66,346.14Zm.1-30.9v11.6c1.9-.1,3.8-.1,5.6-.3,3.1-.4,4.8-2.3,4.9-5.5a4.92,4.92,0,0,0-4.5-5.5C302.76,315.34,300.76,315.34,298.76,315.24Z" transform="translate(0 21.84)"/><path class="cls-4" d="M331.86,338.34c.5,4.5,3.3,7,8.1,7.3a18.7,18.7,0,0,0,8.4-1.5,13.92,13.92,0,0,0,1.3-.6c.8,1.8,1.6,3.5,2.4,5.3a21,21,0,0,1-6.3,2.4,24.21,24.21,0,0,1-12.8-.6c-5.3-1.8-8.3-5.5-9.2-11a19.34,19.34,0,0,1,.3-8.3,12.68,12.68,0,0,1,12-9.9,26.7,26.7,0,0,1,6.9.4c5.4,1.2,8.4,4.9,9.4,10.2a35.93,35.93,0,0,1,.3,4.7c.1.8-.3,1.1-1.1,1.2-2.3.2-4.6.4-6.9.5-3.9.1-7.8,0-11.7,0A3.75,3.75,0,0,0,331.86,338.34Zm12.3-4.9c.1-3.9-2.2-6.7-5.6-6.9-3.8-.2-6.3,2.4-6.6,6.9Z" transform="translate(0 21.84)"/><path class="cls-4" d="M265.36,350.94H254a3.55,3.55,0,0,0,.4-.9,10.16,10.16,0,0,0,1.2-4.9c0-5.1-.1-10.2,0-15.3,0-2.6-.2-5.1-1.7-7.4h9.7v3.3c.7-.5,1.2-.9,1.7-1.3a13.76,13.76,0,0,1,10.4-2.5c4.2.7,6.7,3.6,6.7,8.1.1,4.1.1,8.3,0,12.4,0,2.9-.1,5.7,1.7,8.3h-11.3c0-.1-.1-.1,0-.2a12.58,12.58,0,0,0,1.6-6.9c-.1-3.5-.1-7.1,0-10.6.1-4.5-2.8-5.8-6.5-5a5.78,5.78,0,0,0-1.7.6c-1.8.8-2.8,1.9-2.7,4.1.2,3.4.1,6.7,0,10.1C263.66,345.74,263.66,348.44,265.36,350.94Z" transform="translate(0 21.84)"/><path class="cls-4" d="M351.86,322.44h10.8c-.8,2.3.1,4.3.9,6.3,1.8,4.5,3.5,9.1,5.4,13.8.2-.4.3-.7.4-.9,1.7-4.6,3.5-9.2,5.2-13.8a7.73,7.73,0,0,0,.6-5.4h8.2c-4.3,7.8-6.9,16.3-10.4,24.4a13.12,13.12,0,0,0-.9,3.4c-.1.5-.2.7-.8.7H365c-.6,0-.7-.4-.9-.8-3-7.4-6.1-14.7-9.2-22.1C354,326.14,352.86,324.34,351.86,322.44Z" transform="translate(0 21.84)"/><path class="cls-4" d="M250.16,350.94h-12.8a1.61,1.61,0,0,1,.4-.7,12,12,0,0,0,1.5-5.9v-26.8a12.51,12.51,0,0,0-1.7-6.6c-.1-.1-.1-.3-.2-.5h12.8a12.81,12.81,0,0,0-1.1,2.4,16,16,0,0,0-.7,3.8c-.1,9.4,0,18.7,0,28.1A11.72,11.72,0,0,0,250.16,350.94Z" transform="translate(0 21.84)"/><path class="cls-4" d="M199.86,350.84c.4-1,.9-1.9,1.3-2.9a5.84,5.84,0,0,0,.4-1.8V334c-3.8.8-7.5,1.5-11.5,2.4,2.1,4.9,3.1,10,6,14.5h-11.3c.4-2.2-.4-4.2-1.1-6.3l-2.1-6c-.1,0-.2-.1-.3-.1-3.8,1.3-7.6,2.6-11.3,4.1a11.69,11.69,0,0,0-3.1,2c-1.9,1.6-2.4,3.8-2.4,6.2h-7.9a2.09,2.09,0,0,1,.4-.6,25.28,25.28,0,0,0,1.8-3.7c3.7-10.3,7.4-20.5,11.1-30.8.6-1.6.8-3.4,1.3-5.3h8.7a1,1,0,0,1,1.2.9c2.3,6.4,4.7,12.8,7,19.3.3.8.6.9,1.4.7,3.7-.8,7.3-1.6,11-2.3.9-.2,1.2-.4,1.2-1.4-.1-3.3-.1-6.5,0-9.8.1-2.6-.2-5.1-2-7.3.4,0,.6-.1.8-.1h16.4a23.4,23.4,0,0,1,8.6,1.6,8.08,8.08,0,0,1,1.6,14.1c-1,.7-2,1.2-3,1.8-.3.1-.5.3-.8.4a40.78,40.78,0,0,1,4.2,1.8,9.25,9.25,0,0,1,5.4,8.6c0,4.1-1.4,7.5-5.1,9.7a16.58,16.58,0,0,1-7.8,2.4c-6.6.2-13.3.2-19.9.2A.22.22,0,0,0,199.86,350.84Zm10.8-4.7c2.4-.1,4.7-.1,6.9-.4,2.5-.3,4.7-1.4,5.6-4,.8-2.4.8-4.9-.9-6.9a9,9,0,0,0-7.2-3.2,22.54,22.54,0,0,0-3.6.6c-.6.1-.8.4-.8,1v12.9Zm0-19.1a2.77,2.77,0,0,0,.9-.1,52.92,52.92,0,0,0,5.4-1.3,8.52,8.52,0,0,0,2.9-1.7,4.65,4.65,0,0,0-1.3-7.7c-2.5-1.2-5.1-.8-7.8-.8C210.66,319.34,210.66,323.24,210.66,327Zm-35.9-7.8h-.2c-2.2,6.4-4.4,12.8-6.7,19.4,3.7-2.8,7.9-3.6,12-5.1C178.16,328.74,176.46,324,174.76,319.24Z" transform="translate(0 21.84)"/><path class="cls-4" d="M288.26,350.94c1.7-2.9,1.4-6,1.4-9v-24.7a13.66,13.66,0,0,0-1.4-6.8h15.8a23.63,23.63,0,0,1,8.3,1.3c4.8,1.8,7,5.9,5.8,10.7-.6,2.4-2.3,3.9-4.4,5.1a20.92,20.92,0,0,1-2.1,1c.4.1.6.3.9.3a19.34,19.34,0,0,1,5.5,2.9c4.4,3.6,4.2,13.2-2.3,16.7a20,20,0,0,1-9.2,2.4c-5.8.1-11.7.1-17.5.1A2.13,2.13,0,0,1,288.26,350.94Zm10.4-4.8c2.8,0,5.5.2,8.2-.6a6.17,6.17,0,0,0,4.2-3.5,6.86,6.86,0,0,0-4.7-9.7,50.55,50.55,0,0,0-6.8-.6c-.8-.1-1,.3-1,1V345A4.1,4.1,0,0,1,298.66,346.14Zm.1-30.9v11.6c1.9-.1,3.8-.1,5.6-.3,3.1-.4,4.8-2.3,4.9-5.5a4.92,4.92,0,0,0-4.5-5.5C302.76,315.34,300.76,315.34,298.76,315.24Z" transform="translate(0 21.84)"/><path class="cls-4" d="M331.86,338.34c.5,4.5,3.3,7,8.1,7.3a18.7,18.7,0,0,0,8.4-1.5,13.92,13.92,0,0,0,1.3-.6c.8,1.8,1.6,3.5,2.4,5.3a21,21,0,0,1-6.3,2.4,24.21,24.21,0,0,1-12.8-.6c-5.3-1.8-8.3-5.5-9.2-11a19.34,19.34,0,0,1,.3-8.3,12.68,12.68,0,0,1,12-9.9,26.7,26.7,0,0,1,6.9.4c5.4,1.2,8.4,4.9,9.4,10.2a35.93,35.93,0,0,1,.3,4.7c.1.8-.3,1.1-1.1,1.2-2.3.2-4.6.4-6.9.5-3.9.1-7.8,0-11.7,0A3.75,3.75,0,0,0,331.86,338.34Zm12.3-4.9c.1-3.9-2.2-6.7-5.6-6.9-3.8-.2-6.3,2.4-6.6,6.9Z" transform="translate(0 21.84)"/><path class="cls-4" d="M265.36,350.94H254a3.55,3.55,0,0,0,.4-.9,10.16,10.16,0,0,0,1.2-4.9c0-5.1-.1-10.2,0-15.3,0-2.6-.2-5.1-1.7-7.4h9.7v3.3c.7-.5,1.2-.9,1.7-1.3a13.76,13.76,0,0,1,10.4-2.5c4.2.7,6.7,3.6,6.7,8.1.1,4.1.1,8.3,0,12.4,0,2.9-.1,5.7,1.7,8.3h-11.3c0-.1-.1-.1,0-.2a12.58,12.58,0,0,0,1.6-6.9c-.1-3.5-.1-7.1,0-10.6.1-4.5-2.8-5.8-6.5-5a5.78,5.78,0,0,0-1.7.6c-1.8.8-2.8,1.9-2.7,4.1.2,3.4.1,6.7,0,10.1C263.66,345.74,263.66,348.44,265.36,350.94Z" transform="translate(0 21.84)"/><path class="cls-4" d="M351.86,322.44h10.8c-.8,2.3.1,4.3.9,6.3,1.8,4.5,3.5,9.1,5.4,13.8.2-.4.3-.7.4-.9,1.7-4.6,3.5-9.2,5.2-13.8a7.73,7.73,0,0,0,.6-5.4h8.2c-4.3,7.8-6.9,16.3-10.4,24.4a13.12,13.12,0,0,0-.9,3.4c-.1.5-.2.7-.8.7H365c-.6,0-.7-.4-.9-.8-3-7.4-6.1-14.7-9.2-22.1C354,326.14,352.86,324.34,351.86,322.44Z" transform="translate(0 21.84)"/><path class="cls-4" d="M250.16,350.94h-12.8a1.61,1.61,0,0,1,.4-.7,12,12,0,0,0,1.5-5.9v-26.8a12.51,12.51,0,0,0-1.7-6.6c-.1-.1-.1-.3-.2-.5h12.8a12.81,12.81,0,0,0-1.1,2.4,16,16,0,0,0-.7,3.8c-.1,9.4,0,18.7,0,28.1A11.72,11.72,0,0,0,250.16,350.94Z" transform="translate(0 21.84)"/><path class="cls-4" d="M199.86,350.84c.4-1,.9-1.9,1.3-2.9a5.84,5.84,0,0,0,.4-1.8V334c-3.8.8-7.5,1.5-11.5,2.4,2.1,4.9,3.1,10,6,14.5h-11.3c.4-2.2-.4-4.2-1.1-6.3l-2.1-6c-.1,0-.2-.1-.3-.1-3.8,1.3-7.6,2.6-11.3,4.1a11.69,11.69,0,0,0-3.1,2c-1.9,1.6-2.4,3.8-2.4,6.2h-7.9a2.09,2.09,0,0,1,.4-.6,25.28,25.28,0,0,0,1.8-3.7c3.7-10.3,7.4-20.5,11.1-30.8.6-1.6.8-3.4,1.3-5.3h8.7a1,1,0,0,1,1.2.9c2.3,6.4,4.7,12.8,7,19.3.3.8.6.9,1.4.7,3.7-.8,7.3-1.6,11-2.3.9-.2,1.2-.4,1.2-1.4-.1-3.3-.1-6.5,0-9.8.1-2.6-.2-5.1-2-7.3.4,0,.6-.1.8-.1h16.4a23.4,23.4,0,0,1,8.6,1.6,8.08,8.08,0,0,1,1.6,14.1c-1,.7-2,1.2-3,1.8-.3.1-.5.3-.8.4a40.78,40.78,0,0,1,4.2,1.8,9.25,9.25,0,0,1,5.4,8.6c0,4.1-1.4,7.5-5.1,9.7a16.58,16.58,0,0,1-7.8,2.4c-6.6.2-13.3.2-19.9.2A.22.22,0,0,0,199.86,350.84Zm10.8-4.7c2.4-.1,4.7-.1,6.9-.4,2.5-.3,4.7-1.4,5.6-4,.8-2.4.8-4.9-.9-6.9a9,9,0,0,0-7.2-3.2,22.54,22.54,0,0,0-3.6.6c-.6.1-.8.4-.8,1v12.9Zm0-19.1a2.77,2.77,0,0,0,.9-.1,52.92,52.92,0,0,0,5.4-1.3,8.52,8.52,0,0,0,2.9-1.7,4.65,4.65,0,0,0-1.3-7.7c-2.5-1.2-5.1-.8-7.8-.8C210.66,319.34,210.66,323.24,210.66,327Zm-35.9-7.8h-.2c-2.2,6.4-4.4,12.8-6.7,19.4,3.7-2.8,7.9-3.6,12-5.1C178.16,328.74,176.46,324,174.76,319.24Z" transform="translate(0 21.84)"/><path class="cls-4" d="M288.26,350.94c1.7-2.9,1.4-6,1.4-9v-24.7a13.66,13.66,0,0,0-1.4-6.8h15.8a23.63,23.63,0,0,1,8.3,1.3c4.8,1.8,7,5.9,5.8,10.7-.6,2.4-2.3,3.9-4.4,5.1a20.92,20.92,0,0,1-2.1,1c.4.1.6.3.9.3a19.34,19.34,0,0,1,5.5,2.9c4.4,3.6,4.2,13.2-2.3,16.7a20,20,0,0,1-9.2,2.4c-5.8.1-11.7.1-17.5.1A2.13,2.13,0,0,1,288.26,350.94Zm10.4-4.8c2.8,0,5.5.2,8.2-.6a6.17,6.17,0,0,0,4.2-3.5,6.86,6.86,0,0,0-4.7-9.7,50.55,50.55,0,0,0-6.8-.6c-.8-.1-1,.3-1,1V345A4.1,4.1,0,0,1,298.66,346.14Zm.1-30.9v11.6c1.9-.1,3.8-.1,5.6-.3,3.1-.4,4.8-2.3,4.9-5.5a4.92,4.92,0,0,0-4.5-5.5C302.76,315.34,300.76,315.34,298.76,315.24Z" transform="translate(0 21.84)"/><path class="cls-4" d="M331.86,338.34c.5,4.5,3.3,7,8.1,7.3a18.7,18.7,0,0,0,8.4-1.5,13.92,13.92,0,0,0,1.3-.6c.8,1.8,1.6,3.5,2.4,5.3a21,21,0,0,1-6.3,2.4,24.21,24.21,0,0,1-12.8-.6c-5.3-1.8-8.3-5.5-9.2-11a19.34,19.34,0,0,1,.3-8.3,12.68,12.68,0,0,1,12-9.9,26.7,26.7,0,0,1,6.9.4c5.4,1.2,8.4,4.9,9.4,10.2a35.93,35.93,0,0,1,.3,4.7c.1.8-.3,1.1-1.1,1.2-2.3.2-4.6.4-6.9.5-3.9.1-7.8,0-11.7,0A3.75,3.75,0,0,0,331.86,338.34Zm12.3-4.9c.1-3.9-2.2-6.7-5.6-6.9-3.8-.2-6.3,2.4-6.6,6.9Z" transform="translate(0 21.84)"/><path class="cls-4" d="M265.36,350.94H254a3.55,3.55,0,0,0,.4-.9,10.16,10.16,0,0,0,1.2-4.9c0-5.1-.1-10.2,0-15.3,0-2.6-.2-5.1-1.7-7.4h9.7v3.3c.7-.5,1.2-.9,1.7-1.3a13.76,13.76,0,0,1,10.4-2.5c4.2.7,6.7,3.6,6.7,8.1.1,4.1.1,8.3,0,12.4,0,2.9-.1,5.7,1.7,8.3h-11.3c0-.1-.1-.1,0-.2a12.58,12.58,0,0,0,1.6-6.9c-.1-3.5-.1-7.1,0-10.6.1-4.5-2.8-5.8-6.5-5a5.78,5.78,0,0,0-1.7.6c-1.8.8-2.8,1.9-2.7,4.1.2,3.4.1,6.7,0,10.1C263.66,345.74,263.66,348.44,265.36,350.94Z" transform="translate(0 21.84)"/><path class="cls-4" d="M351.86,322.44h10.8c-.8,2.3.1,4.3.9,6.3,1.8,4.5,3.5,9.1,5.4,13.8.2-.4.3-.7.4-.9,1.7-4.6,3.5-9.2,5.2-13.8a7.73,7.73,0,0,0,.6-5.4h8.2c-4.3,7.8-6.9,16.3-10.4,24.4a13.12,13.12,0,0,0-.9,3.4c-.1.5-.2.7-.8.7H365c-.6,0-.7-.4-.9-.8-3-7.4-6.1-14.7-9.2-22.1C354,326.14,352.86,324.34,351.86,322.44Z" transform="translate(0 21.84)"/><path class="cls-4" d="M250.16,350.94h-12.8a1.61,1.61,0,0,1,.4-.7,12,12,0,0,0,1.5-5.9v-26.8a12.51,12.51,0,0,0-1.7-6.6c-.1-.1-.1-.3-.2-.5h12.8a12.81,12.81,0,0,0-1.1,2.4,16,16,0,0,0-.7,3.8c-.1,9.4,0,18.7,0,28.1A11.72,11.72,0,0,0,250.16,350.94Z" transform="translate(0 21.84)"/><path class="cls-4" d="M199.86,350.84c.4-1,.9-1.9,1.3-2.9a5.84,5.84,0,0,0,.4-1.8V334c-3.8.8-7.5,1.5-11.5,2.4,2.1,4.9,3.1,10,6,14.5h-11.3c.4-2.2-.4-4.2-1.1-6.3l-2.1-6c-.1,0-.2-.1-.3-.1-3.8,1.3-7.6,2.6-11.3,4.1a11.69,11.69,0,0,0-3.1,2c-1.9,1.6-2.4,3.8-2.4,6.2h-7.9a2.09,2.09,0,0,1,.4-.6,25.28,25.28,0,0,0,1.8-3.7c3.7-10.3,7.4-20.5,11.1-30.8.6-1.6.8-3.4,1.3-5.3h8.7a1,1,0,0,1,1.2.9c2.3,6.4,4.7,12.8,7,19.3.3.8.6.9,1.4.7,3.7-.8,7.3-1.6,11-2.3.9-.2,1.2-.4,1.2-1.4-.1-3.3-.1-6.5,0-9.8.1-2.6-.2-5.1-2-7.3.4,0,.6-.1.8-.1h16.4a23.4,23.4,0,0,1,8.6,1.6,8.08,8.08,0,0,1,1.6,14.1c-1,.7-2,1.2-3,1.8-.3.1-.5.3-.8.4a40.78,40.78,0,0,1,4.2,1.8,9.25,9.25,0,0,1,5.4,8.6c0,4.1-1.4,7.5-5.1,9.7a16.58,16.58,0,0,1-7.8,2.4c-6.6.2-13.3.2-19.9.2A.22.22,0,0,0,199.86,350.84Zm10.8-4.7c2.4-.1,4.7-.1,6.9-.4,2.5-.3,4.7-1.4,5.6-4,.8-2.4.8-4.9-.9-6.9a9,9,0,0,0-7.2-3.2,22.54,22.54,0,0,0-3.6.6c-.6.1-.8.4-.8,1v12.9Zm0-19.1a2.77,2.77,0,0,0,.9-.1,52.92,52.92,0,0,0,5.4-1.3,8.52,8.52,0,0,0,2.9-1.7,4.65,4.65,0,0,0-1.3-7.7c-2.5-1.2-5.1-.8-7.8-.8C210.66,319.34,210.66,323.24,210.66,327Zm-35.9-7.8h-.2c-2.2,6.4-4.4,12.8-6.7,19.4,3.7-2.8,7.9-3.6,12-5.1C178.16,328.74,176.46,324,174.76,319.24Z" transform="translate(0 21.84)"/><path class="cls-4" d="M288.26,350.94c1.7-2.9,1.4-6,1.4-9v-24.7a13.66,13.66,0,0,0-1.4-6.8h15.8a23.63,23.63,0,0,1,8.3,1.3c4.8,1.8,7,5.9,5.8,10.7-.6,2.4-2.3,3.9-4.4,5.1a20.92,20.92,0,0,1-2.1,1c.4.1.6.3.9.3a19.34,19.34,0,0,1,5.5,2.9c4.4,3.6,4.2,13.2-2.3,16.7a20,20,0,0,1-9.2,2.4c-5.8.1-11.7.1-17.5.1A2.13,2.13,0,0,1,288.26,350.94Zm10.4-4.8c2.8,0,5.5.2,8.2-.6a6.17,6.17,0,0,0,4.2-3.5,6.86,6.86,0,0,0-4.7-9.7,50.55,50.55,0,0,0-6.8-.6c-.8-.1-1,.3-1,1V345A4.1,4.1,0,0,1,298.66,346.14Zm.1-30.9v11.6c1.9-.1,3.8-.1,5.6-.3,3.1-.4,4.8-2.3,4.9-5.5a4.92,4.92,0,0,0-4.5-5.5C302.76,315.34,300.76,315.34,298.76,315.24Z" transform="translate(0 21.84)"/><path class="cls-4" d="M331.86,338.34c.5,4.5,3.3,7,8.1,7.3a18.7,18.7,0,0,0,8.4-1.5,13.92,13.92,0,0,0,1.3-.6c.8,1.8,1.6,3.5,2.4,5.3a21,21,0,0,1-6.3,2.4,24.21,24.21,0,0,1-12.8-.6c-5.3-1.8-8.3-5.5-9.2-11a19.34,19.34,0,0,1,.3-8.3,12.68,12.68,0,0,1,12-9.9,26.7,26.7,0,0,1,6.9.4c5.4,1.2,8.4,4.9,9.4,10.2a35.93,35.93,0,0,1,.3,4.7c.1.8-.3,1.1-1.1,1.2-2.3.2-4.6.4-6.9.5-3.9.1-7.8,0-11.7,0A3.75,3.75,0,0,0,331.86,338.34Zm12.3-4.9c.1-3.9-2.2-6.7-5.6-6.9-3.8-.2-6.3,2.4-6.6,6.9Z" transform="translate(0 21.84)"/><path class="cls-4" d="M265.36,350.94H254a3.55,3.55,0,0,0,.4-.9,10.16,10.16,0,0,0,1.2-4.9c0-5.1-.1-10.2,0-15.3,0-2.6-.2-5.1-1.7-7.4h9.7v3.3c.7-.5,1.2-.9,1.7-1.3a13.76,13.76,0,0,1,10.4-2.5c4.2.7,6.7,3.6,6.7,8.1.1,4.1.1,8.3,0,12.4,0,2.9-.1,5.7,1.7,8.3h-11.3c0-.1-.1-.1,0-.2a12.58,12.58,0,0,0,1.6-6.9c-.1-3.5-.1-7.1,0-10.6.1-4.5-2.8-5.8-6.5-5a5.78,5.78,0,0,0-1.7.6c-1.8.8-2.8,1.9-2.7,4.1.2,3.4.1,6.7,0,10.1C263.66,345.74,263.66,348.44,265.36,350.94Z" transform="translate(0 21.84)"/><path class="cls-4" d="M351.86,322.44h10.8c-.8,2.3.1,4.3.9,6.3,1.8,4.5,3.5,9.1,5.4,13.8.2-.4.3-.7.4-.9,1.7-4.6,3.5-9.2,5.2-13.8a7.73,7.73,0,0,0,.6-5.4h8.2c-4.3,7.8-6.9,16.3-10.4,24.4a13.12,13.12,0,0,0-.9,3.4c-.1.5-.2.7-.8.7H365c-.6,0-.7-.4-.9-.8-3-7.4-6.1-14.7-9.2-22.1C354,326.14,352.86,324.34,351.86,322.44Z" transform="translate(0 21.84)"/><path class="cls-4" d="M250.16,350.94h-12.8a1.61,1.61,0,0,1,.4-.7,12,12,0,0,0,1.5-5.9v-26.8a12.51,12.51,0,0,0-1.7-6.6c-.1-.1-.1-.3-.2-.5h12.8a12.81,12.81,0,0,0-1.1,2.4,16,16,0,0,0-.7,3.8c-.1,9.4,0,18.7,0,28.1A11.72,11.72,0,0,0,250.16,350.94Z" transform="translate(0 21.84)"/><path class="cls-4" d="M199.86,350.84c.4-1,.9-1.9,1.3-2.9a5.84,5.84,0,0,0,.4-1.8V334c-3.8.8-7.5,1.5-11.5,2.4,2.1,4.9,3.1,10,6,14.5h-11.3c.4-2.2-.4-4.2-1.1-6.3l-2.1-6c-.1,0-.2-.1-.3-.1-3.8,1.3-7.6,2.6-11.3,4.1a11.69,11.69,0,0,0-3.1,2c-1.9,1.6-2.4,3.8-2.4,6.2h-7.9a2.09,2.09,0,0,1,.4-.6,25.28,25.28,0,0,0,1.8-3.7c3.7-10.3,7.4-20.5,11.1-30.8.6-1.6.8-3.4,1.3-5.3h8.7a1,1,0,0,1,1.2.9c2.3,6.4,4.7,12.8,7,19.3.3.8.6.9,1.4.7,3.7-.8,7.3-1.6,11-2.3.9-.2,1.2-.4,1.2-1.4-.1-3.3-.1-6.5,0-9.8.1-2.6-.2-5.1-2-7.3.4,0,.6-.1.8-.1h16.4a23.4,23.4,0,0,1,8.6,1.6,8.08,8.08,0,0,1,1.6,14.1c-1,.7-2,1.2-3,1.8-.3.1-.5.3-.8.4a40.78,40.78,0,0,1,4.2,1.8,9.25,9.25,0,0,1,5.4,8.6c0,4.1-1.4,7.5-5.1,9.7a16.58,16.58,0,0,1-7.8,2.4c-6.6.2-13.3.2-19.9.2A.22.22,0,0,0,199.86,350.84Zm10.8-4.7c2.4-.1,4.7-.1,6.9-.4,2.5-.3,4.7-1.4,5.6-4,.8-2.4.8-4.9-.9-6.9a9,9,0,0,0-7.2-3.2,22.54,22.54,0,0,0-3.6.6c-.6.1-.8.4-.8,1v12.9Zm0-19.1a2.77,2.77,0,0,0,.9-.1,52.92,52.92,0,0,0,5.4-1.3,8.52,8.52,0,0,0,2.9-1.7,4.65,4.65,0,0,0-1.3-7.7c-2.5-1.2-5.1-.8-7.8-.8C210.66,319.34,210.66,323.24,210.66,327Zm-35.9-7.8h-.2c-2.2,6.4-4.4,12.8-6.7,19.4,3.7-2.8,7.9-3.6,12-5.1C178.16,328.74,176.46,324,174.76,319.24Z" transform="translate(0 21.84)"/><path class="cls-4" d="M288.26,350.94c1.7-2.9,1.4-6,1.4-9v-24.7a13.66,13.66,0,0,0-1.4-6.8h15.8a23.63,23.63,0,0,1,8.3,1.3c4.8,1.8,7,5.9,5.8,10.7-.6,2.4-2.3,3.9-4.4,5.1a20.92,20.92,0,0,1-2.1,1c.4.1.6.3.9.3a19.34,19.34,0,0,1,5.5,2.9c4.4,3.6,4.2,13.2-2.3,16.7a20,20,0,0,1-9.2,2.4c-5.8.1-11.7.1-17.5.1A2.13,2.13,0,0,1,288.26,350.94Zm10.4-4.8c2.8,0,5.5.2,8.2-.6a6.17,6.17,0,0,0,4.2-3.5,6.86,6.86,0,0,0-4.7-9.7,50.55,50.55,0,0,0-6.8-.6c-.8-.1-1,.3-1,1V345A4.1,4.1,0,0,1,298.66,346.14Zm.1-30.9v11.6c1.9-.1,3.8-.1,5.6-.3,3.1-.4,4.8-2.3,4.9-5.5a4.92,4.92,0,0,0-4.5-5.5C302.76,315.34,300.76,315.34,298.76,315.24Z" transform="translate(0 21.84)"/><path class="cls-4" d="M331.86,338.34c.5,4.5,3.3,7,8.1,7.3a18.7,18.7,0,0,0,8.4-1.5,13.92,13.92,0,0,0,1.3-.6c.8,1.8,1.6,3.5,2.4,5.3a21,21,0,0,1-6.3,2.4,24.21,24.21,0,0,1-12.8-.6c-5.3-1.8-8.3-5.5-9.2-11a19.34,19.34,0,0,1,.3-8.3,12.68,12.68,0,0,1,12-9.9,26.7,26.7,0,0,1,6.9.4c5.4,1.2,8.4,4.9,9.4,10.2a35.93,35.93,0,0,1,.3,4.7c.1.8-.3,1.1-1.1,1.2-2.3.2-4.6.4-6.9.5-3.9.1-7.8,0-11.7,0A3.75,3.75,0,0,0,331.86,338.34Zm12.3-4.9c.1-3.9-2.2-6.7-5.6-6.9-3.8-.2-6.3,2.4-6.6,6.9Z" transform="translate(0 21.84)"/><path class="cls-4" d="M265.36,350.94H254a3.55,3.55,0,0,0,.4-.9,10.16,10.16,0,0,0,1.2-4.9c0-5.1-.1-10.2,0-15.3,0-2.6-.2-5.1-1.7-7.4h9.7v3.3c.7-.5,1.2-.9,1.7-1.3a13.76,13.76,0,0,1,10.4-2.5c4.2.7,6.7,3.6,6.7,8.1.1,4.1.1,8.3,0,12.4,0,2.9-.1,5.7,1.7,8.3h-11.3c0-.1-.1-.1,0-.2a12.58,12.58,0,0,0,1.6-6.9c-.1-3.5-.1-7.1,0-10.6.1-4.5-2.8-5.8-6.5-5a5.78,5.78,0,0,0-1.7.6c-1.8.8-2.8,1.9-2.7,4.1.2,3.4.1,6.7,0,10.1C263.66,345.74,263.66,348.44,265.36,350.94Z" transform="translate(0 21.84)"/><path class="cls-4" d="M351.86,322.44h10.8c-.8,2.3.1,4.3.9,6.3,1.8,4.5,3.5,9.1,5.4,13.8.2-.4.3-.7.4-.9,1.7-4.6,3.5-9.2,5.2-13.8a7.73,7.73,0,0,0,.6-5.4h8.2c-4.3,7.8-6.9,16.3-10.4,24.4a13.12,13.12,0,0,0-.9,3.4c-.1.5-.2.7-.8.7H365c-.6,0-.7-.4-.9-.8-3-7.4-6.1-14.7-9.2-22.1C354,326.14,352.86,324.34,351.86,322.44Z" transform="translate(0 21.84)"/><path class="cls-4" d="M250.16,350.94h-12.8a1.61,1.61,0,0,1,.4-.7,12,12,0,0,0,1.5-5.9v-26.8a12.51,12.51,0,0,0-1.7-6.6c-.1-.1-.1-.3-.2-.5h12.8a12.81,12.81,0,0,0-1.1,2.4,16,16,0,0,0-.7,3.8c-.1,9.4,0,18.7,0,28.1A11.72,11.72,0,0,0,250.16,350.94Z" transform="translate(0 21.84)"/><path class="cls-5" d="M199.86,350.84c.4-1,.9-1.9,1.3-2.9a5.84,5.84,0,0,0,.4-1.8V334c-3.8.8-7.5,1.5-11.5,2.4,2.1,4.9,3.1,10,6,14.5h-11.3c.4-2.2-.4-4.2-1.1-6.3l-2.1-6c-.1,0-.2-.1-.3-.1-3.8,1.3-7.6,2.6-11.3,4.1a11.69,11.69,0,0,0-3.1,2c-1.9,1.6-2.4,3.8-2.4,6.2h-7.9a2.09,2.09,0,0,1,.4-.6,25.28,25.28,0,0,0,1.8-3.7c3.7-10.3,7.4-20.5,11.1-30.8.6-1.6.8-3.4,1.3-5.3h8.7a1,1,0,0,1,1.2.9c2.3,6.4,4.7,12.8,7,19.3.3.8.6.9,1.4.7,3.7-.8,7.3-1.6,11-2.3.9-.2,1.2-.4,1.2-1.4-.1-3.3-.1-6.5,0-9.8.1-2.6-.2-5.1-2-7.3.4,0,.6-.1.8-.1h16.4a23.4,23.4,0,0,1,8.6,1.6,8.08,8.08,0,0,1,1.6,14.1c-1,.7-2,1.2-3,1.8-.3.1-.5.3-.8.4a40.78,40.78,0,0,1,4.2,1.8,9.25,9.25,0,0,1,5.4,8.6c0,4.1-1.4,7.5-5.1,9.7a16.58,16.58,0,0,1-7.8,2.4c-6.6.2-13.3.2-19.9.2A.22.22,0,0,0,199.86,350.84Zm10.8-4.7c2.4-.1,4.7-.1,6.9-.4,2.5-.3,4.7-1.4,5.6-4,.8-2.4.8-4.9-.9-6.9a9,9,0,0,0-7.2-3.2,22.54,22.54,0,0,0-3.6.6c-.6.1-.8.4-.8,1v12.9Zm0-19.1a2.77,2.77,0,0,0,.9-.1,52.92,52.92,0,0,0,5.4-1.3,8.52,8.52,0,0,0,2.9-1.7,4.65,4.65,0,0,0-1.3-7.7c-2.5-1.2-5.1-.8-7.8-.8C210.66,319.34,210.66,323.24,210.66,327Zm-35.9-7.8h-.2c-2.2,6.4-4.4,12.8-6.7,19.4,3.7-2.8,7.9-3.6,12-5.1C178.16,328.74,176.46,324,174.76,319.24Z" transform="translate(0 21.84)"/><path class="cls-5" d="M288.26,350.94c1.7-2.9,1.4-6,1.4-9v-24.7a13.66,13.66,0,0,0-1.4-6.8h15.8a23.63,23.63,0,0,1,8.3,1.3c4.8,1.8,7,5.9,5.8,10.7-.6,2.4-2.3,3.9-4.4,5.1a20.92,20.92,0,0,1-2.1,1c.4.1.6.3.9.3a19.34,19.34,0,0,1,5.5,2.9c4.4,3.6,4.2,13.2-2.3,16.7a20,20,0,0,1-9.2,2.4c-5.8.1-11.7.1-17.5.1A2.13,2.13,0,0,1,288.26,350.94Zm10.4-4.8c2.8,0,5.5.2,8.2-.6a6.17,6.17,0,0,0,4.2-3.5,6.86,6.86,0,0,0-4.7-9.7,50.55,50.55,0,0,0-6.8-.6c-.8-.1-1,.3-1,1V345A4.1,4.1,0,0,1,298.66,346.14Zm.1-30.9v11.6c1.9-.1,3.8-.1,5.6-.3,3.1-.4,4.8-2.3,4.9-5.5a4.92,4.92,0,0,0-4.5-5.5C302.76,315.34,300.76,315.34,298.76,315.24Z" transform="translate(0 21.84)"/><path class="cls-5" d="M331.86,338.34c.5,4.5,3.3,7,8.1,7.3a18.7,18.7,0,0,0,8.4-1.5,13.92,13.92,0,0,0,1.3-.6c.8,1.8,1.6,3.5,2.4,5.3a21,21,0,0,1-6.3,2.4,24.21,24.21,0,0,1-12.8-.6c-5.3-1.8-8.3-5.5-9.2-11a19.34,19.34,0,0,1,.3-8.3,12.68,12.68,0,0,1,12-9.9,26.7,26.7,0,0,1,6.9.4c5.4,1.2,8.4,4.9,9.4,10.2a35.93,35.93,0,0,1,.3,4.7c.1.8-.3,1.1-1.1,1.2-2.3.2-4.6.4-6.9.5-3.9.1-7.8,0-11.7,0A3.75,3.75,0,0,0,331.86,338.34Zm12.3-4.9c.1-3.9-2.2-6.7-5.6-6.9-3.8-.2-6.3,2.4-6.6,6.9Z" transform="translate(0 21.84)"/><path class="cls-5" d="M265.36,350.94H254a3.55,3.55,0,0,0,.4-.9,10.16,10.16,0,0,0,1.2-4.9c0-5.1-.1-10.2,0-15.3,0-2.6-.2-5.1-1.7-7.4h9.7v3.3c.7-.5,1.2-.9,1.7-1.3a13.76,13.76,0,0,1,10.4-2.5c4.2.7,6.7,3.6,6.7,8.1.1,4.1.1,8.3,0,12.4,0,2.9-.1,5.7,1.7,8.3h-11.3c0-.1-.1-.1,0-.2a12.58,12.58,0,0,0,1.6-6.9c-.1-3.5-.1-7.1,0-10.6.1-4.5-2.8-5.8-6.5-5a5.78,5.78,0,0,0-1.7.6c-1.8.8-2.8,1.9-2.7,4.1.2,3.4.1,6.7,0,10.1C263.66,345.74,263.66,348.44,265.36,350.94Z" transform="translate(0 21.84)"/><path class="cls-5" d="M351.86,322.44h10.8c-.8,2.3.1,4.3.9,6.3,1.8,4.5,3.5,9.1,5.4,13.8.2-.4.3-.7.4-.9,1.7-4.6,3.5-9.2,5.2-13.8a7.73,7.73,0,0,0,.6-5.4h8.2c-4.3,7.8-6.9,16.3-10.4,24.4a13.12,13.12,0,0,0-.9,3.4c-.1.5-.2.7-.8.7H365c-.6,0-.7-.4-.9-.8-3-7.4-6.1-14.7-9.2-22.1C354,326.14,352.86,324.34,351.86,322.44Z" transform="translate(0 21.84)"/><path class="cls-5" d="M250.16,350.94h-12.8a1.61,1.61,0,0,1,.4-.7,12,12,0,0,0,1.5-5.9v-26.8a12.51,12.51,0,0,0-1.7-6.6c-.1-.1-.1-.3-.2-.5h12.8a12.81,12.81,0,0,0-1.1,2.4,16,16,0,0,0-.7,3.8c-.1,9.4,0,18.7,0,28.1A11.72,11.72,0,0,0,250.16,350.94Z" transform="translate(0 21.84)"/></g><rect class="cls-6" x="213.36" y="268.68" width="113.3" height="54.1"/><text class="cls-7" transform="translate(213.32 309.76)">$50B</text><text class="cls-8" transform="translate(211.74 397.99)"><tspan class="cls-9">A</tspan><tspan x="5.84" y="0">nheuser-Busch InB</tspan><tspan class="cls-10" x="82.87" y="0">e</tspan><tspan class="cls-11" x="87.68" y="0">v</tspan><tspan x="91.49" y="0">. S.A. </tspan></text><text class="cls-12" transform="translate(238.29 409.99)">Leu<tspan class="cls-10" x="14.11" y="0">v</tspan><tspan x="18.35" y="0">en, Belgium</tspan></text><g id="China_Resources_Holdings_Co._Ltd" data-name="China Resources Holdings Co., Ltd"><image class="cls-1" width="193" height="192" transform="translate(400.16 443.38)" xlink:href="../../../Downloads/EC8A1E76.png"/><g id="p_984.0015677624056" data-name="p 984.0015677624056"><circle class="cls-2" cx="476.61" cy="519.51" r="78.6"/></g></g><text class="cls-13" transform="translate(431.05 495.51)">$12.76B</text><text class="cls-8" transform="translate(441.37 552.5)">China Resou<tspan class="cls-14" x="50.78" y="0">r</tspan><tspan x="53.98" y="0">ces </tspan></text><text class="cls-8" transform="translate(443.07 563.3)">Holdings Co. Ltd</text><text class="cls-12" transform="translate(450.81 577.59)">Beijing, China</text><g id="Layer_2" data-name="Layer 2" class="cls-3"><g class="cls-15"><path class="cls-4" d="M459.06,494l2.5,4.4a.84.84,0,0,0,1.2.3.86.86,0,0,0,.3-1.2l-3.3-5.7a.91.91,0,0,0-.8-.4,1.23,1.23,0,0,0-.8.4l-3.3,5.7a.87.87,0,1,0,1.5.9Zm-8.5-9.6h20.9v11.8l-2.5-4.4a.91.91,0,0,0-.8-.4,1.23,1.23,0,0,0-.8.4l-3.3,5.7a.87.87,0,1,0,1.5.9l2.5-4.4,2.5,4.4a.91.91,0,0,0,.8.4v4.8l-2.5-4.4a.91.91,0,0,0-.8-.4,1.23,1.23,0,0,0-.8.4l-3.3,5.7a.6.6,0,0,0-.1.4h-.7c0-.2,0-.3-.1-.4l-3.3-5.7a.91.91,0,0,0-.8-.4,1.23,1.23,0,0,0-.8.4l-3.3,5.7a.6.6,0,0,0-.1.4h-4.3l.1-20.9Zm19.9,20.9H466l2.3-3.9Zm-9.1,0h-4.5l2.3-3.9Z" transform="translate(0 21.84)"/><path class="cls-4" d="M484.26,496.64c-.2.1-.6.4-.4.6h.5a.55.55,0,0,0,.3-.5c0-.1-.3-.1-.4-.1m-2.5-1.6c-.1.2-.7.3-.5.6a1.08,1.08,0,0,0,.8-.2c0-.2,0-.4-.3-.4m-.3-.5h.4c.2,0,.2-.2.2-.4-.3,0-.7.1-.6.4m1.5-1.7c.1.4.6.3.9.4.5-.4.1-1.1.4-1.5-.7-.1-1.1.6-1.3,1.1m-1.6-1.2c-.2.3-.5.7-.2,1,.7.2,1-.4,1.1-.8-.1-.5-.7-.3-.9-.2m5.5-6.6c.1.8-.9,1.3-1.3,1.9-.2,0-.5.1-.5.4,1.1,1.1-.7,1.8-1.2,2.8a.31.31,0,0,1-.1.2c.1.2.4.2.6.1l.1-.1s.4-.7.9-.6c.1-.4.4-.4.7-.4.9.8-.8,2.4.8,2.8.1.2,0,.4,0,.6-.7.8-2,.6-2.4,1.6.2.2.5.1.8,0,.1,0,.9-.4,1.2-.5a3.55,3.55,0,0,0,.9-.4,1,1,0,0,1,.3-.1c.6,0,1.3-.2,1.7.4a.45.45,0,0,1,0,.5c-.4.5-1.1.3-1.5.6-.8.3-1.6.4-2.1,1.2.2.5,1.2.9.9,1.6-1,.7-1.9,1-2.9,1.6a38.3,38.3,0,0,0,.1,5.9c-.2.2-.4.5-.6.2s-.2-.4-.4-.6c-.2-1.4-.1-3-.2-4.4V500c0-.1-.1-.3-.2-.3-.5-.2-1,.2-1.4.3a1.85,1.85,0,0,1-.7.2c-.3,0-.7,0-.6-.5-.2-.6.3-.9.7-1.2.2-.2.4-.3.5-.4s.6-.5.7-.8a.88.88,0,0,0-.7-.1c-1.3.8-3,1.2-4.4,1.9-.4.1-1.1.9-1.4,0-.1-.1,0-.3,0-.5,1.5-.9,3.1-1.7,4.5-2.7-.1-.7.5-1.2.7-1.8-.4-.6-1.4.6-1.4-.5-.6-1.4,1.5-1.4,1.4-2.5a4.19,4.19,0,0,1-.4-1.5,2.43,2.43,0,0,1-.9-2.6c1.1-1,2-1.9,3.4-1.9a2.09,2.09,0,0,0,.4.6c.4.1.6-.4.9-.1,0,.3-.3.2-.5.5-.8,1.2-2.1,2.2-2.9,3.2.2.6.5-.1.8-.1a13.66,13.66,0,0,0,3.5-4.1c.4-.8,1.1-.2,1.7-.7.1,0,.3.3.5.6m12.5,8.4c-1-.4-.7,1-1.4,1.1-.2.3.1.7.3.9s.1.8,0,1.1a1,1,0,0,0,.4.5c.9.3.6,1.1,1,1.7a1.22,1.22,0,0,0,1.3,0c-.2-1.7.3-3.3,0-5.1-.5-.1-1.2.3-1.5,0Zm-4.7-1.5c-.3.2-.2.6-.3.9s.1.7.4.6a1,1,0,0,0,.6-.9c.2-.5-.4-.6-.7-.6m.4-2.1a.54.54,0,0,0,.2.8c.4.2.4-.3.4-.5.1-.4-.4-.3-.6-.3m5.6-1-1.1.6c0,.7,1.1.8.9,1.6-.3.4-.7.3-1.1.5,0,.3.4.4.6.7s.7.5.9,0c-.1-1.2.5-2.4-.2-3.4m1.5,1.1c-.2,2.1.2,4,0,6.2v.5c0,.6.1.9.1,1.3.1,1.2,1,3.1-.4,3.8a20.28,20.28,0,0,1-2.3-1.8,2.25,2.25,0,0,0-.5-.5.86.86,0,0,1-.3-.6c-1.1-.5-2.4,1.3-3.3-.2-.7-1,1.5-1.4.3-2.3-.2-.1-.2-.3-.3-.4.3-.3,1.3,0,1.1-.9a2.2,2.2,0,0,0-1.6-.5c-.4,0-.2.6-.3,1,.2,1.6-.8,2.8-.8,4.5,0,.2-.3.4-.4.2-.7-1.2-.3-2.7-.4-4.1,0-1.2.5-2.6-.1-3.7-1,1.3-1,3.1-1.5,4.6a22,22,0,0,1-1.3,3.6c-.5-.4-1.5-.4-1.6-1.3-.1-.3.1-.4.2-.6l.2-.2c.9-1,.7-2.4.9-3.7s-.9-2.6-.3-4l1.6-2.5a3.14,3.14,0,0,1,1.1,2.6c-.4.6-1.1.7-1.6,1.3.4.3.5,1.3,1.2,1,1.1-1.1,1.3-2.5,1.4-4.1.1-.2.3-.3.5-.5s.3-.2.4-.3a8.3,8.3,0,0,1,2.1-.6l.4.7c-.7,1.3-.1,3-.6,4.4,0,.2.3.3.4.4.3,0,.6-.3.8-.4.3-1.8-.1-3.7.7-5.3.3.3.6.8,1.1.6,1.1,0,2.3-2.4,3.2-.6Z" transform="translate(0 21.84)"/><path class="cls-4" d="M451.46,507.44h2.8v.3h-2.9l-.1.7h2.9v.4h0a4.14,4.14,0,0,1-.1,1v.4a.37.37,0,0,1-.1.3.22.22,0,0,1-.2.2c-.1,0-.2.1-.3.1h-.4l-.2-.1-.1-.3a3.22,3.22,0,0,1,.6.2c.1,0,.1,0,.2-.1h0a3.54,3.54,0,0,0,.1-.6,3.75,3.75,0,0,0,.1-1.1h-2.9l.2-.9v-.1l.2-1,.3.1Zm2.1,2.2h-3v-.3h3Z" transform="translate(0 21.84)"/><path class="cls-4" d="M458.66,510.24l-.1-.1v-.7h-.3v.8a.35.35,0,0,0,.4.4h1c.1,0,.2-.1.3-.2a.75.75,0,0,0,.1-.5l-.3-.1v.3c0,.1,0,.1-.1.2a.35.35,0,0,1-.2.1h-.9c.2-.1.1-.1.1-.2m-.3-2.3.3.2a3.81,3.81,0,0,0,.5-.6h1.5a1,1,0,0,0-.1.4l.3.1a6.37,6.37,0,0,0,.2-.7h-1.7l.2-.4-.2-.1c-.3.3-.6.7-1,1.1m-.3-.3a7.76,7.76,0,0,0,.4-.7l-.3-.1a3.33,3.33,0,0,1-.3.6c-.1.2-.2.2-.3.4a2.18,2.18,0,0,1-.5.4l.2.2c.1-.1.3-.2.5-.4v1.2h.3v-1.6Zm1.6,1.2c0,.1,0,.1-.1.1h-.3l.1.3h.3c.1,0,.2,0,.2-.1s.1-.1.1-.2v-1.1h-.3Zm-.2-.8-.2-.1a1.76,1.76,0,0,1-.9.8l.2.2a1.59,1.59,0,0,0,.9-.9m1.2.2c-.2-.2-.3-.3-.4-.3l-.2.1a3.63,3.63,0,0,1,.8.9l.2-.2c-.1-.1-.2-.3-.4-.5m-1.6,1-.2.1c.3.3.4.5.4.7l.3-.1a1.79,1.79,0,0,0-.5-.7m-.9.4-.2-.1a1.78,1.78,0,0,1-.8.7l.2.2a3,3,0,0,0,.8-.8m2.6.2c-.2-.2-.3-.3-.4-.3l-.2.1a2.36,2.36,0,0,1,.8.9l.3-.2c-.2-.2-.3-.4-.5-.5" transform="translate(0 21.84)"/><path class="cls-4" d="M465.06,507.74v.2h0l.1-.1c0-.1.1-.1.1-.2s.1-.2.2-.3a.37.37,0,0,0,.1-.3v-.2a.35.35,0,0,1,.2.1c0,.2-.1.3-.1.4h.8c-.1-.1-.2-.3-.3-.4.1,0,.2-.1.3-.1.1.2.3.3.3.5h.9v.3h-.9v.3h.8v.3h-.8v.3h.8v.3h-.8v.3h1v.3h-2.4v-1.1h0l-.3.3-.2-.2.2-.2h-.4v.9l.4-.2v.3l-.4.2v1.4c0,.1,0,.2-.1.2s-.1.1-.2.1h-.3a.1.1,0,0,0-.1-.1c0-.1,0-.1-.1-.1h.4c.1,0,.1,0,.1-.1h0v-1.2l-.4.2-.2-.2.2-.1c.2-.1.3-.1.4-.2v-1h-.6V508h.6v-.9h.3v.9l.4-.3Zm.6.1h.8v-.3h-.8Zm.8.3h-.8v.3h.8Zm0,.5h-.8v.3h.8Zm-1.3,1v-.3h2v.2c-.1.1-.1.2-.2.3h.7v.5c0,.1,0,.1-.1.2s-.1.1-.2.1h-.2a1.34,1.34,0,0,1-.5-.1l-.1-.3a.44.44,0,0,1,.3.1h.3c.1,0,.1,0,.2-.1a.35.35,0,0,0,.1-.2v-.2h-.8v-.2c.1-.1.2-.2.2-.3h-.8a1.14,1.14,0,0,1-.3.8,1.51,1.51,0,0,1-.8.4l-.2-.3a1.07,1.07,0,0,0,1-.9h-.6Z" transform="translate(0 21.84)"/><path class="cls-4" d="M472.36,510.84h-.6l-.1-.3h.6l.1-.1c.1-.1,0-.1,0-.1v-1h-1.7V509h1.7v-.8H471v-.3h1.4v-.7l-.7.1H471l-.2-.3a12.31,12.31,0,0,0,2.9-.3.35.35,0,0,0,.2-.1l.2.2a3.19,3.19,0,0,1-1.4.3v.7H474v.3h-1.3v.8h1.7v.3h-1.7v1.1c0,.1,0,.2-.1.2,0,.3-.1.3-.2.3" transform="translate(0 21.84)"/><path class="cls-4" d="M481,508.24l.1-.3h.7a3.71,3.71,0,0,1-.4,1.5h0a8.34,8.34,0,0,1-.4-1.2m1.4-.5h-1.2a3.55,3.55,0,0,1,.1-.7l-.3-.1a3.92,3.92,0,0,1-.6,2.3l.3.1a2.19,2.19,0,0,1,.3-.5h0a3,3,0,0,0,.4,1,3.13,3.13,0,0,1-1.1.8l.2.2a3.92,3.92,0,0,0,1-.8h0a6.47,6.47,0,0,0,.9.8l.2-.2a2.36,2.36,0,0,1-.9-.8,3.45,3.45,0,0,0,.5-1.8h.3l-.1-.3Zm-3.2,1h.9v.2h.3v-1.7h-1.5v.3h1.3v1H479v1.8l-.2.2.3.2,1.5-.6v-.3l-1.3.5-.1-1.6Z" transform="translate(0 21.84)"/><path class="cls-4" d="M485.36,508.84l.2.2a5.77,5.77,0,0,0,.8-1l-.2-.2a2.09,2.09,0,0,1-.8,1m3.8-1.4h-1.8l.1-.1-.5-.5-.2.1c.2.1.4.3.4.4h-1.8v.2h1.3v1.2h.2v-1.2h.6v1.2h.3v-1.2h1.3v-.1Zm-.8.5-.2.1a1.85,1.85,0,0,1,.7.9l.2-.1a1.85,1.85,0,0,0-.7-.9m-.8,2.1a4.62,4.62,0,0,0,.7-.7V509h-2.2v.3h.3a6.53,6.53,0,0,0,.7.8,3.45,3.45,0,0,1-1.8.5c.1.1.1.2.2.3a6,6,0,0,0,1.9-.6,3.38,3.38,0,0,0,1,.4c.2.1.5.1.7.2l.2-.2c-.7-.3-1.3-.5-1.7-.7m-.2-.2a1.7,1.7,0,0,1-.6-.6H488a1.7,1.7,0,0,1-.6.6" transform="translate(0 21.84)"/><path class="cls-4" d="M492.26,510.34h1.6v-1h-1.2V509h1.2v-.9H493a2.36,2.36,0,0,1-.6.9l-.3-.2a2.1,2.1,0,0,0,.6-.8,2,2,0,0,0,.2-.9l.3.1a1.76,1.76,0,0,1-.1.6h.8v-1h.3v1h1.5v.3h-1.5v.9h1.3v.3h-1.3v1H496v.3h-3.7v-.3Z" transform="translate(0 21.84)"/><path class="cls-4" d="M500.46,509.44H502v.8h-1.5Zm1.7-.2h-.9v-.8h1.3v-.3h-1.3v-.7a2.6,2.6,0,0,0,1-.4l-.2-.2a4.56,4.56,0,0,1-2.2.4l.1.3a2.51,2.51,0,0,0,1-.1v.7h-1.3v.3H501v.8h-.8v1.6h.3v-.3H502v.3h.3l-.1-1.6Zm-3-2.2-.2.2a1.34,1.34,0,0,1,.7.6l.2-.2a1.34,1.34,0,0,0-.7-.6m.2,1.8.2-.2a2.17,2.17,0,0,0-.7-.6l-.2.2a1.34,1.34,0,0,1,.7.6m-.6,1.7.2.2a3.61,3.61,0,0,0,.8-1.5l-.2-.1a6.38,6.38,0,0,1-.8,1.4" transform="translate(0 21.84)"/></g></g><g id="Carlsberg_A_S" data-name="Carlsberg A/S"><image class="cls-1" width="172" height="172" transform="translate(244.5 53.89) scale(0.99)" xlink:href="../../../Downloads/EC8A1E79.png"/><g id="p_457.66812550027686" data-name="p 457.66812550027686"><circle class="cls-2" cx="310" cy="119.34" r="67.8"/></g></g><text class="cls-16" transform="translate(281.01 100.39)">$9.48B</text><text class="cls-8" transform="translate(281.79 145.39)">Carlsbe<tspan class="cls-14" x="30.94" y="0">r</tspan><tspan x="34.14" y="0">g A/S</tspan></text><text class="cls-12" transform="translate(265.77 156.39)">Copenhagen, Denmark</text><g class="cls-3"><path class="cls-4" d="M334.76,103.54c-1.4,2.2-3.6,3.2-6.1,3.8a21.77,21.77,0,0,1-7.2.2c-2.6-.4-5.3-.9-7.9-1.4a18.33,18.33,0,0,0-8.4.4,14.93,14.93,0,0,0-5.7,3.6.48.48,0,0,1-.7.1c-1.9-1-3.7-2-5.6-3-.4-.2-.4-.2-.1-.5a22.84,22.84,0,0,1,9.3-4.4,22.5,22.5,0,0,1,10,0c2.6.5,5,1.4,7.5,2.1a22.93,22.93,0,0,0,5.2,1.1,13.08,13.08,0,0,0,5.9-.5,4.81,4.81,0,0,0,2.7-1.9,11.73,11.73,0,0,0,.5-1.1.22.22,0,0,1,.2-.2h.3a.27.27,0,0,1,.3.3,1.62,1.62,0,0,0,1.8,1.5,1.52,1.52,0,0,0,1.6-1.6v-1.6c0-.3-.2-.4-.4-.2a2.48,2.48,0,0,1-2.6.5,3.31,3.31,0,0,1-2.1-1.9,4.41,4.41,0,0,1,.8-4.9,3.05,3.05,0,0,1,3.9-.3c.4.4.5.3.8-.2,0-.1.2-.2.3-.2h2.1c.1,0,.3.1.3.2s.1.4-.2.5c-.6.1-.6.4-.6.9v6.8a3.17,3.17,0,0,1-2,3.1,3.21,3.21,0,0,1-3.7-.6C335.16,104,335,103.74,334.76,103.54Zm3.9-6.5v-1.1a1.05,1.05,0,0,0-.5-.9,1.69,1.69,0,0,0-2.4.6,2.62,2.62,0,0,0,0,2.7,1.62,1.62,0,0,0,1.6.8,1.21,1.21,0,0,0,1.3-1.3Z" transform="translate(0 21.84)"/><path class="cls-4" d="M296.26,84.84c-.1.1-.1.2-.2.3-1.3,1.8-2.7,3.5-4,5.3-.1.2-.2.3-.4.1a5.24,5.24,0,0,0-6.4-.3,7.14,7.14,0,0,0-1.4,10.6,7.78,7.78,0,0,0,11,.9c.1,0,.1-.1.2-.1a.45.45,0,0,1,.5,0,.33.33,0,0,1,0,.5l-.6.6a10,10,0,0,1-7.2,2.4,9.82,9.82,0,0,1-8.5-5.8,10.49,10.49,0,0,1,.1-9.3,13.55,13.55,0,0,1,3.7-4.9.76.76,0,0,1,.5-.2H296C296,84.74,296.06,84.84,296.26,84.84Z" transform="translate(0 21.84)"/><path class="cls-4" d="M319.36,96.84a3.79,3.79,0,0,1,1.7-3.1,3.55,3.55,0,0,1,2.8-.6,2.45,2.45,0,0,1,1.7,1.1,9.13,9.13,0,0,1,1.3-.8,6.47,6.47,0,0,1,1.3-.4,1,1,0,0,1,1,.4h0c.2.2.3.4.6.3s.2-.4.1-.7a.73.73,0,0,1,.9-.8c.2,0,.4.2.6.3a1.38,1.38,0,0,1,.4.3q.6.3.9,0a.63.63,0,0,0,.1-.9c-.2-.3-.4-.5-.6-.8-.1-.1-.3-.3-.1-.5s.3-.1.5,0a2.7,2.7,0,0,1,.9,3.6,1.59,1.59,0,0,1-1,.8c-.5.1-.9.1-1.2-.3a.54.54,0,0,0-.8-.2c-.3.1-.4.4-.4.8v4.1c0,.2.1.4.3.4a.76.76,0,0,1,.4.2c.1.3,0,.5-.3.5h-2.4c-.3,0-.4-.1-.4-.4v-4.8c0-.8-.5-.9-1-.7-.1,0-.2.1-.3.1a1.24,1.24,0,0,0-.6.8,2.77,2.77,0,0,1-2.3,2.2,5.9,5.9,0,0,1-1.4.2c0,.1.1.2.1.3a2.43,2.43,0,0,0,3.7.4l.1-.1c.1,0,.3-.1.4-.1s.1.3,0,.4-.3.5-.4.7a3.89,3.89,0,0,1-6.2-.9c0-.1-.1-.1-.1-.2-.1-.9-.8-1-1.5-1.3v1.2a2,2,0,0,1-2.2,2.2,10.87,10.87,0,0,1-1.8-.1,2.27,2.27,0,0,1-2-2.5v-8.5a.55.55,0,0,0-.4-.6c-.3,0-.4-.3-.3-.6,0-.1.1-.1.2-.1h2.7c.2,0,.2.1.2.3V98a1.08,1.08,0,0,0,.7,1.1,1.37,1.37,0,0,0,1.5-.2.71.71,0,0,0,.3-.6v-1.8c0-.1-.1-.2-.1-.3a.1.1,0,0,1-.1-.1c-1.1-.7-.9-.3-.9-1.7v-1.1a.27.27,0,0,1,.3-.3h1.9a.27.27,0,0,1,.3.3v2.3a.55.55,0,0,0,.3.5A.75.75,0,0,0,319.36,96.84Zm2.5.3a1.27,1.27,0,0,0,.6-.1,2.27,2.27,0,0,0,1.8-1.6.67.67,0,0,0-.8-.9,1.22,1.22,0,0,0-1,.6A3.17,3.17,0,0,0,321.86,97.14Z" transform="translate(0 21.84)"/><path class="cls-4" d="M295.06,98.44a10,10,0,0,1-1.1,1,14.31,14.31,0,0,1-1.5,1.1c-.7.4-1.1.3-1.6-.4-.4-.5-.7-.5-1.1-.2a3,3,0,0,1-4.2-.2,4.26,4.26,0,0,1,.3-6,3.15,3.15,0,0,1,3.8-.2c.1,0,.1.1.2.1.3.2.5.1.6-.2s.2-.3.5-.3h2c.1,0,.3.1.3.2s.1.4-.2.5c-.5.2-.5.2-.5.7v3.3c0,.6.4.9.9.6s1.1-.8,1.6-1.1a.37.37,0,0,0,.1-.3v-2.5c0-.4-.2-.4-.5-.3-.1.1-.4,0-.4,0a.3.3,0,0,1,0-.4,1.56,1.56,0,0,1,1.8-.7,1.24,1.24,0,0,1,.8.6c.1.1.1.2.2.3s.3.2.5,0a1.38,1.38,0,0,0,.3-.4,1.82,1.82,0,0,1,2.1-.5,1.75,1.75,0,0,1,1,1.8,1.7,1.7,0,0,1-1.5,1.5.91.91,0,0,1-.8-.4.75.75,0,0,1,0-.9c.1-.2.2-.4-.1-.6a.62.62,0,0,0-.7.1.76.76,0,0,0-.2.5v4.2c0,.2.1.3.3.4a.52.52,0,0,1,.4.2c.2.3,0,.5-.3.5h-2.5c-.3,0-.3-.1-.3-.3A4.16,4.16,0,0,1,295.06,98.44Zm-5-1.5v-1.1a.91.91,0,0,0-.4-.8,1.72,1.72,0,0,0-2.3.3,2.29,2.29,0,0,0-.4,2.1,1.7,1.7,0,0,0,1.9,1.6,1.18,1.18,0,0,0,1.2-1.3Z" transform="translate(0 21.84)"/><path class="cls-4" d="M304.06,93.64v5.1a.46.46,0,0,0,.4.5.73.73,0,0,0,.6-.2.59.59,0,0,0,.1-.7c-.3-.4.2-.4.3-.5s.3,0,.4.2a1.71,1.71,0,0,0,2,1.1,1,1,0,0,0,.7-.8,1,1,0,0,0-.4-1,2.51,2.51,0,0,0-.7-.4,2.51,2.51,0,0,1-.7-.4,1.85,1.85,0,0,1,.9-3.4h3.5c.2,0,.3.1.2.3-.2.5-.5,1-.7,1.6-.1.2-.2.2-.3.1a2.93,2.93,0,0,0-1.6-.4.67.67,0,0,0-.7.5c-.1.3.1.5.4.7s.6.3.9.5.5.2.7.3a1.62,1.62,0,0,1,1,1.7,2,2,0,0,1-1.2,1.7,3.55,3.55,0,0,1-1,.2H304a2.31,2.31,0,0,1-2.5-2.5v-8.5c0-.4-.1-.6-.5-.6a.27.27,0,0,1-.3-.3c0-.3.1-.4.4-.4h2.4c.3,0,.4.1.4.4A47.87,47.87,0,0,1,304.06,93.64Z" transform="translate(0 21.84)"/><path class="cls-4" d="M328.16,87a1.09,1.09,0,0,0-.4-.9c-.3-.3-.4-.6-.2-.9a.67.67,0,0,1,.8-.3,1.16,1.16,0,0,0,1-.2c.4-.3.7-.1.7.4v.6c0,.2.1.4.4.3s.3-.1.3-.4V85a.45.45,0,0,1,.7-.4,1.07,1.07,0,0,0,1.1.1.67.67,0,0,1,.8.3.54.54,0,0,1-.2.8,1.28,1.28,0,0,0-.4,1c0,.4-.3.6-.7.4-.2-.1-.3-.2-.5-.3s-.4-.1-.5.1a.37.37,0,0,0,.2.5c.2.1.3.2.5.3a.42.42,0,0,1,0,.8,1.34,1.34,0,0,0-.7.8c-.1.4-.3.5-.7.5a.56.56,0,0,1-.6-.5,1,1,0,0,0-.7-.8.42.42,0,0,1,0-.8,2.19,2.19,0,0,0,.5-.3c.2-.1.2-.3.1-.5s-.3-.2-.5-.1-.3.2-.5.3C328.46,87.74,328.16,87.64,328.16,87Z" transform="translate(0 21.84)"/></g><g id="Molson_Coors_Beverage_Co." data-name="Molson Coors Beverage Co."><image class="cls-1" width="179" height="179" transform="translate(381.89 97.69) scale(0.99)" xlink:href="../../../Downloads/EC8A1E7A.png"/><g id="p_651.6362360511373" data-name="p 651.6362360511373"><path class="cls-2" d="M451,216.71a71.65,71.65,0,0,1-.1-143.3h0a71.65,71.65,0,1,1,.1,143.3Z" transform="translate(0 21.84)"/></g></g><text class="cls-17" transform="translate(417.09 147.2)">$10.6B</text><text class="cls-8" transform="translate(421.65 192.2)">Molson Coors </text><text class="cls-8" transform="translate(423.95 203)">B<tspan class="cls-10" x="5.74" y="0">ev</tspan><tspan x="15.04" y="0">e</tspan><tspan class="cls-18" x="19.91" y="0">r</tspan><tspan x="23.06" y="0">age Co.</tspan></text><text class="cls-12" transform="translate(421.05 215.2)">Chicago, Illinois</text><g class="cls-3"><path class="cls-4" d="M491,148.24a6.6,6.6,0,0,0-1.4.1c0,.1,0,.1-.1.2a1.42,1.42,0,0,0,.6.2,4.5,4.5,0,0,0,.8-.2.77.77,0,0,1-1,.6,1.39,1.39,0,0,1-.8-.7.84.84,0,0,1,.4-1.1,2.16,2.16,0,0,1,1.1.1c.1,0,.2.3.3.4A.6.6,0,0,1,491,148.24Z" transform="translate(0 21.84)"/><path class="cls-4" d="M419.26,148.84a4.65,4.65,0,0,0-2.8-3.9,4.49,4.49,0,0,0-4.7.8,6.1,6.1,0,0,1,.6-6.8A6.34,6.34,0,0,1,420,137a6.59,6.59,0,0,1,3.9,6.7C423.36,146,421.26,148.54,419.26,148.84Z" transform="translate(0 21.84)"/><path class="cls-4" d="M439.16,143c-1,.2-1.1.2-1.2-.7q-.3-1.65-.6-3.6c-.9,1.4-1.7,2.7-2.6,4-.9-1.4-1.7-2.6-2.6-4-.2,1.1-.3,2-.5,2.9,0,.2-.1.4-.1.6-.1.9-.2,1-1.2.7.3-2.3.7-4.7,1-7h.1c.5.8,1.1,1.6,1.6,2.4s1.1,1.6,1.6,2.5c1.1-1.7,2.2-3.2,3.2-4.8h.1C438.46,138.34,438.86,140.74,439.16,143Z" transform="translate(0 21.84)"/><path class="cls-4" d="M411.56,147a7.56,7.56,0,0,0,3,2.3,8.17,8.17,0,0,0,3.8.5,3.37,3.37,0,0,1-2.5,2.9,4,4,0,0,1-4.4-1.6A3.71,3.71,0,0,1,411.56,147Z" transform="translate(0 21.84)"/><path class="cls-4" d="M442.76,146a3.75,3.75,0,0,1,0,7.5,3.8,3.8,0,0,1-3.8-3.8A3.71,3.71,0,0,1,442.76,146Zm2.5,3.7a2.6,2.6,0,1,0-2.6,2.7A2.49,2.49,0,0,0,445.26,149.74Z" transform="translate(0 21.84)"/><path class="cls-4" d="M444.86,143.24a3.69,3.69,0,0,1-3.7-3.7,3.78,3.78,0,0,1,3.7-3.8,3.75,3.75,0,0,1,0,7.5Zm2.6-3.8a2.6,2.6,0,1,0-5.2,0,2.67,2.67,0,0,0,2.6,2.7A2.49,2.49,0,0,0,447.46,139.44Z" transform="translate(0 21.84)"/><path class="cls-4" d="M471.56,139.54a3.75,3.75,0,0,1-7.5,0,3.75,3.75,0,1,1,7.5,0Zm-1.1,0a2.6,2.6,0,1,0-5.2,0,2.6,2.6,0,1,0,5.2,0Z" transform="translate(0 21.84)"/><path class="cls-4" d="M448.26,149.74a3.65,3.65,0,0,1,3.8-3.7,3.71,3.71,0,0,1,3.7,3.8,3.75,3.75,0,1,1-7.5-.1Zm3.7,2.8a2.7,2.7,0,1,0-2.6-2.7A2.61,2.61,0,0,0,452,152.54Z" transform="translate(0 21.84)"/><path class="cls-4" d="M478.86,140.34v-3.9c0-.6.2-.7.7-.7.3,0,.5.1.5.5v6.5c0,.1,0,.1-.1.3-1.6-1.5-3.1-3-4.8-4.6v4.1c0,.4-.1.6-.6.6s-.6-.1-.6-.5v-6.2a1.09,1.09,0,0,1,.1-.5C475.76,137.34,477.26,138.84,478.86,140.34Z" transform="translate(0 21.84)"/><path class="cls-4" d="M461.46,150.74c.6.9,1.2,1.7,1.8,2.6-.8.3-1.2.2-1.6-.4s-.8-1.1-1.2-1.7c-.3-.4-.6-.6-1.1-.4v2.1c0,.4-.1.6-.6.6s-.6-.2-.6-.6v-6.1c0-.5.1-.7.6-.6h2.4a2.08,2.08,0,0,1,2.1,1.9,2.12,2.12,0,0,1-1.5,2.6C461.76,150.64,461.66,150.74,461.46,150.74Zm-2.1-1h1.8a1.12,1.12,0,0,0,1-1.2c0-.7-.3-1.3-.8-1.3a13.33,13.33,0,0,0-2,0Z" transform="translate(0 21.84)"/><path class="cls-4" d="M456.86,141c.6-.1,1-.2,1.3.5s1.7.9,2.3.3a1,1,0,0,0-.1-1.6,5.64,5.64,0,0,0-1.2-.4c-.5-.2-1-.3-1.4-.5a1.66,1.66,0,0,1-.8-2.1,2.4,2.4,0,0,1,2.6-1.5,2.08,2.08,0,0,1,2.1,1.9v.2c-.7.3-.9.2-1.2-.4a1.15,1.15,0,0,0-1.1-.6c-.5,0-1,.1-1.2.6a.84.84,0,0,0,.3,1.2c.3.2.7.2,1.1.4l.9.3a1.85,1.85,0,0,1,1.4,1.9,2.11,2.11,0,0,1-1.6,2,2.87,2.87,0,0,1-2.7-.4A5.63,5.63,0,0,1,456.86,141Z" transform="translate(0 21.84)"/><path class="cls-4" d="M470.36,148.14c-.6.1-1,.2-1.3-.5s-1.8-.8-2.3,0a.87.87,0,0,0,.3,1.3c.3.2.7.2,1.1.4a5.64,5.64,0,0,1,1.2.4,1.94,1.94,0,0,1,.3,3.4c-1.5,1.1-4,.3-4.2-1.4v-.2c.5-.1,1-.2,1.3.5s1.7.9,2.4.3a.93.93,0,0,0-.1-1.5c-.2-.1-.5-.2-.7-.3a6.47,6.47,0,0,1-1.3-.4,1.9,1.9,0,0,1-1.5-1.9,2,2,0,0,1,1.5-1.9,2.77,2.77,0,0,1,2.5.3A1.65,1.65,0,0,1,470.36,148.14Z" transform="translate(0 21.84)"/><path class="cls-4" d="M417.26,149.14a6.21,6.21,0,0,1-4.9-2.3c-.5-.5-.4-.6.1-1a3.88,3.88,0,0,1,6,2.5c.1.7.1.7-.6.8C417.66,149.24,417.46,149.14,417.26,149.14Z" transform="translate(0 21.84)"/><path class="cls-4" d="M436.16,151.64c.2.2.5.4.7.6a3.59,3.59,0,0,1-3.8,1.2,3.72,3.72,0,0,1-2.7-3.5,3.79,3.79,0,0,1,2.5-3.6,3.53,3.53,0,0,1,4,1.1c-.2.2-.5.4-.7.6-1.8-1.2-3.1-1.1-4.1.1a2.74,2.74,0,0,0,.1,3.6C433.26,152.74,434.56,152.74,436.16,151.64Z" transform="translate(0 21.84)"/><path class="cls-4" d="M455.16,142.14v1h-2.7c-1.4,0-1.4,0-1.4-1.4v-5.9h1.1v5.6c0,.5.2.6.6.6A20.08,20.08,0,0,0,455.16,142.14Z" transform="translate(0 21.84)"/><path class="cls-4" d="M488.66,147.24a12.75,12.75,0,0,1-.1,2,1.21,1.21,0,0,1-.7.7c-.4.2-.7,0-1-.5.5-.1,1.3.6,1.4-.4-.9.2-1.5-.1-1.5-.8a.89.89,0,0,1,1.1-1Zm-1.1,1.5h.3c.1-.2.4-.5.4-.7a.5.5,0,1,0-1,0C487.16,148.34,487.36,148.54,487.56,148.74Z" transform="translate(0 21.84)"/><path class="cls-4" d="M474.06,149v-2.5c0-.1.1-.2.2-.3.1.1.2.2.2.3v.7a4.33,4.33,0,0,0,.5-.1c.3.1.8.2.9.5a1.15,1.15,0,0,1-.1,1,2.47,2.47,0,0,1-.9.4C474.66,149.14,474.46,149,474.06,149Zm1.2-1.6H475c-.1.2-.4.4-.4.7a.64.64,0,0,0,.5.5.5.5,0,0,0,.6-.5A4.35,4.35,0,0,1,475.26,147.44Z" transform="translate(0 21.84)"/><path class="cls-4" d="M478.46,151.54c.6.1,1.1.2,1.6.3.1,0,.2-.1.3-.2a.67.67,0,0,1,1,.5,3.35,3.35,0,0,1,0,1c0,.1-.1.2-.2.3-.1-.1-.2-.2-.2-.3v-.6c-.1-.2-.3-.4-.4-.6-.1.2-.3.4-.4.6s0,.3,0,.5a.25.25,0,1,1-.4,0v-.6a.78.78,0,0,0-.4-.4c-.1.1-.4.3-.4.4s0,.5,0,.7-.1.2-.2.3c-.1-.1-.2-.2-.2-.3A8.08,8.08,0,0,1,478.46,151.54Z" transform="translate(0 21.84)"/><path class="cls-4" d="M482.36,153.34v.7a.22.22,0,0,1-.2.2c-.1-.1-.2-.1-.2-.2v-2.4c.4,0,.6-.1.9-.1a2.47,2.47,0,0,1,.9.4.78.78,0,0,1,0,1.1,2.47,2.47,0,0,1-.9.4C482.76,153.54,482.56,153.44,482.36,153.34Zm1.2-.7v-.3c-.2-.2-.4-.4-.6-.4a.64.64,0,0,0-.5.5.5.5,0,0,0,.5.6C483.16,153,483.36,152.84,483.56,152.64Z" transform="translate(0 21.84)"/><path class="cls-4" d="M482.36,148.24h-1.3c0,.1,0,.1-.1.2a1.42,1.42,0,0,0,.6.2c.2,0,.4-.1.7-.1a.79.79,0,0,1-1.1.4,1,1,0,0,1-.6-1.2.92.92,0,0,1,1.1-.7C482.16,147.24,482.36,147.54,482.36,148.24Z" transform="translate(0 21.84)"/><path class="cls-4" d="M476.76,148.24c.4.7.9.2,1.4.3a1,1,0,0,1-1.2.5,1,1,0,0,1,.2-1.9.89.89,0,0,1,1,.6c.1.3.1.5-.3.5Z" transform="translate(0 21.84)"/><path class="cls-4" d="M486.16,147.24v1.7c-.3,0-.6.1-.9.1a2.47,2.47,0,0,1-.9-.4,1.08,1.08,0,0,1,0-1.1,1,1,0,0,1,.8-.4C485.56,147.14,485.86,147.24,486.16,147.24Zm-.3,1.1c0-.5-.2-.8-.6-.7-.2.1-.5.3-.5.5s.2.6.6.5C485.46,148.64,485.66,148.44,485.86,148.34Z" transform="translate(0 21.84)"/><path class="cls-4" d="M486.26,153.34c-.4,0-.7.1-.9.1s-.8-.2-.9-.4a2.05,2.05,0,0,1,0-1.1c.1-.2.6-.3.9-.4s.4,0,.6,0,.2.2.3.3Zm-.4-.7v-.3a1,1,0,0,0-.7-.4.64.64,0,0,0-.5.5.5.5,0,0,0,.5.6A1,1,0,0,0,485.86,152.64Z" transform="translate(0 21.84)"/><path class="cls-4" d="M477.06,153.54a1,1,0,1,1,1-1A1,1,0,0,1,477.06,153.54Zm.6-.9v-.3c-.2-.2-.4-.4-.6-.4a.64.64,0,0,0-.5.5.5.5,0,0,0,.5.6C477.26,153,477.46,152.84,477.66,152.64Z" transform="translate(0 21.84)"/><path class="cls-4" d="M486.76,151.64c.4,0,.6-.1.9-.1s.7.1.8.5a2.05,2.05,0,0,1,0,1.1.22.22,0,0,1-.2.2c-.1-.1-.2-.2-.2-.3v-.7c-.1-.2-.3-.3-.4-.5-.2.2-.4.3-.5.5s0,.4,0,.6-.1.2-.2.3c-.1-.1-.2-.2-.2-.3Z" transform="translate(0 21.84)"/><path class="cls-4" d="M489.16,154.34c.8-1-.1-1.8-.2-2.7.3,0,.3,0,.9,1.1.4-.3.2-1,.8-1.2C490.56,152.44,489.66,154.24,489.16,154.34Z" transform="translate(0 21.84)"/><path class="cls-4" d="M475.76,151.94c-.4.2-1.3-.3-1.3.6s.8.3,1.3.5a1,1,0,0,1-1.4.2,1.07,1.07,0,0,1-.1-1.4A1,1,0,0,1,475.76,151.94Z" transform="translate(0 21.84)"/><path class="cls-4" d="M479.36,148.34c.4-.3.2-1,1-1.1a11.11,11.11,0,0,1-.7,1.6c-.2.3-.4.3-.5,0l-.6-1.5C478.76,147.24,478.76,147.24,479.36,148.34Z" transform="translate(0 21.84)"/><path class="cls-4" d="M482.86,147.24c.4,0,.6-.1.9-.1.1,0,.2.1.3.2-.1.1-.1.2-.2.2-.5,0-.6.4-.6.8v.5a.22.22,0,0,1-.2.2l-.2-.2Z" transform="translate(0 21.84)"/></g><g id="Heineken_N.V." data-name="Heineken N.V."><image class="cls-1" width="273" height="273" transform="translate(456.16 220.38)" xlink:href="../../../Downloads/EC8A1E7B.png"/><g id="p_965.9637880029716" data-name="p 965.9637880029716"><circle class="cls-2" cx="573.12" cy="337.07" r="118.5"/></g></g><rect class="cls-6" x="516.46" y="287.08" width="113.3" height="54.1"/><text class="cls-19" transform="translate(530.64 317.84)">$29B</text><rect class="cls-6" x="541.46" y="370.48" width="63.2" height="11.3"/><text class="cls-8" transform="translate(544.14 378.15)">Heine<tspan class="cls-20" x="23.52" y="0">k</tspan><tspan x="28.23" y="0">en N.</tspan><tspan class="cls-21" x="49.35" y="0">V</tspan><tspan x="54.29" y="0">.</tspan></text><rect class="cls-6" x="519.26" y="382.48" width="107.7" height="11.3"/><text class="cls-12" transform="translate(524.58 390.15)">Amste<tspan class="cls-14" x="25.3" y="0">r</tspan><tspan x="28.23" y="0">dam, Netherlands</tspan></text><g class="cls-3"><path class="cls-4" d="M648.56,314v.7a1.36,1.36,0,0,0-.8,1.3v15.9a1,1,0,0,1-1,1h-3.1l-6.8-10.9s.1.9.1,2v8.9h-3.8V314h2.5a3,3,0,0,1,2.8,1.5l5.7,9.1a7.1,7.1,0,0,1-.2-2v-8.5h4.6V314Zm-73.2,0v17.9a1,1,0,0,1-1,1h-3.2l-6.8-10.9s.1.9.1,2v8.9h-3.8V314h2.5a3,3,0,0,1,2.8,1.5l5.7,9.1a7.1,7.1,0,0,1-.2-2v-8.5C571.46,314,575.36,314,575.36,314Zm-47.3,0H523v7.2h-4.4V314h-5.9v.7a1.36,1.36,0,0,1,.8,1.3v16.9h5.1v-8.1H523v8.1h5.1V314Zm16.6,0h-11.4v17.2a1.8,1.8,0,0,0,1.9,1.7h9.5a1,1,0,0,0,1-1v-2.4h-6.5a.79.79,0,0,1-.8-.8v-4h5.8v-3.4h-5.8v-3.8h7.2v-2.4A1,1,0,0,0,544.66,314Zm10.8,0h-5.1v17.9a1,1,0,0,0,1,1h4.1V314Zm72.3,0h-11.4v17.2a1.87,1.87,0,0,0,1.9,1.7h9.5a1,1,0,0,0,1-1v-2.4h-6.6a.79.79,0,0,1-.8-.8v-4h5.8v-3.4h-5.8v-3.8h7.2v-2.4A.84.84,0,0,0,627.76,314Zm-35.9,0h-11.4v17.2a1.87,1.87,0,0,0,1.9,1.7h9.5a1,1,0,0,0,1-1v-2.4h-6.5a.79.79,0,0,1-.8-.8v-4h5.8v-3.4h-5.8v-3.8h7.2v-2.4a1,1,0,0,0-.9-1.1Zm21.5,0h-3.7a2.73,2.73,0,0,0-2.3,1l-5.2,5.9v-7h-5.1v17.9a1,1,0,0,0,1,1h4.1v-8.5l4.5,7a3,3,0,0,0,2.9,1.6h4.2l-7.1-11.2,6.7-7.7Z" transform="translate(0 21.84)"/><path class="cls-4" d="M502.66,321a.25.25,0,0,1-.4-.1.19.19,0,0,1,0-.3c.1-.4,2.7-8.5,2.7-8.5l-7.2-5.2a.35.35,0,0,1,.2-.6h8.9s2.6-8.1,2.7-8.5a.52.52,0,0,1,.4-.2.22.22,0,0,1,.2.2c.1.4,2.7,8.5,2.7,8.5h8.9a.35.35,0,0,1,.2.6l-4.2,3.1h-5l-1.5-4.8-1.5,4.8h-5l4.1,3-1.5,4.8-4.7,3.2" transform="translate(0 21.84)"/></g></g><image width="3114" height="2462" transform="scale(0.24)" xlink:href="empresotas2.png"/></svg>