<?xml version="1.0" encoding="utf-8"?>
<!-- Generator: Adobe Illustrator 24.1.1, SVG Export Plug-In . SVG Version: 6.00 Build 0)  -->
<svg version="1.1" id="Layer_1" xmlns="http://www.w3.org/2000/svg" xmlns:xlink="http://www.w3.org/1999/xlink" x="0px" y="0px"
	 viewBox="0 0 747.4 637.7" style="enable-background:new 0 0 747.4 637.7;" xml:space="preserve">
<style type="text/css">
	.st0{fill:#423725;stroke:#FFFFFF;stroke-width:4;stroke-miterlimit:10;}
	.st1{opacity:0.7;}
	.st2{fill:#FFFFFF;}
	.st3{fill:none;stroke:#FFFFFF;}
	.st4{fill:none;}
	.st5{font-family:'Roboto-Bold';}
	.st6{font-size:48px;}
	.st7{font-size:9px;}
	.st8{font-family:'Roboto-Thin';}
	.st9{font-size:24px;}
	.st10{font-size:18px;}
	.st11{font-size:21px;}
	.st12{font-size:36px;}
</style>
<g id="Centro">
	
		<image style="overflow:visible;enable-background:new    ;" width="2627" height="2628" xlink:href="empresotas1.png"  transform="matrix(0.24 0 0 0.24 91.84 6.98)">
	</image>
	<g id="SVGID">
		<path class="st0" d="M270,508.6c-85.9,0-155.6-69.7-155.7-155.6c-0.1-86,69.6-155.6,155.6-155.7h0.1c86,0,155.6,69.7,155.6,155.7
			S356,508.6,270,508.6L270,508.6z"/>
	</g>
	<g class="st1">
		<path class="st2" d="M199.9,372.7c0.4-1,0.9-1.9,1.3-2.9c0.2-0.6,0.4-1.2,0.4-1.8v-12.1c-3.8,0.8-7.5,1.5-11.5,2.4
			c2.1,4.9,3.1,10,6,14.5h-11.3c0.4-2.2-0.4-4.2-1.1-6.3l-2.1-6c-0.1,0-0.2-0.1-0.3-0.1c-3.8,1.3-7.6,2.6-11.3,4.1
			c-1.1,0.5-2.2,1.2-3.1,2c-1.9,1.6-2.4,3.8-2.4,6.2h-7.9c0.1-0.2,0.2-0.4,0.4-0.6c0.7-1.2,1.3-2.4,1.8-3.7
			c3.7-10.3,7.4-20.5,11.1-30.8c0.6-1.6,0.8-3.4,1.3-5.3h8.7c0.5-0.1,1.1,0.2,1.2,0.8c0,0,0,0.1,0,0.1c2.3,6.4,4.7,12.8,7,19.3
			c0.3,0.8,0.6,0.9,1.4,0.7c3.7-0.8,7.3-1.6,11-2.3c0.9-0.2,1.2-0.4,1.2-1.4c-0.1-3.3-0.1-6.5,0-9.8c0.1-2.6-0.2-5.1-2-7.3
			c0.4,0,0.6-0.1,0.8-0.1h16.4c2.9,0,5.9,0.5,8.6,1.6c4.1,1.7,6.1,6.4,4.4,10.5c-0.6,1.4-1.6,2.7-2.8,3.6c-1,0.7-2,1.2-3,1.8
			c-0.3,0.1-0.5,0.3-0.8,0.4c1.4,0.5,2.8,1.1,4.2,1.8c3.4,1.5,5.5,4.9,5.4,8.6c0,4.1-1.4,7.5-5.1,9.7c-2.4,1.4-5,2.3-7.8,2.4
			c-6.6,0.2-13.3,0.2-19.9,0.2C200,372.7,200,372.7,199.9,372.7z M210.7,368c2.4-0.1,4.7-0.1,6.9-0.4c2.5-0.3,4.7-1.4,5.6-4
			c0.8-2.4,0.8-4.9-0.9-6.9c-1.8-2.1-4.4-3.3-7.2-3.2c-1.2,0.1-2.4,0.3-3.6,0.6c-0.6,0.1-0.8,0.4-0.8,1V368z M210.7,348.9
			c0.3,0,0.6,0,0.9-0.1c1.8-0.3,3.6-0.8,5.4-1.3c1.1-0.4,2.1-0.9,2.9-1.7c1.9-1.7,2-4.7,0.3-6.6c-0.4-0.5-1-0.9-1.6-1.1
			c-2.5-1.2-5.1-0.8-7.8-0.8C210.7,341.2,210.7,345.1,210.7,348.9L210.7,348.9z M174.8,341.1h-0.2c-2.2,6.4-4.4,12.8-6.7,19.4
			c3.7-2.8,7.9-3.6,12-5.1C178.2,350.6,176.5,345.8,174.8,341.1L174.8,341.1z"/>
		<path class="st2" d="M288.3,372.8c1.7-2.9,1.4-6,1.4-9v-24.7c0.1-2.3-0.4-4.7-1.4-6.8h15.8c2.8-0.1,5.6,0.4,8.3,1.3
			c4.8,1.8,7,5.9,5.8,10.7c-0.6,2.4-2.3,3.9-4.4,5.1c-0.7,0.4-1.4,0.7-2.1,1c0.4,0.1,0.6,0.3,0.9,0.3c2,0.7,3.8,1.6,5.5,2.9
			c4.4,3.6,4.2,13.2-2.3,16.7c-2.8,1.5-6,2.4-9.2,2.4c-5.8,0.1-11.7,0.1-17.5,0.1C288.8,372.8,288.5,372.8,288.3,372.8z M298.7,368
			c2.8,0,5.5,0.2,8.2-0.6c1.9-0.4,3.4-1.7,4.2-3.5c1.7-3.4,0.2-7.5-3.2-9.2c-0.5-0.2-1-0.4-1.5-0.5c-2.3-0.4-4.5-0.6-6.8-0.6
			c-0.8-0.1-1,0.3-1,1v12.3C298.6,367.2,298.7,367.6,298.7,368z M298.8,337.1v11.6c1.9-0.1,3.8-0.1,5.6-0.3c3.1-0.4,4.8-2.3,4.9-5.5
			c0.3-2.7-1.6-5.2-4.3-5.5c-0.1,0-0.1,0-0.2,0C302.8,337.2,300.8,337.2,298.8,337.1L298.8,337.1z"/>
		<path class="st2" d="M331.9,360.2c0.5,4.5,3.3,7,8.1,7.3c2.9,0.2,5.8-0.4,8.4-1.5c0.4-0.2,0.9-0.4,1.3-0.6
			c0.8,1.8,1.6,3.5,2.4,5.3c-2,1.1-4.1,1.9-6.3,2.4c-4.2,1-8.7,0.7-12.8-0.6c-5.3-1.8-8.3-5.5-9.2-11c-0.5-2.8-0.4-5.6,0.3-8.3
			c1.3-5.7,6.2-9.7,12-9.9c2.3-0.2,4.6,0,6.9,0.4c5.4,1.2,8.4,4.9,9.4,10.2c0.2,1.6,0.3,3.1,0.3,4.7c0.1,0.8-0.3,1.1-1.1,1.2
			c-2.3,0.2-4.6,0.4-6.9,0.5c-3.9,0.1-7.8,0-11.7,0C332.6,360.2,332.2,360.2,331.9,360.2z M344.2,355.3c0.1-3.9-2.2-6.7-5.6-6.9
			c-3.8-0.2-6.3,2.4-6.6,6.9H344.2z"/>
		<path class="st2" d="M265.4,372.8H254c0.2-0.3,0.3-0.6,0.4-0.9c0.8-1.5,1.2-3.2,1.2-4.9c0-5.1-0.1-10.2,0-15.3
			c0-2.6-0.2-5.1-1.7-7.4h9.7v3.3c0.7-0.5,1.2-0.9,1.7-1.3c3-2.2,6.7-3.1,10.4-2.5c4.2,0.7,6.7,3.6,6.7,8.1c0.1,4.1,0.1,8.3,0,12.4
			c0,2.9-0.1,5.7,1.7,8.3h-11.3c0-0.1-0.1-0.1,0-0.2c1.2-2.1,1.7-4.5,1.6-6.9c-0.1-3.5-0.1-7.1,0-10.6c0.1-4.5-2.8-5.8-6.5-5
			c-0.6,0.1-1.2,0.3-1.7,0.6c-1.8,0.8-2.8,1.9-2.7,4.1c0.2,3.4,0.1,6.7,0,10.1C263.7,367.6,263.7,370.3,265.4,372.8z"/>
		<path class="st2" d="M351.9,344.3h10.8c-0.8,2.3,0.1,4.3,0.9,6.3c1.8,4.5,3.5,9.1,5.4,13.8c0.2-0.4,0.3-0.7,0.4-0.9
			c1.7-4.6,3.5-9.2,5.2-13.8c0.8-1.7,1.1-3.6,0.6-5.4h8.2c-4.3,7.8-6.9,16.3-10.4,24.4c-0.5,1.1-0.8,2.2-0.9,3.4
			c-0.1,0.5-0.2,0.7-0.8,0.7H365c-0.6,0-0.7-0.4-0.9-0.8c-3-7.4-6.1-14.7-9.2-22.1C354,348,352.9,346.2,351.9,344.3z"/>
		<path class="st2" d="M250.2,372.8h-12.8c0.1-0.3,0.2-0.5,0.4-0.7c1-1.8,1.5-3.8,1.5-5.9v-26.8c0.1-2.3-0.5-4.6-1.7-6.6
			c-0.1-0.1-0.1-0.3-0.2-0.5h12.8c-0.4,0.8-0.8,1.6-1.1,2.4c-0.4,1.2-0.6,2.5-0.7,3.8c-0.1,9.4,0,18.7,0,28.1
			C248.4,368.8,249,370.9,250.2,372.8z"/>
		<path class="st2" d="M199.9,372.7c0.4-1,0.9-1.9,1.3-2.9c0.2-0.6,0.4-1.2,0.4-1.8v-12.1c-3.8,0.8-7.5,1.5-11.5,2.4
			c2.1,4.9,3.1,10,6,14.5h-11.3c0.4-2.2-0.4-4.2-1.1-6.3l-2.1-6c-0.1,0-0.2-0.1-0.3-0.1c-3.8,1.3-7.6,2.6-11.3,4.1
			c-1.1,0.5-2.2,1.2-3.1,2c-1.9,1.6-2.4,3.8-2.4,6.2h-7.9c0.1-0.2,0.2-0.4,0.4-0.6c0.7-1.2,1.3-2.4,1.8-3.7
			c3.7-10.3,7.4-20.5,11.1-30.8c0.6-1.6,0.8-3.4,1.3-5.3h8.7c0.5-0.1,1.1,0.2,1.2,0.8c0,0,0,0.1,0,0.1c2.3,6.4,4.7,12.8,7,19.3
			c0.3,0.8,0.6,0.9,1.4,0.7c3.7-0.8,7.3-1.6,11-2.3c0.9-0.2,1.2-0.4,1.2-1.4c-0.1-3.3-0.1-6.5,0-9.8c0.1-2.6-0.2-5.1-2-7.3
			c0.4,0,0.6-0.1,0.8-0.1h16.4c2.9,0,5.9,0.5,8.6,1.6c4.1,1.7,6.1,6.4,4.4,10.5c-0.6,1.4-1.6,2.7-2.8,3.6c-1,0.7-2,1.2-3,1.8
			c-0.3,0.1-0.5,0.3-0.8,0.4c1.4,0.5,2.8,1.1,4.2,1.8c3.4,1.5,5.5,4.9,5.4,8.6c0,4.1-1.4,7.5-5.1,9.7c-2.4,1.4-5,2.3-7.8,2.4
			c-6.6,0.2-13.3,0.2-19.9,0.2C200,372.7,200,372.7,199.9,372.7z M210.7,368c2.4-0.1,4.7-0.1,6.9-0.4c2.5-0.3,4.7-1.4,5.6-4
			c0.8-2.4,0.8-4.9-0.9-6.9c-1.8-2.1-4.4-3.3-7.2-3.2c-1.2,0.1-2.4,0.3-3.6,0.6c-0.6,0.1-0.8,0.4-0.8,1V368z M210.7,348.9
			c0.3,0,0.6,0,0.9-0.1c1.8-0.3,3.6-0.8,5.4-1.3c1.1-0.4,2.1-0.9,2.9-1.7c1.9-1.7,2-4.7,0.3-6.6c-0.4-0.5-1-0.9-1.6-1.1
			c-2.5-1.2-5.1-0.8-7.8-0.8C210.7,341.2,210.7,345.1,210.7,348.9L210.7,348.9z M174.8,341.1h-0.2c-2.2,6.4-4.4,12.8-6.7,19.4
			c3.7-2.8,7.9-3.6,12-5.1C178.2,350.6,176.5,345.8,174.8,341.1L174.8,341.1z"/>
		<path class="st2" d="M288.3,372.8c1.7-2.9,1.4-6,1.4-9v-24.7c0.1-2.3-0.4-4.7-1.4-6.8h15.8c2.8-0.1,5.6,0.4,8.3,1.3
			c4.8,1.8,7,5.9,5.8,10.7c-0.6,2.4-2.3,3.9-4.4,5.1c-0.7,0.4-1.4,0.7-2.1,1c0.4,0.1,0.6,0.3,0.9,0.3c2,0.7,3.8,1.6,5.5,2.9
			c4.4,3.6,4.2,13.2-2.3,16.7c-2.8,1.5-6,2.4-9.2,2.4c-5.8,0.1-11.7,0.1-17.5,0.1C288.8,372.8,288.5,372.8,288.3,372.8z M298.7,368
			c2.8,0,5.5,0.2,8.2-0.6c1.9-0.4,3.4-1.7,4.2-3.5c1.7-3.4,0.2-7.5-3.2-9.2c-0.5-0.2-1-0.4-1.5-0.5c-2.3-0.4-4.5-0.6-6.8-0.6
			c-0.8-0.1-1,0.3-1,1v12.3C298.6,367.2,298.7,367.6,298.7,368z M298.8,337.1v11.6c1.9-0.1,3.8-0.1,5.6-0.3c3.1-0.4,4.8-2.3,4.9-5.5
			c0.3-2.7-1.6-5.2-4.3-5.5c-0.1,0-0.1,0-0.2,0C302.8,337.2,300.8,337.2,298.8,337.1L298.8,337.1z"/>
		<path class="st2" d="M331.9,360.2c0.5,4.5,3.3,7,8.1,7.3c2.9,0.2,5.8-0.4,8.4-1.5c0.4-0.2,0.9-0.4,1.3-0.6
			c0.8,1.8,1.6,3.5,2.4,5.3c-2,1.1-4.1,1.9-6.3,2.4c-4.2,1-8.7,0.7-12.8-0.6c-5.3-1.8-8.3-5.5-9.2-11c-0.5-2.8-0.4-5.6,0.3-8.3
			c1.3-5.7,6.2-9.7,12-9.9c2.3-0.2,4.6,0,6.9,0.4c5.4,1.2,8.4,4.9,9.4,10.2c0.2,1.6,0.3,3.1,0.3,4.7c0.1,0.8-0.3,1.1-1.1,1.2
			c-2.3,0.2-4.6,0.4-6.9,0.5c-3.9,0.1-7.8,0-11.7,0C332.6,360.2,332.2,360.2,331.9,360.2z M344.2,355.3c0.1-3.9-2.2-6.7-5.6-6.9
			c-3.8-0.2-6.3,2.4-6.6,6.9H344.2z"/>
		<path class="st2" d="M265.4,372.8H254c0.2-0.3,0.3-0.6,0.4-0.9c0.8-1.5,1.2-3.2,1.2-4.9c0-5.1-0.1-10.2,0-15.3
			c0-2.6-0.2-5.1-1.7-7.4h9.7v3.3c0.7-0.5,1.2-0.9,1.7-1.3c3-2.2,6.7-3.1,10.4-2.5c4.2,0.7,6.7,3.6,6.7,8.1c0.1,4.1,0.1,8.3,0,12.4
			c0,2.9-0.1,5.7,1.7,8.3h-11.3c0-0.1-0.1-0.1,0-0.2c1.2-2.1,1.7-4.5,1.6-6.9c-0.1-3.5-0.1-7.1,0-10.6c0.1-4.5-2.8-5.8-6.5-5
			c-0.6,0.1-1.2,0.3-1.7,0.6c-1.8,0.8-2.8,1.9-2.7,4.1c0.2,3.4,0.1,6.7,0,10.1C263.7,367.6,263.7,370.3,265.4,372.8z"/>
		<path class="st2" d="M351.9,344.3h10.8c-0.8,2.3,0.1,4.3,0.9,6.3c1.8,4.5,3.5,9.1,5.4,13.8c0.2-0.4,0.3-0.7,0.4-0.9
			c1.7-4.6,3.5-9.2,5.2-13.8c0.8-1.7,1.1-3.6,0.6-5.4h8.2c-4.3,7.8-6.9,16.3-10.4,24.4c-0.5,1.1-0.8,2.2-0.9,3.4
			c-0.1,0.5-0.2,0.7-0.8,0.7H365c-0.6,0-0.7-0.4-0.9-0.8c-3-7.4-6.1-14.7-9.2-22.1C354,348,352.9,346.2,351.9,344.3z"/>
		<path class="st2" d="M250.2,372.8h-12.8c0.1-0.3,0.2-0.5,0.4-0.7c1-1.8,1.5-3.8,1.5-5.9v-26.8c0.1-2.3-0.5-4.6-1.7-6.6
			c-0.1-0.1-0.1-0.3-0.2-0.5h12.8c-0.4,0.8-0.8,1.6-1.1,2.4c-0.4,1.2-0.6,2.5-0.7,3.8c-0.1,9.4,0,18.7,0,28.1
			C248.4,368.8,249,370.9,250.2,372.8z"/>
		<path class="st2" d="M199.9,372.7c0.4-1,0.9-1.9,1.3-2.9c0.2-0.6,0.4-1.2,0.4-1.8v-12.1c-3.8,0.8-7.5,1.5-11.5,2.4
			c2.1,4.9,3.1,10,6,14.5h-11.3c0.4-2.2-0.4-4.2-1.1-6.3l-2.1-6c-0.1,0-0.2-0.1-0.3-0.1c-3.8,1.3-7.6,2.6-11.3,4.1
			c-1.1,0.5-2.2,1.2-3.1,2c-1.9,1.6-2.4,3.8-2.4,6.2h-7.9c0.1-0.2,0.2-0.4,0.4-0.6c0.7-1.2,1.3-2.4,1.8-3.7
			c3.7-10.3,7.4-20.5,11.1-30.8c0.6-1.6,0.8-3.4,1.3-5.3h8.7c0.5-0.1,1.1,0.2,1.2,0.8c0,0,0,0.1,0,0.1c2.3,6.4,4.7,12.8,7,19.3
			c0.3,0.8,0.6,0.9,1.4,0.7c3.7-0.8,7.3-1.6,11-2.3c0.9-0.2,1.2-0.4,1.2-1.4c-0.1-3.3-0.1-6.5,0-9.8c0.1-2.6-0.2-5.1-2-7.3
			c0.4,0,0.6-0.1,0.8-0.1h16.4c2.9,0,5.9,0.5,8.6,1.6c4.1,1.7,6.1,6.4,4.4,10.5c-0.6,1.4-1.6,2.7-2.8,3.6c-1,0.7-2,1.2-3,1.8
			c-0.3,0.1-0.5,0.3-0.8,0.4c1.4,0.5,2.8,1.1,4.2,1.8c3.4,1.5,5.5,4.9,5.4,8.6c0,4.1-1.4,7.5-5.1,9.7c-2.4,1.4-5,2.3-7.8,2.4
			c-6.6,0.2-13.3,0.2-19.9,0.2C200,372.7,200,372.7,199.9,372.7z M210.7,368c2.4-0.1,4.7-0.1,6.9-0.4c2.5-0.3,4.7-1.4,5.6-4
			c0.8-2.4,0.8-4.9-0.9-6.9c-1.8-2.1-4.4-3.3-7.2-3.2c-1.2,0.1-2.4,0.3-3.6,0.6c-0.6,0.1-0.8,0.4-0.8,1V368z M210.7,348.9
			c0.3,0,0.6,0,0.9-0.1c1.8-0.3,3.6-0.8,5.4-1.3c1.1-0.4,2.1-0.9,2.9-1.7c1.9-1.7,2-4.7,0.3-6.6c-0.4-0.5-1-0.9-1.6-1.1
			c-2.5-1.2-5.1-0.8-7.8-0.8C210.7,341.2,210.7,345.1,210.7,348.9L210.7,348.9z M174.8,341.1h-0.2c-2.2,6.4-4.4,12.8-6.7,19.4
			c3.7-2.8,7.9-3.6,12-5.1C178.2,350.6,176.5,345.8,174.8,341.1L174.8,341.1z"/>
		<path class="st2" d="M288.3,372.8c1.7-2.9,1.4-6,1.4-9v-24.7c0.1-2.3-0.4-4.7-1.4-6.8h15.8c2.8-0.1,5.6,0.4,8.3,1.3
			c4.8,1.8,7,5.9,5.8,10.7c-0.6,2.4-2.3,3.9-4.4,5.1c-0.7,0.4-1.4,0.7-2.1,1c0.4,0.1,0.6,0.3,0.9,0.3c2,0.7,3.8,1.6,5.5,2.9
			c4.4,3.6,4.2,13.2-2.3,16.7c-2.8,1.5-6,2.4-9.2,2.4c-5.8,0.1-11.7,0.1-17.5,0.1C288.8,372.8,288.5,372.8,288.3,372.8z M298.7,368
			c2.8,0,5.5,0.2,8.2-0.6c1.9-0.4,3.4-1.7,4.2-3.5c1.7-3.4,0.2-7.5-3.2-9.2c-0.5-0.2-1-0.4-1.5-0.5c-2.3-0.4-4.5-0.6-6.8-0.6
			c-0.8-0.1-1,0.3-1,1v12.3C298.6,367.2,298.7,367.6,298.7,368z M298.8,337.1v11.6c1.9-0.1,3.8-0.1,5.6-0.3c3.1-0.4,4.8-2.3,4.9-5.5
			c0.3-2.7-1.6-5.2-4.3-5.5c-0.1,0-0.1,0-0.2,0C302.8,337.2,300.8,337.2,298.8,337.1L298.8,337.1z"/>
		<path class="st2" d="M331.9,360.2c0.5,4.5,3.3,7,8.1,7.3c2.9,0.2,5.8-0.4,8.4-1.5c0.4-0.2,0.9-0.4,1.3-0.6
			c0.8,1.8,1.6,3.5,2.4,5.3c-2,1.1-4.1,1.9-6.3,2.4c-4.2,1-8.7,0.7-12.8-0.6c-5.3-1.8-8.3-5.5-9.2-11c-0.5-2.8-0.4-5.6,0.3-8.3
			c1.3-5.7,6.2-9.7,12-9.9c2.3-0.2,4.6,0,6.9,0.4c5.4,1.2,8.4,4.9,9.4,10.2c0.2,1.6,0.3,3.1,0.3,4.7c0.1,0.8-0.3,1.1-1.1,1.2
			c-2.3,0.2-4.6,0.4-6.9,0.5c-3.9,0.1-7.8,0-11.7,0C332.6,360.2,332.2,360.2,331.9,360.2z M344.2,355.3c0.1-3.9-2.2-6.7-5.6-6.9
			c-3.8-0.2-6.3,2.4-6.6,6.9H344.2z"/>
		<path class="st2" d="M265.4,372.8H254c0.2-0.3,0.3-0.6,0.4-0.9c0.8-1.5,1.2-3.2,1.2-4.9c0-5.1-0.1-10.2,0-15.3
			c0-2.6-0.2-5.1-1.7-7.4h9.7v3.3c0.7-0.5,1.2-0.9,1.7-1.3c3-2.2,6.7-3.1,10.4-2.5c4.2,0.7,6.7,3.6,6.7,8.1c0.1,4.1,0.1,8.3,0,12.4
			c0,2.9-0.1,5.7,1.7,8.3h-11.3c0-0.1-0.1-0.1,0-0.2c1.2-2.1,1.7-4.5,1.6-6.9c-0.1-3.5-0.1-7.1,0-10.6c0.1-4.5-2.8-5.8-6.5-5
			c-0.6,0.1-1.2,0.3-1.7,0.6c-1.8,0.8-2.8,1.9-2.7,4.1c0.2,3.4,0.1,6.7,0,10.1C263.7,367.6,263.7,370.3,265.4,372.8z"/>
		<path class="st2" d="M351.9,344.3h10.8c-0.8,2.3,0.1,4.3,0.9,6.3c1.8,4.5,3.5,9.1,5.4,13.8c0.2-0.4,0.3-0.7,0.4-0.9
			c1.7-4.6,3.5-9.2,5.2-13.8c0.8-1.7,1.1-3.6,0.6-5.4h8.2c-4.3,7.8-6.9,16.3-10.4,24.4c-0.5,1.1-0.8,2.2-0.9,3.4
			c-0.1,0.5-0.2,0.7-0.8,0.7H365c-0.6,0-0.7-0.4-0.9-0.8c-3-7.4-6.1-14.7-9.2-22.1C354,348,352.9,346.2,351.9,344.3z"/>
		<path class="st2" d="M250.2,372.8h-12.8c0.1-0.3,0.2-0.5,0.4-0.7c1-1.8,1.5-3.8,1.5-5.9v-26.8c0.1-2.3-0.5-4.6-1.7-6.6
			c-0.1-0.1-0.1-0.3-0.2-0.5h12.8c-0.4,0.8-0.8,1.6-1.1,2.4c-0.4,1.2-0.6,2.5-0.7,3.8c-0.1,9.4,0,18.7,0,28.1
			C248.4,368.8,249,370.9,250.2,372.8z"/>
		<path class="st2" d="M199.9,372.7c0.4-1,0.9-1.9,1.3-2.9c0.2-0.6,0.4-1.2,0.4-1.8v-12.1c-3.8,0.8-7.5,1.5-11.5,2.4
			c2.1,4.9,3.1,10,6,14.5h-11.3c0.4-2.2-0.4-4.2-1.1-6.3l-2.1-6c-0.1,0-0.2-0.1-0.3-0.1c-3.8,1.3-7.6,2.6-11.3,4.1
			c-1.1,0.5-2.2,1.2-3.1,2c-1.9,1.6-2.4,3.8-2.4,6.2h-7.9c0.1-0.2,0.2-0.4,0.4-0.6c0.7-1.2,1.3-2.4,1.8-3.7
			c3.7-10.3,7.4-20.5,11.1-30.8c0.6-1.6,0.8-3.4,1.3-5.3h8.7c0.5-0.1,1.1,0.2,1.2,0.8c0,0,0,0.1,0,0.1c2.3,6.4,4.7,12.8,7,19.3
			c0.3,0.8,0.6,0.9,1.4,0.7c3.7-0.8,7.3-1.6,11-2.3c0.9-0.2,1.2-0.4,1.2-1.4c-0.1-3.3-0.1-6.5,0-9.8c0.1-2.6-0.2-5.1-2-7.3
			c0.4,0,0.6-0.1,0.8-0.1h16.4c2.9,0,5.9,0.5,8.6,1.6c4.1,1.7,6.1,6.4,4.4,10.5c-0.6,1.4-1.6,2.7-2.8,3.6c-1,0.7-2,1.2-3,1.8
			c-0.3,0.1-0.5,0.3-0.8,0.4c1.4,0.5,2.8,1.1,4.2,1.8c3.4,1.5,5.5,4.9,5.4,8.6c0,4.1-1.4,7.5-5.1,9.7c-2.4,1.4-5,2.3-7.8,2.4
			c-6.6,0.2-13.3,0.2-19.9,0.2C200,372.7,200,372.7,199.9,372.7z M210.7,368c2.4-0.1,4.7-0.1,6.9-0.4c2.5-0.3,4.7-1.4,5.6-4
			c0.8-2.4,0.8-4.9-0.9-6.9c-1.8-2.1-4.4-3.3-7.2-3.2c-1.2,0.1-2.4,0.3-3.6,0.6c-0.6,0.1-0.8,0.4-0.8,1V368z M210.7,348.9
			c0.3,0,0.6,0,0.9-0.1c1.8-0.3,3.6-0.8,5.4-1.3c1.1-0.4,2.1-0.9,2.9-1.7c1.9-1.7,2-4.7,0.3-6.6c-0.4-0.5-1-0.9-1.6-1.1
			c-2.5-1.2-5.1-0.8-7.8-0.8C210.7,341.2,210.7,345.1,210.7,348.9L210.7,348.9z M174.8,341.1h-0.2c-2.2,6.4-4.4,12.8-6.7,19.4
			c3.7-2.8,7.9-3.6,12-5.1C178.2,350.6,176.5,345.8,174.8,341.1L174.8,341.1z"/>
		<path class="st2" d="M288.3,372.8c1.7-2.9,1.4-6,1.4-9v-24.7c0.1-2.3-0.4-4.7-1.4-6.8h15.8c2.8-0.1,5.6,0.4,8.3,1.3
			c4.8,1.8,7,5.9,5.8,10.7c-0.6,2.4-2.3,3.9-4.4,5.1c-0.7,0.4-1.4,0.7-2.1,1c0.4,0.1,0.6,0.3,0.9,0.3c2,0.7,3.8,1.6,5.5,2.9
			c4.4,3.6,4.2,13.2-2.3,16.7c-2.8,1.5-6,2.4-9.2,2.4c-5.8,0.1-11.7,0.1-17.5,0.1C288.8,372.8,288.5,372.8,288.3,372.8z M298.7,368
			c2.8,0,5.5,0.2,8.2-0.6c1.9-0.4,3.4-1.7,4.2-3.5c1.7-3.4,0.2-7.5-3.2-9.2c-0.5-0.2-1-0.4-1.5-0.5c-2.3-0.4-4.5-0.6-6.8-0.6
			c-0.8-0.1-1,0.3-1,1v12.3C298.6,367.2,298.7,367.6,298.7,368z M298.8,337.1v11.6c1.9-0.1,3.8-0.1,5.6-0.3c3.1-0.4,4.8-2.3,4.9-5.5
			c0.3-2.7-1.6-5.2-4.3-5.5c-0.1,0-0.1,0-0.2,0C302.8,337.2,300.8,337.2,298.8,337.1L298.8,337.1z"/>
		<path class="st2" d="M331.9,360.2c0.5,4.5,3.3,7,8.1,7.3c2.9,0.2,5.8-0.4,8.4-1.5c0.4-0.2,0.9-0.4,1.3-0.6
			c0.8,1.8,1.6,3.5,2.4,5.3c-2,1.1-4.1,1.9-6.3,2.4c-4.2,1-8.7,0.7-12.8-0.6c-5.3-1.8-8.3-5.5-9.2-11c-0.5-2.8-0.4-5.6,0.3-8.3
			c1.3-5.7,6.2-9.7,12-9.9c2.3-0.2,4.6,0,6.9,0.4c5.4,1.2,8.4,4.9,9.4,10.2c0.2,1.6,0.3,3.1,0.3,4.7c0.1,0.8-0.3,1.1-1.1,1.2
			c-2.3,0.2-4.6,0.4-6.9,0.5c-3.9,0.1-7.8,0-11.7,0C332.6,360.2,332.2,360.2,331.9,360.2z M344.2,355.3c0.1-3.9-2.2-6.7-5.6-6.9
			c-3.8-0.2-6.3,2.4-6.6,6.9H344.2z"/>
		<path class="st2" d="M265.4,372.8H254c0.2-0.3,0.3-0.6,0.4-0.9c0.8-1.5,1.2-3.2,1.2-4.9c0-5.1-0.1-10.2,0-15.3
			c0-2.6-0.2-5.1-1.7-7.4h9.7v3.3c0.7-0.5,1.2-0.9,1.7-1.3c3-2.2,6.7-3.1,10.4-2.5c4.2,0.7,6.7,3.6,6.7,8.1c0.1,4.1,0.1,8.3,0,12.4
			c0,2.9-0.1,5.7,1.7,8.3h-11.3c0-0.1-0.1-0.1,0-0.2c1.2-2.1,1.7-4.5,1.6-6.9c-0.1-3.5-0.1-7.1,0-10.6c0.1-4.5-2.8-5.8-6.5-5
			c-0.6,0.1-1.2,0.3-1.7,0.6c-1.8,0.8-2.8,1.9-2.7,4.1c0.2,3.4,0.1,6.7,0,10.1C263.7,367.6,263.7,370.3,265.4,372.8z"/>
		<path class="st2" d="M351.9,344.3h10.8c-0.8,2.3,0.1,4.3,0.9,6.3c1.8,4.5,3.5,9.1,5.4,13.8c0.2-0.4,0.3-0.7,0.4-0.9
			c1.7-4.6,3.5-9.2,5.2-13.8c0.8-1.7,1.1-3.6,0.6-5.4h8.2c-4.3,7.8-6.9,16.3-10.4,24.4c-0.5,1.1-0.8,2.2-0.9,3.4
			c-0.1,0.5-0.2,0.7-0.8,0.7H365c-0.6,0-0.7-0.4-0.9-0.8c-3-7.4-6.1-14.7-9.2-22.1C354,348,352.9,346.2,351.9,344.3z"/>
		<path class="st2" d="M250.2,372.8h-12.8c0.1-0.3,0.2-0.5,0.4-0.7c1-1.8,1.5-3.8,1.5-5.9v-26.8c0.1-2.3-0.5-4.6-1.7-6.6
			c-0.1-0.1-0.1-0.3-0.2-0.5h12.8c-0.4,0.8-0.8,1.6-1.1,2.4c-0.4,1.2-0.6,2.5-0.7,3.8c-0.1,9.4,0,18.7,0,28.1
			C248.4,368.8,249,370.9,250.2,372.8z"/>
		<path class="st2" d="M199.9,372.7c0.4-1,0.9-1.9,1.3-2.9c0.2-0.6,0.4-1.2,0.4-1.8v-12.1c-3.8,0.8-7.5,1.5-11.5,2.4
			c2.1,4.9,3.1,10,6,14.5h-11.3c0.4-2.2-0.4-4.2-1.1-6.3l-2.1-6c-0.1,0-0.2-0.1-0.3-0.1c-3.8,1.3-7.6,2.6-11.3,4.1
			c-1.1,0.5-2.2,1.2-3.1,2c-1.9,1.6-2.4,3.8-2.4,6.2h-7.9c0.1-0.2,0.2-0.4,0.4-0.6c0.7-1.2,1.3-2.4,1.8-3.7
			c3.7-10.3,7.4-20.5,11.1-30.8c0.6-1.6,0.8-3.4,1.3-5.3h8.7c0.5-0.1,1.1,0.2,1.2,0.8c0,0,0,0.1,0,0.1c2.3,6.4,4.7,12.8,7,19.3
			c0.3,0.8,0.6,0.9,1.4,0.7c3.7-0.8,7.3-1.6,11-2.3c0.9-0.2,1.2-0.4,1.2-1.4c-0.1-3.3-0.1-6.5,0-9.8c0.1-2.6-0.2-5.1-2-7.3
			c0.4,0,0.6-0.1,0.8-0.1h16.4c2.9,0,5.9,0.5,8.6,1.6c4.1,1.7,6.1,6.4,4.4,10.5c-0.6,1.4-1.6,2.7-2.8,3.6c-1,0.7-2,1.2-3,1.8
			c-0.3,0.1-0.5,0.3-0.8,0.4c1.4,0.5,2.8,1.1,4.2,1.8c3.4,1.5,5.5,4.9,5.4,8.6c0,4.1-1.4,7.5-5.1,9.7c-2.4,1.4-5,2.3-7.8,2.4
			c-6.6,0.2-13.3,0.2-19.9,0.2C200,372.7,200,372.7,199.9,372.7z M210.7,368c2.4-0.1,4.7-0.1,6.9-0.4c2.5-0.3,4.7-1.4,5.6-4
			c0.8-2.4,0.8-4.9-0.9-6.9c-1.8-2.1-4.4-3.3-7.2-3.2c-1.2,0.1-2.4,0.3-3.6,0.6c-0.6,0.1-0.8,0.4-0.8,1V368z M210.7,348.9
			c0.3,0,0.6,0,0.9-0.1c1.8-0.3,3.6-0.8,5.4-1.3c1.1-0.4,2.1-0.9,2.9-1.7c1.9-1.7,2-4.7,0.3-6.6c-0.4-0.5-1-0.9-1.6-1.1
			c-2.5-1.2-5.1-0.8-7.8-0.8C210.7,341.2,210.7,345.1,210.7,348.9L210.7,348.9z M174.8,341.1h-0.2c-2.2,6.4-4.4,12.8-6.7,19.4
			c3.7-2.8,7.9-3.6,12-5.1C178.2,350.6,176.5,345.8,174.8,341.1L174.8,341.1z"/>
		<path class="st2" d="M288.3,372.8c1.7-2.9,1.4-6,1.4-9v-24.7c0.1-2.3-0.4-4.7-1.4-6.8h15.8c2.8-0.1,5.6,0.4,8.3,1.3
			c4.8,1.8,7,5.9,5.8,10.7c-0.6,2.4-2.3,3.9-4.4,5.1c-0.7,0.4-1.4,0.7-2.1,1c0.4,0.1,0.6,0.3,0.9,0.3c2,0.7,3.8,1.6,5.5,2.9
			c4.4,3.6,4.2,13.2-2.3,16.7c-2.8,1.5-6,2.4-9.2,2.4c-5.8,0.1-11.7,0.1-17.5,0.1C288.8,372.8,288.5,372.8,288.3,372.8z M298.7,368
			c2.8,0,5.5,0.2,8.2-0.6c1.9-0.4,3.4-1.7,4.2-3.5c1.7-3.4,0.2-7.5-3.2-9.2c-0.5-0.2-1-0.4-1.5-0.5c-2.3-0.4-4.5-0.6-6.8-0.6
			c-0.8-0.1-1,0.3-1,1v12.3C298.6,367.2,298.7,367.6,298.7,368z M298.8,337.1v11.6c1.9-0.1,3.8-0.1,5.6-0.3c3.1-0.4,4.8-2.3,4.9-5.5
			c0.3-2.7-1.6-5.2-4.3-5.5c-0.1,0-0.1,0-0.2,0C302.8,337.2,300.8,337.2,298.8,337.1L298.8,337.1z"/>
		<path class="st2" d="M331.9,360.2c0.5,4.5,3.3,7,8.1,7.3c2.9,0.2,5.8-0.4,8.4-1.5c0.4-0.2,0.9-0.4,1.3-0.6
			c0.8,1.8,1.6,3.5,2.4,5.3c-2,1.1-4.1,1.9-6.3,2.4c-4.2,1-8.7,0.7-12.8-0.6c-5.3-1.8-8.3-5.5-9.2-11c-0.5-2.8-0.4-5.6,0.3-8.3
			c1.3-5.7,6.2-9.7,12-9.9c2.3-0.2,4.6,0,6.9,0.4c5.4,1.2,8.4,4.9,9.4,10.2c0.2,1.6,0.3,3.1,0.3,4.7c0.1,0.8-0.3,1.1-1.1,1.2
			c-2.3,0.2-4.6,0.4-6.9,0.5c-3.9,0.1-7.8,0-11.7,0C332.6,360.2,332.2,360.2,331.9,360.2z M344.2,355.3c0.1-3.9-2.2-6.7-5.6-6.9
			c-3.8-0.2-6.3,2.4-6.6,6.9H344.2z"/>
		<path class="st2" d="M265.4,372.8H254c0.2-0.3,0.3-0.6,0.4-0.9c0.8-1.5,1.2-3.2,1.2-4.9c0-5.1-0.1-10.2,0-15.3
			c0-2.6-0.2-5.1-1.7-7.4h9.7v3.3c0.7-0.5,1.2-0.9,1.7-1.3c3-2.2,6.7-3.1,10.4-2.5c4.2,0.7,6.7,3.6,6.7,8.1c0.1,4.1,0.1,8.3,0,12.4
			c0,2.9-0.1,5.7,1.7,8.3h-11.3c0-0.1-0.1-0.1,0-0.2c1.2-2.1,1.7-4.5,1.6-6.9c-0.1-3.5-0.1-7.1,0-10.6c0.1-4.5-2.8-5.8-6.5-5
			c-0.6,0.1-1.2,0.3-1.7,0.6c-1.8,0.8-2.8,1.9-2.7,4.1c0.2,3.4,0.1,6.7,0,10.1C263.7,367.6,263.7,370.3,265.4,372.8z"/>
		<path class="st2" d="M351.9,344.3h10.8c-0.8,2.3,0.1,4.3,0.9,6.3c1.8,4.5,3.5,9.1,5.4,13.8c0.2-0.4,0.3-0.7,0.4-0.9
			c1.7-4.6,3.5-9.2,5.2-13.8c0.8-1.7,1.1-3.6,0.6-5.4h8.2c-4.3,7.8-6.9,16.3-10.4,24.4c-0.5,1.1-0.8,2.2-0.9,3.4
			c-0.1,0.5-0.2,0.7-0.8,0.7H365c-0.6,0-0.7-0.4-0.9-0.8c-3-7.4-6.1-14.7-9.2-22.1C354,348,352.9,346.2,351.9,344.3z"/>
		<path class="st2" d="M250.2,372.8h-12.8c0.1-0.3,0.2-0.5,0.4-0.7c1-1.8,1.5-3.8,1.5-5.9v-26.8c0.1-2.3-0.5-4.6-1.7-6.6
			c-0.1-0.1-0.1-0.3-0.2-0.5h12.8c-0.4,0.8-0.8,1.6-1.1,2.4c-0.4,1.2-0.6,2.5-0.7,3.8c-0.1,9.4,0,18.7,0,28.1
			C248.4,368.8,249,370.9,250.2,372.8z"/>
		<path class="st2" d="M199.9,372.7c0.4-1,0.9-1.9,1.3-2.9c0.2-0.6,0.4-1.2,0.4-1.8v-12.1c-3.8,0.8-7.5,1.5-11.5,2.4
			c2.1,4.9,3.1,10,6,14.5h-11.3c0.4-2.2-0.4-4.2-1.1-6.3l-2.1-6c-0.1,0-0.2-0.1-0.3-0.1c-3.8,1.3-7.6,2.6-11.3,4.1
			c-1.1,0.5-2.2,1.2-3.1,2c-1.9,1.6-2.4,3.8-2.4,6.2h-7.9c0.1-0.2,0.2-0.4,0.4-0.6c0.7-1.2,1.3-2.4,1.8-3.7
			c3.7-10.3,7.4-20.5,11.1-30.8c0.6-1.6,0.8-3.4,1.3-5.3h8.7c0.5-0.1,1.1,0.2,1.2,0.8c0,0,0,0.1,0,0.1c2.3,6.4,4.7,12.8,7,19.3
			c0.3,0.8,0.6,0.9,1.4,0.7c3.7-0.8,7.3-1.6,11-2.3c0.9-0.2,1.2-0.4,1.2-1.4c-0.1-3.3-0.1-6.5,0-9.8c0.1-2.6-0.2-5.1-2-7.3
			c0.4,0,0.6-0.1,0.8-0.1h16.4c2.9,0,5.9,0.5,8.6,1.6c4.1,1.7,6.1,6.4,4.4,10.5c-0.6,1.4-1.6,2.7-2.8,3.6c-1,0.7-2,1.2-3,1.8
			c-0.3,0.1-0.5,0.3-0.8,0.4c1.4,0.5,2.8,1.1,4.2,1.8c3.4,1.5,5.5,4.9,5.4,8.6c0,4.1-1.4,7.5-5.1,9.7c-2.4,1.4-5,2.3-7.8,2.4
			c-6.6,0.2-13.3,0.2-19.9,0.2C200,372.7,200,372.7,199.9,372.7z M210.7,368c2.4-0.1,4.7-0.1,6.9-0.4c2.5-0.3,4.7-1.4,5.6-4
			c0.8-2.4,0.8-4.9-0.9-6.9c-1.8-2.1-4.4-3.3-7.2-3.2c-1.2,0.1-2.4,0.3-3.6,0.6c-0.6,0.1-0.8,0.4-0.8,1V368z M210.7,348.9
			c0.3,0,0.6,0,0.9-0.1c1.8-0.3,3.6-0.8,5.4-1.3c1.1-0.4,2.1-0.9,2.9-1.7c1.9-1.7,2-4.7,0.3-6.6c-0.4-0.5-1-0.9-1.6-1.1
			c-2.5-1.2-5.1-0.8-7.8-0.8C210.7,341.2,210.7,345.1,210.7,348.9L210.7,348.9z M174.8,341.1h-0.2c-2.2,6.4-4.4,12.8-6.7,19.4
			c3.7-2.8,7.9-3.6,12-5.1C178.2,350.6,176.5,345.8,174.8,341.1L174.8,341.1z"/>
		<path class="st2" d="M288.3,372.8c1.7-2.9,1.4-6,1.4-9v-24.7c0.1-2.3-0.4-4.7-1.4-6.8h15.8c2.8-0.1,5.6,0.4,8.3,1.3
			c4.8,1.8,7,5.9,5.8,10.7c-0.6,2.4-2.3,3.9-4.4,5.1c-0.7,0.4-1.4,0.7-2.1,1c0.4,0.1,0.6,0.3,0.9,0.3c2,0.7,3.8,1.6,5.5,2.9
			c4.4,3.6,4.2,13.2-2.3,16.7c-2.8,1.5-6,2.4-9.2,2.4c-5.8,0.1-11.7,0.1-17.5,0.1C288.8,372.8,288.5,372.8,288.3,372.8z M298.7,368
			c2.8,0,5.5,0.2,8.2-0.6c1.9-0.4,3.4-1.7,4.2-3.5c1.7-3.4,0.2-7.5-3.2-9.2c-0.5-0.2-1-0.4-1.5-0.5c-2.3-0.4-4.5-0.6-6.8-0.6
			c-0.8-0.1-1,0.3-1,1v12.3C298.6,367.2,298.7,367.6,298.7,368z M298.8,337.1v11.6c1.9-0.1,3.8-0.1,5.6-0.3c3.1-0.4,4.8-2.3,4.9-5.5
			c0.3-2.7-1.6-5.2-4.3-5.5c-0.1,0-0.1,0-0.2,0C302.8,337.2,300.8,337.2,298.8,337.1L298.8,337.1z"/>
		<path class="st2" d="M331.9,360.2c0.5,4.5,3.3,7,8.1,7.3c2.9,0.2,5.8-0.4,8.4-1.5c0.4-0.2,0.9-0.4,1.3-0.6
			c0.8,1.8,1.6,3.5,2.4,5.3c-2,1.1-4.1,1.9-6.3,2.4c-4.2,1-8.7,0.7-12.8-0.6c-5.3-1.8-8.3-5.5-9.2-11c-0.5-2.8-0.4-5.6,0.3-8.3
			c1.3-5.7,6.2-9.7,12-9.9c2.3-0.2,4.6,0,6.9,0.4c5.4,1.2,8.4,4.9,9.4,10.2c0.2,1.6,0.3,3.1,0.3,4.7c0.1,0.8-0.3,1.1-1.1,1.2
			c-2.3,0.2-4.6,0.4-6.9,0.5c-3.9,0.1-7.8,0-11.7,0C332.6,360.2,332.2,360.2,331.9,360.2z M344.2,355.3c0.1-3.9-2.2-6.7-5.6-6.9
			c-3.8-0.2-6.3,2.4-6.6,6.9H344.2z"/>
		<path class="st2" d="M265.4,372.8H254c0.2-0.3,0.3-0.6,0.4-0.9c0.8-1.5,1.2-3.2,1.2-4.9c0-5.1-0.1-10.2,0-15.3
			c0-2.6-0.2-5.1-1.7-7.4h9.7v3.3c0.7-0.5,1.2-0.9,1.7-1.3c3-2.2,6.7-3.1,10.4-2.5c4.2,0.7,6.7,3.6,6.7,8.1c0.1,4.1,0.1,8.3,0,12.4
			c0,2.9-0.1,5.7,1.7,8.3h-11.3c0-0.1-0.1-0.1,0-0.2c1.2-2.1,1.7-4.5,1.6-6.9c-0.1-3.5-0.1-7.1,0-10.6c0.1-4.5-2.8-5.8-6.5-5
			c-0.6,0.1-1.2,0.3-1.7,0.6c-1.8,0.8-2.8,1.9-2.7,4.1c0.2,3.4,0.1,6.7,0,10.1C263.7,367.6,263.7,370.3,265.4,372.8z"/>
		<path class="st2" d="M351.9,344.3h10.8c-0.8,2.3,0.1,4.3,0.9,6.3c1.8,4.5,3.5,9.1,5.4,13.8c0.2-0.4,0.3-0.7,0.4-0.9
			c1.7-4.6,3.5-9.2,5.2-13.8c0.8-1.7,1.1-3.6,0.6-5.4h8.2c-4.3,7.8-6.9,16.3-10.4,24.4c-0.5,1.1-0.8,2.2-0.9,3.4
			c-0.1,0.5-0.2,0.7-0.8,0.7H365c-0.6,0-0.7-0.4-0.9-0.8c-3-7.4-6.1-14.7-9.2-22.1C354,348,352.9,346.2,351.9,344.3z"/>
		<path class="st2" d="M250.2,372.8h-12.8c0.1-0.3,0.2-0.5,0.4-0.7c1-1.8,1.5-3.8,1.5-5.9v-26.8c0.1-2.3-0.5-4.6-1.7-6.6
			c-0.1-0.1-0.1-0.3-0.2-0.5h12.8c-0.4,0.8-0.8,1.6-1.1,2.4c-0.4,1.2-0.6,2.5-0.7,3.8c-0.1,9.4,0,18.7,0,28.1
			C248.4,368.8,249,370.9,250.2,372.8z"/>
		<path class="st2" d="M199.9,372.7c0.4-1,0.9-1.9,1.3-2.9c0.2-0.6,0.4-1.2,0.4-1.8v-12.1c-3.8,0.8-7.5,1.5-11.5,2.4
			c2.1,4.9,3.1,10,6,14.5h-11.3c0.4-2.2-0.4-4.2-1.1-6.3l-2.1-6c-0.1,0-0.2-0.1-0.3-0.1c-3.8,1.3-7.6,2.6-11.3,4.1
			c-1.1,0.5-2.2,1.2-3.1,2c-1.9,1.6-2.4,3.8-2.4,6.2h-7.9c0.1-0.2,0.2-0.4,0.4-0.6c0.7-1.2,1.3-2.4,1.8-3.7
			c3.7-10.3,7.4-20.5,11.1-30.8c0.6-1.6,0.8-3.4,1.3-5.3h8.7c0.5-0.1,1.1,0.2,1.2,0.8c0,0,0,0.1,0,0.1c2.3,6.4,4.7,12.8,7,19.3
			c0.3,0.8,0.6,0.9,1.4,0.7c3.7-0.8,7.3-1.6,11-2.3c0.9-0.2,1.2-0.4,1.2-1.4c-0.1-3.3-0.1-6.5,0-9.8c0.1-2.6-0.2-5.1-2-7.3
			c0.4,0,0.6-0.1,0.8-0.1h16.4c2.9,0,5.9,0.5,8.6,1.6c4.1,1.7,6.1,6.4,4.4,10.5c-0.6,1.4-1.6,2.7-2.8,3.6c-1,0.7-2,1.2-3,1.8
			c-0.3,0.1-0.5,0.3-0.8,0.4c1.4,0.5,2.8,1.1,4.2,1.8c3.4,1.5,5.5,4.9,5.4,8.6c0,4.1-1.4,7.5-5.1,9.7c-2.4,1.4-5,2.3-7.8,2.4
			c-6.6,0.2-13.3,0.2-19.9,0.2C200,372.7,200,372.7,199.9,372.7z M210.7,368c2.4-0.1,4.7-0.1,6.9-0.4c2.5-0.3,4.7-1.4,5.6-4
			c0.8-2.4,0.8-4.9-0.9-6.9c-1.8-2.1-4.4-3.3-7.2-3.2c-1.2,0.1-2.4,0.3-3.6,0.6c-0.6,0.1-0.8,0.4-0.8,1V368z M210.7,348.9
			c0.3,0,0.6,0,0.9-0.1c1.8-0.3,3.6-0.8,5.4-1.3c1.1-0.4,2.1-0.9,2.9-1.7c1.9-1.7,2-4.7,0.3-6.6c-0.4-0.5-1-0.9-1.6-1.1
			c-2.5-1.2-5.1-0.8-7.8-0.8C210.7,341.2,210.7,345.1,210.7,348.9L210.7,348.9z M174.8,341.1h-0.2c-2.2,6.4-4.4,12.8-6.7,19.4
			c3.7-2.8,7.9-3.6,12-5.1C178.2,350.6,176.5,345.8,174.8,341.1L174.8,341.1z"/>
		<path class="st2" d="M288.3,372.8c1.7-2.9,1.4-6,1.4-9v-24.7c0.1-2.3-0.4-4.7-1.4-6.8h15.8c2.8-0.1,5.6,0.4,8.3,1.3
			c4.8,1.8,7,5.9,5.8,10.7c-0.6,2.4-2.3,3.9-4.4,5.1c-0.7,0.4-1.4,0.7-2.1,1c0.4,0.1,0.6,0.3,0.9,0.3c2,0.7,3.8,1.6,5.5,2.9
			c4.4,3.6,4.2,13.2-2.3,16.7c-2.8,1.5-6,2.4-9.2,2.4c-5.8,0.1-11.7,0.1-17.5,0.1C288.8,372.8,288.5,372.8,288.3,372.8z M298.7,368
			c2.8,0,5.5,0.2,8.2-0.6c1.9-0.4,3.4-1.7,4.2-3.5c1.7-3.4,0.2-7.5-3.2-9.2c-0.5-0.2-1-0.4-1.5-0.5c-2.3-0.4-4.5-0.6-6.8-0.6
			c-0.8-0.1-1,0.3-1,1v12.3C298.6,367.2,298.7,367.6,298.7,368z M298.8,337.1v11.6c1.9-0.1,3.8-0.1,5.6-0.3c3.1-0.4,4.8-2.3,4.9-5.5
			c0.3-2.7-1.6-5.2-4.3-5.5c-0.1,0-0.1,0-0.2,0C302.8,337.2,300.8,337.2,298.8,337.1L298.8,337.1z"/>
		<path class="st2" d="M331.9,360.2c0.5,4.5,3.3,7,8.1,7.3c2.9,0.2,5.8-0.4,8.4-1.5c0.4-0.2,0.9-0.4,1.3-0.6
			c0.8,1.8,1.6,3.5,2.4,5.3c-2,1.1-4.1,1.9-6.3,2.4c-4.2,1-8.7,0.7-12.8-0.6c-5.3-1.8-8.3-5.5-9.2-11c-0.5-2.8-0.4-5.6,0.3-8.3
			c1.3-5.7,6.2-9.7,12-9.9c2.3-0.2,4.6,0,6.9,0.4c5.4,1.2,8.4,4.9,9.4,10.2c0.2,1.6,0.3,3.1,0.3,4.7c0.1,0.8-0.3,1.1-1.1,1.2
			c-2.3,0.2-4.6,0.4-6.9,0.5c-3.9,0.1-7.8,0-11.7,0C332.6,360.2,332.2,360.2,331.9,360.2z M344.2,355.3c0.1-3.9-2.2-6.7-5.6-6.9
			c-3.8-0.2-6.3,2.4-6.6,6.9H344.2z"/>
		<path class="st2" d="M265.4,372.8H254c0.2-0.3,0.3-0.6,0.4-0.9c0.8-1.5,1.2-3.2,1.2-4.9c0-5.1-0.1-10.2,0-15.3
			c0-2.6-0.2-5.1-1.7-7.4h9.7v3.3c0.7-0.5,1.2-0.9,1.7-1.3c3-2.2,6.7-3.1,10.4-2.5c4.2,0.7,6.7,3.6,6.7,8.1c0.1,4.1,0.1,8.3,0,12.4
			c0,2.9-0.1,5.7,1.7,8.3h-11.3c0-0.1-0.1-0.1,0-0.2c1.2-2.1,1.7-4.5,1.6-6.9c-0.1-3.5-0.1-7.1,0-10.6c0.1-4.5-2.8-5.8-6.5-5
			c-0.6,0.1-1.2,0.3-1.7,0.6c-1.8,0.8-2.8,1.9-2.7,4.1c0.2,3.4,0.1,6.7,0,10.1C263.7,367.6,263.7,370.3,265.4,372.8z"/>
		<path class="st2" d="M351.9,344.3h10.8c-0.8,2.3,0.1,4.3,0.9,6.3c1.8,4.5,3.5,9.1,5.4,13.8c0.2-0.4,0.3-0.7,0.4-0.9
			c1.7-4.6,3.5-9.2,5.2-13.8c0.8-1.7,1.1-3.6,0.6-5.4h8.2c-4.3,7.8-6.9,16.3-10.4,24.4c-0.5,1.1-0.8,2.2-0.9,3.4
			c-0.1,0.5-0.2,0.7-0.8,0.7H365c-0.6,0-0.7-0.4-0.9-0.8c-3-7.4-6.1-14.7-9.2-22.1C354,348,352.9,346.2,351.9,344.3z"/>
		<path class="st2" d="M250.2,372.8h-12.8c0.1-0.3,0.2-0.5,0.4-0.7c1-1.8,1.5-3.8,1.5-5.9v-26.8c0.1-2.3-0.5-4.6-1.7-6.6
			c-0.1-0.1-0.1-0.3-0.2-0.5h12.8c-0.4,0.8-0.8,1.6-1.1,2.4c-0.4,1.2-0.6,2.5-0.7,3.8c-0.1,9.4,0,18.7,0,28.1
			C248.4,368.8,249,370.9,250.2,372.8z"/>
		<path class="st2" d="M199.9,372.7c0.4-1,0.9-1.9,1.3-2.9c0.2-0.6,0.4-1.2,0.4-1.8v-12.1c-3.8,0.8-7.5,1.5-11.5,2.4
			c2.1,4.9,3.1,10,6,14.5h-11.3c0.4-2.2-0.4-4.2-1.1-6.3l-2.1-6c-0.1,0-0.2-0.1-0.3-0.1c-3.8,1.3-7.6,2.6-11.3,4.1
			c-1.1,0.5-2.2,1.2-3.1,2c-1.9,1.6-2.4,3.8-2.4,6.2h-7.9c0.1-0.2,0.2-0.4,0.4-0.6c0.7-1.2,1.3-2.4,1.8-3.7
			c3.7-10.3,7.4-20.5,11.1-30.8c0.6-1.6,0.8-3.4,1.3-5.3h8.7c0.5-0.1,1.1,0.2,1.2,0.8c0,0,0,0.1,0,0.1c2.3,6.4,4.7,12.8,7,19.3
			c0.3,0.8,0.6,0.9,1.4,0.7c3.7-0.8,7.3-1.6,11-2.3c0.9-0.2,1.2-0.4,1.2-1.4c-0.1-3.3-0.1-6.5,0-9.8c0.1-2.6-0.2-5.1-2-7.3
			c0.4,0,0.6-0.1,0.8-0.1h16.4c2.9,0,5.9,0.5,8.6,1.6c4.1,1.7,6.1,6.4,4.4,10.5c-0.6,1.4-1.6,2.7-2.8,3.6c-1,0.7-2,1.2-3,1.8
			c-0.3,0.1-0.5,0.3-0.8,0.4c1.4,0.5,2.8,1.1,4.2,1.8c3.4,1.5,5.5,4.9,5.4,8.6c0,4.1-1.4,7.5-5.1,9.7c-2.4,1.4-5,2.3-7.8,2.4
			c-6.6,0.2-13.3,0.2-19.9,0.2C200,372.7,200,372.7,199.9,372.7z M210.7,368c2.4-0.1,4.7-0.1,6.9-0.4c2.5-0.3,4.7-1.4,5.6-4
			c0.8-2.4,0.8-4.9-0.9-6.9c-1.8-2.1-4.4-3.3-7.2-3.2c-1.2,0.1-2.4,0.3-3.6,0.6c-0.6,0.1-0.8,0.4-0.8,1V368z M210.7,348.9
			c0.3,0,0.6,0,0.9-0.1c1.8-0.3,3.6-0.8,5.4-1.3c1.1-0.4,2.1-0.9,2.9-1.7c1.9-1.7,2-4.7,0.3-6.6c-0.4-0.5-1-0.9-1.6-1.1
			c-2.5-1.2-5.1-0.8-7.8-0.8C210.7,341.2,210.7,345.1,210.7,348.9L210.7,348.9z M174.8,341.1h-0.2c-2.2,6.4-4.4,12.8-6.7,19.4
			c3.7-2.8,7.9-3.6,12-5.1C178.2,350.6,176.5,345.8,174.8,341.1L174.8,341.1z"/>
		<path class="st2" d="M288.3,372.8c1.7-2.9,1.4-6,1.4-9v-24.7c0.1-2.3-0.4-4.7-1.4-6.8h15.8c2.8-0.1,5.6,0.4,8.3,1.3
			c4.8,1.8,7,5.9,5.8,10.7c-0.6,2.4-2.3,3.9-4.4,5.1c-0.7,0.4-1.4,0.7-2.1,1c0.4,0.1,0.6,0.3,0.9,0.3c2,0.7,3.8,1.6,5.5,2.9
			c4.4,3.6,4.2,13.2-2.3,16.7c-2.8,1.5-6,2.4-9.2,2.4c-5.8,0.1-11.7,0.1-17.5,0.1C288.8,372.8,288.5,372.8,288.3,372.8z M298.7,368
			c2.8,0,5.5,0.2,8.2-0.6c1.9-0.4,3.4-1.7,4.2-3.5c1.7-3.4,0.2-7.5-3.2-9.2c-0.5-0.2-1-0.4-1.5-0.5c-2.3-0.4-4.5-0.6-6.8-0.6
			c-0.8-0.1-1,0.3-1,1v12.3C298.6,367.2,298.7,367.6,298.7,368z M298.8,337.1v11.6c1.9-0.1,3.8-0.1,5.6-0.3c3.1-0.4,4.8-2.3,4.9-5.5
			c0.3-2.7-1.6-5.2-4.3-5.5c-0.1,0-0.1,0-0.2,0C302.8,337.2,300.8,337.2,298.8,337.1L298.8,337.1z"/>
		<path class="st2" d="M331.9,360.2c0.5,4.5,3.3,7,8.1,7.3c2.9,0.2,5.8-0.4,8.4-1.5c0.4-0.2,0.9-0.4,1.3-0.6
			c0.8,1.8,1.6,3.5,2.4,5.3c-2,1.1-4.1,1.9-6.3,2.4c-4.2,1-8.7,0.7-12.8-0.6c-5.3-1.8-8.3-5.5-9.2-11c-0.5-2.8-0.4-5.6,0.3-8.3
			c1.3-5.7,6.2-9.7,12-9.9c2.3-0.2,4.6,0,6.9,0.4c5.4,1.2,8.4,4.9,9.4,10.2c0.2,1.6,0.3,3.1,0.3,4.7c0.1,0.8-0.3,1.1-1.1,1.2
			c-2.3,0.2-4.6,0.4-6.9,0.5c-3.9,0.1-7.8,0-11.7,0C332.6,360.2,332.2,360.2,331.9,360.2z M344.2,355.3c0.1-3.9-2.2-6.7-5.6-6.9
			c-3.8-0.2-6.3,2.4-6.6,6.9H344.2z"/>
		<path class="st2" d="M265.4,372.8H254c0.2-0.3,0.3-0.6,0.4-0.9c0.8-1.5,1.2-3.2,1.2-4.9c0-5.1-0.1-10.2,0-15.3
			c0-2.6-0.2-5.1-1.7-7.4h9.7v3.3c0.7-0.5,1.2-0.9,1.7-1.3c3-2.2,6.7-3.1,10.4-2.5c4.2,0.7,6.7,3.6,6.7,8.1c0.1,4.1,0.1,8.3,0,12.4
			c0,2.9-0.1,5.7,1.7,8.3h-11.3c0-0.1-0.1-0.1,0-0.2c1.2-2.1,1.7-4.5,1.6-6.9c-0.1-3.5-0.1-7.1,0-10.6c0.1-4.5-2.8-5.8-6.5-5
			c-0.6,0.1-1.2,0.3-1.7,0.6c-1.8,0.8-2.8,1.9-2.7,4.1c0.2,3.4,0.1,6.7,0,10.1C263.7,367.6,263.7,370.3,265.4,372.8z"/>
		<path class="st2" d="M351.9,344.3h10.8c-0.8,2.3,0.1,4.3,0.9,6.3c1.8,4.5,3.5,9.1,5.4,13.8c0.2-0.4,0.3-0.7,0.4-0.9
			c1.7-4.6,3.5-9.2,5.2-13.8c0.8-1.7,1.1-3.6,0.6-5.4h8.2c-4.3,7.8-6.9,16.3-10.4,24.4c-0.5,1.1-0.8,2.2-0.9,3.4
			c-0.1,0.5-0.2,0.7-0.8,0.7H365c-0.6,0-0.7-0.4-0.9-0.8c-3-7.4-6.1-14.7-9.2-22.1C354,348,352.9,346.2,351.9,344.3z"/>
		<path class="st2" d="M250.2,372.8h-12.8c0.1-0.3,0.2-0.5,0.4-0.7c1-1.8,1.5-3.8,1.5-5.9v-26.8c0.1-2.3-0.5-4.6-1.7-6.6
			c-0.1-0.1-0.1-0.3-0.2-0.5h12.8c-0.4,0.8-0.8,1.6-1.1,2.4c-0.4,1.2-0.6,2.5-0.7,3.8c-0.1,9.4,0,18.7,0,28.1
			C248.4,368.8,249,370.9,250.2,372.8z"/>
		<path class="st3" d="M199.9,372.7c0.4-1,0.9-1.9,1.3-2.9c0.2-0.6,0.4-1.2,0.4-1.8v-12.1c-3.8,0.8-7.5,1.5-11.5,2.4
			c2.1,4.9,3.1,10,6,14.5h-11.3c0.4-2.2-0.4-4.2-1.1-6.3l-2.1-6c-0.1,0-0.2-0.1-0.3-0.1c-3.8,1.3-7.6,2.6-11.3,4.1
			c-1.1,0.5-2.2,1.2-3.1,2c-1.9,1.6-2.4,3.8-2.4,6.2h-7.9c0.1-0.2,0.2-0.4,0.4-0.6c0.7-1.2,1.3-2.4,1.8-3.7
			c3.7-10.3,7.4-20.5,11.1-30.8c0.6-1.6,0.8-3.4,1.3-5.3h8.7c0.5-0.1,1.1,0.2,1.2,0.8c0,0,0,0.1,0,0.1c2.3,6.4,4.7,12.8,7,19.3
			c0.3,0.8,0.6,0.9,1.4,0.7c3.7-0.8,7.3-1.6,11-2.3c0.9-0.2,1.2-0.4,1.2-1.4c-0.1-3.3-0.1-6.5,0-9.8c0.1-2.6-0.2-5.1-2-7.3
			c0.4,0,0.6-0.1,0.8-0.1h16.4c2.9,0,5.9,0.5,8.6,1.6c4.1,1.7,6.1,6.4,4.4,10.5c-0.6,1.4-1.6,2.7-2.8,3.6c-1,0.7-2,1.2-3,1.8
			c-0.3,0.1-0.5,0.3-0.8,0.4c1.4,0.5,2.8,1.1,4.2,1.8c3.4,1.5,5.5,4.9,5.4,8.6c0,4.1-1.4,7.5-5.1,9.7c-2.4,1.4-5,2.3-7.8,2.4
			c-6.6,0.2-13.3,0.2-19.9,0.2C200,372.7,200,372.7,199.9,372.7z M210.7,368c2.4-0.1,4.7-0.1,6.9-0.4c2.5-0.3,4.7-1.4,5.6-4
			c0.8-2.4,0.8-4.9-0.9-6.9c-1.8-2.1-4.4-3.3-7.2-3.2c-1.2,0.1-2.4,0.3-3.6,0.6c-0.6,0.1-0.8,0.4-0.8,1V368z M210.7,348.9
			c0.3,0,0.6,0,0.9-0.1c1.8-0.3,3.6-0.8,5.4-1.3c1.1-0.4,2.1-0.9,2.9-1.7c1.9-1.7,2-4.7,0.3-6.6c-0.4-0.5-1-0.9-1.6-1.1
			c-2.5-1.2-5.1-0.8-7.8-0.8C210.7,341.2,210.7,345.1,210.7,348.9L210.7,348.9z M174.8,341.1h-0.2c-2.2,6.4-4.4,12.8-6.7,19.4
			c3.7-2.8,7.9-3.6,12-5.1C178.2,350.6,176.5,345.8,174.8,341.1L174.8,341.1z"/>
		<path class="st3" d="M288.3,372.8c1.7-2.9,1.4-6,1.4-9v-24.7c0.1-2.3-0.4-4.7-1.4-6.8h15.8c2.8-0.1,5.6,0.4,8.3,1.3
			c4.8,1.8,7,5.9,5.8,10.7c-0.6,2.4-2.3,3.9-4.4,5.1c-0.7,0.4-1.4,0.7-2.1,1c0.4,0.1,0.6,0.3,0.9,0.3c2,0.7,3.8,1.6,5.5,2.9
			c4.4,3.6,4.2,13.2-2.3,16.7c-2.8,1.5-6,2.4-9.2,2.4c-5.8,0.1-11.7,0.1-17.5,0.1C288.8,372.8,288.5,372.8,288.3,372.8z M298.7,368
			c2.8,0,5.5,0.2,8.2-0.6c1.9-0.4,3.4-1.7,4.2-3.5c1.7-3.4,0.2-7.5-3.2-9.2c-0.5-0.2-1-0.4-1.5-0.5c-2.3-0.4-4.5-0.6-6.8-0.6
			c-0.8-0.1-1,0.3-1,1v12.3C298.6,367.2,298.7,367.6,298.7,368z M298.8,337.1v11.6c1.9-0.1,3.8-0.1,5.6-0.3c3.1-0.4,4.8-2.3,4.9-5.5
			c0.3-2.7-1.6-5.2-4.3-5.5c-0.1,0-0.1,0-0.2,0C302.8,337.2,300.8,337.2,298.8,337.1L298.8,337.1z"/>
		<path class="st3" d="M331.9,360.2c0.5,4.5,3.3,7,8.1,7.3c2.9,0.2,5.8-0.4,8.4-1.5c0.4-0.2,0.9-0.4,1.3-0.6
			c0.8,1.8,1.6,3.5,2.4,5.3c-2,1.1-4.1,1.9-6.3,2.4c-4.2,1-8.7,0.7-12.8-0.6c-5.3-1.8-8.3-5.5-9.2-11c-0.5-2.8-0.4-5.6,0.3-8.3
			c1.3-5.7,6.2-9.7,12-9.9c2.3-0.2,4.6,0,6.9,0.4c5.4,1.2,8.4,4.9,9.4,10.2c0.2,1.6,0.3,3.1,0.3,4.7c0.1,0.8-0.3,1.1-1.1,1.2
			c-2.3,0.2-4.6,0.4-6.9,0.5c-3.9,0.1-7.8,0-11.7,0C332.6,360.2,332.2,360.2,331.9,360.2z M344.2,355.3c0.1-3.9-2.2-6.7-5.6-6.9
			c-3.8-0.2-6.3,2.4-6.6,6.9H344.2z"/>
		<path class="st3" d="M265.4,372.8H254c0.2-0.3,0.3-0.6,0.4-0.9c0.8-1.5,1.2-3.2,1.2-4.9c0-5.1-0.1-10.2,0-15.3
			c0-2.6-0.2-5.1-1.7-7.4h9.7v3.3c0.7-0.5,1.2-0.9,1.7-1.3c3-2.2,6.7-3.1,10.4-2.5c4.2,0.7,6.7,3.6,6.7,8.1c0.1,4.1,0.1,8.3,0,12.4
			c0,2.9-0.1,5.7,1.7,8.3h-11.3c0-0.1-0.1-0.1,0-0.2c1.2-2.1,1.7-4.5,1.6-6.9c-0.1-3.5-0.1-7.1,0-10.6c0.1-4.5-2.8-5.8-6.5-5
			c-0.6,0.1-1.2,0.3-1.7,0.6c-1.8,0.8-2.8,1.9-2.7,4.1c0.2,3.4,0.1,6.7,0,10.1C263.7,367.6,263.7,370.3,265.4,372.8z"/>
		<path class="st3" d="M351.9,344.3h10.8c-0.8,2.3,0.1,4.3,0.9,6.3c1.8,4.5,3.5,9.1,5.4,13.8c0.2-0.4,0.3-0.7,0.4-0.9
			c1.7-4.6,3.5-9.2,5.2-13.8c0.8-1.7,1.1-3.6,0.6-5.4h8.2c-4.3,7.8-6.9,16.3-10.4,24.4c-0.5,1.1-0.8,2.2-0.9,3.4
			c-0.1,0.5-0.2,0.7-0.8,0.7H365c-0.6,0-0.7-0.4-0.9-0.8c-3-7.4-6.1-14.7-9.2-22.1C354,348,352.9,346.2,351.9,344.3z"/>
		<path class="st3" d="M250.2,372.8h-12.8c0.1-0.3,0.2-0.5,0.4-0.7c1-1.8,1.5-3.8,1.5-5.9v-26.8c0.1-2.3-0.5-4.6-1.7-6.6
			c-0.1-0.1-0.1-0.3-0.2-0.5h12.8c-0.4,0.8-0.8,1.6-1.1,2.4c-0.4,1.2-0.6,2.5-0.7,3.8c-0.1,9.4,0,18.7,0,28.1
			C248.4,368.8,249,370.9,250.2,372.8z"/>
	</g>
	<rect x="213.4" y="268.7" class="st4" width="113.3" height="54.1"/>
	<text transform="matrix(1 0 0 1 213.32 309.76)" class="st2 st5 st6">$50B</text>
	<text transform="matrix(1 0 0 1 211.74 397.99)" class="st2 st5 st7">A</text>
	<text transform="matrix(1 0 0 1 217.58 397.99)" class="st2 st5 st7">nheuser-Busch InB</text>
	<text transform="matrix(1 0 0 1 294.61 397.99)" class="st2 st5 st7">e</text>
	<text transform="matrix(1 0 0 1 299.42 397.99)" class="st2 st5 st7">v</text>
	<text transform="matrix(1 0 0 1 303.23 397.99)" class="st2 st5 st7">. S.A.</text>
	<text transform="matrix(1 0 0 1 238.29 409.99)" class="st2 st8 st7">Leu</text>
	<text transform="matrix(1 0 0 1 252.4 409.99)" class="st2 st8 st7">v</text>
	<text transform="matrix(1 0 0 1 256.64 409.99)" class="st2 st8 st7">en, Belgium</text>
	<g id="China_Resources_Holdings_Co._Ltd">
		<g id="p_984.0015677624056">
			<circle class="st0" cx="476.6" cy="519.5" r="78.6"/>
		</g>
	</g>
	<text transform="matrix(1 0 0 1 431.05 495.51)" class="st2 st5 st9">$12.76B</text>
	<text transform="matrix(1 0 0 1 441.37 552.5)" class="st2 st5 st7">China Resou</text>
	<text transform="matrix(1 0 0 1 492.15 552.5)" class="st2 st5 st7">r</text>
	<text transform="matrix(1 0 0 1 495.35 552.5)" class="st2 st5 st7">ces</text>
	<text transform="matrix(1 0 0 1 443.07 563.3)" class="st2 st5 st7">Holdings Co. Ltd</text>
	<text transform="matrix(1 0 0 1 450.81 577.59)" class="st2 st8 st7">Beijing, China</text>
	<g id="Layer_2_1_" class="st1">
		<g>
			<path class="st2" d="M459.1,515.8l2.5,4.4c0.2,0.4,0.7,0.6,1.1,0.3c0,0,0,0,0.1,0c0.4-0.2,0.6-0.8,0.3-1.2c0,0,0,0,0,0l-3.3-5.7
				c-0.2-0.3-0.5-0.4-0.8-0.4c-0.3,0-0.6,0.2-0.8,0.4l-3.3,5.7c-0.2,0.4-0.1,1,0.3,1.2c0.4,0.2,1,0.1,1.2-0.3L459.1,515.8z
				 M450.6,506.2h20.9V518l-2.5-4.4c-0.2-0.3-0.5-0.4-0.8-0.4c-0.3,0-0.6,0.2-0.8,0.4l-3.3,5.7c-0.2,0.4-0.1,1,0.3,1.2
				c0.4,0.2,1,0.1,1.2-0.3l2.5-4.4l2.5,4.4c0.2,0.3,0.5,0.4,0.8,0.4v4.8l-2.5-4.4c-0.2-0.3-0.5-0.4-0.8-0.4c-0.3,0-0.6,0.2-0.8,0.4
				l-3.3,5.7c-0.1,0.1-0.1,0.3-0.1,0.4h-0.7c0-0.2,0-0.3-0.1-0.4l-3.3-5.7c-0.2-0.3-0.5-0.4-0.8-0.4c-0.3,0-0.6,0.2-0.8,0.4
				l-3.3,5.7c-0.1,0.1-0.1,0.3-0.1,0.4h-4.3L450.6,506.2L450.6,506.2z M470.5,527.1H466l2.3-3.9L470.5,527.1z M461.4,527.1h-4.5
				l2.3-3.9L461.4,527.1z"/>
			<path class="st2" d="M484.3,518.5c-0.2,0.1-0.6,0.4-0.4,0.6h0.5c0.2-0.1,0.3-0.3,0.3-0.5C484.7,518.5,484.4,518.5,484.3,518.5
				 M481.8,516.9c-0.1,0.2-0.7,0.3-0.5,0.6c0.3,0,0.6,0,0.8-0.2C482.1,517.1,482.1,516.9,481.8,516.9 M481.5,516.4h0.4
				c0.2,0,0.2-0.2,0.2-0.4C481.8,516,481.4,516.1,481.5,516.4 M483,514.7c0.1,0.4,0.6,0.3,0.9,0.4c0.5-0.4,0.1-1.1,0.4-1.5
				C483.6,513.5,483.2,514.2,483,514.7 M481.4,513.5c-0.2,0.3-0.5,0.7-0.2,1c0.7,0.2,1-0.4,1.1-0.8
				C482.2,513.2,481.6,513.4,481.4,513.5 M486.9,506.9c0.1,0.8-0.9,1.3-1.3,1.9c-0.2,0-0.5,0.1-0.5,0.4c1.1,1.1-0.7,1.8-1.2,2.8
				c0,0.1,0,0.1-0.1,0.2c0.1,0.2,0.4,0.2,0.6,0.1l0.1-0.1c0,0,0.4-0.7,0.9-0.6c0.1-0.4,0.4-0.4,0.7-0.4c0.9,0.8-0.8,2.4,0.8,2.8
				c0.1,0.2,0,0.4,0,0.6c-0.7,0.8-2,0.6-2.4,1.6c0.2,0.2,0.5,0.1,0.8,0c0.1,0,0.9-0.4,1.2-0.5c0.3-0.1,0.6-0.2,0.9-0.4
				c0.1,0,0.2-0.1,0.3-0.1c0.6,0,1.3-0.2,1.7,0.4c0.1,0.2,0.1,0.3,0,0.5c-0.4,0.5-1.1,0.3-1.5,0.6c-0.8,0.3-1.6,0.4-2.1,1.2
				c0.2,0.5,1.2,0.9,0.9,1.6c-1,0.7-1.9,1-2.9,1.6c-0.1,2-0.1,3.9,0.1,5.9c-0.2,0.2-0.4,0.5-0.6,0.2s-0.2-0.4-0.4-0.6
				c-0.2-1.4-0.1-3-0.2-4.4v-0.3c0-0.1-0.1-0.3-0.2-0.3c-0.5-0.2-1,0.2-1.4,0.3c-0.2,0.1-0.5,0.2-0.7,0.2c-0.3,0-0.7,0-0.6-0.5
				c-0.2-0.6,0.3-0.9,0.7-1.2c0.2-0.2,0.4-0.3,0.5-0.4c0.1-0.1,0.6-0.5,0.7-0.8c-0.2-0.1-0.5-0.2-0.7-0.1c-1.3,0.8-3,1.2-4.4,1.9
				c-0.4,0.1-1.1,0.9-1.4,0c-0.1-0.1,0-0.3,0-0.5c1.5-0.9,3.1-1.7,4.5-2.7c-0.1-0.7,0.5-1.2,0.7-1.8c-0.4-0.6-1.4,0.6-1.4-0.5
				c-0.6-1.4,1.5-1.4,1.4-2.5c-0.2-0.5-0.4-1-0.4-1.5c-0.8-0.6-1.2-1.6-0.9-2.6c1.1-1,2-1.9,3.4-1.9c0.1,0.2,0.2,0.4,0.4,0.6
				c0.4,0.1,0.6-0.4,0.9-0.1c0,0.3-0.3,0.2-0.5,0.5c-0.8,1.2-2.1,2.2-2.9,3.2c0.2,0.6,0.5-0.1,0.8-0.1c1.4-1.1,2.6-2.5,3.5-4.1
				c0.4-0.8,1.1-0.2,1.7-0.7C486.5,506.2,486.7,506.5,486.9,506.9 M499.4,515.2c-1-0.4-0.7,1-1.4,1.1c-0.2,0.3,0.1,0.7,0.3,0.9
				c0.2,0.2,0.1,0.8,0,1.1c0.1,0.2,0.2,0.4,0.4,0.5c0.9,0.3,0.6,1.1,1,1.7c0.4,0.3,0.9,0.3,1.3,0c-0.2-1.7,0.3-3.3,0-5.1
				c-0.5-0.1-1.2,0.3-1.5,0L499.4,515.2z M494.7,513.7c-0.3,0.2-0.2,0.6-0.3,0.9s0.1,0.7,0.4,0.6c0.4-0.2,0.6-0.5,0.6-0.9
				C495.6,513.8,495,513.7,494.7,513.7 M495.1,511.6c-0.2,0.2-0.1,0.6,0.1,0.8c0,0,0.1,0,0.1,0c0.4,0.2,0.4-0.3,0.4-0.5
				C495.8,511.5,495.3,511.6,495.1,511.6 M500.7,510.6l-1.1,0.6c0,0.7,1.1,0.8,0.9,1.6c-0.3,0.4-0.7,0.3-1.1,0.5
				c0,0.3,0.4,0.4,0.6,0.7c0.2,0.3,0.7,0.5,0.9,0C500.8,512.8,501.4,511.6,500.7,510.6 M502.2,511.7c-0.2,2.1,0.2,4,0,6.2v0.5
				c0,0.6,0.1,0.9,0.1,1.3c0.1,1.2,1,3.1-0.4,3.8c-0.8-0.5-1.6-1.1-2.3-1.8c-0.1-0.2-0.3-0.4-0.5-0.5c-0.2-0.2-0.3-0.4-0.3-0.6
				c-1.1-0.5-2.4,1.3-3.3-0.2c-0.7-1,1.5-1.4,0.3-2.3c-0.2-0.1-0.2-0.3-0.3-0.4c0.3-0.3,1.3,0,1.1-0.9c-0.4-0.4-1-0.6-1.6-0.5
				c-0.4,0-0.2,0.6-0.3,1c0.2,1.6-0.8,2.8-0.8,4.5c0,0.2-0.3,0.4-0.4,0.2c-0.7-1.2-0.3-2.7-0.4-4.1c0-1.2,0.5-2.6-0.1-3.7
				c-1,1.3-1,3.1-1.5,4.6c-0.3,1.2-0.8,2.4-1.3,3.6c-0.5-0.4-1.5-0.4-1.6-1.3c-0.1-0.3,0.1-0.4,0.2-0.6l0.2-0.2
				c0.9-1,0.7-2.4,0.9-3.7c0.2-1.3-0.9-2.6-0.3-4l1.6-2.5c0.8,0.6,1.2,1.6,1.1,2.6c-0.4,0.6-1.1,0.7-1.6,1.3c0.4,0.3,0.5,1.3,1.2,1
				c1.1-1.1,1.3-2.5,1.4-4.1c0.1-0.2,0.3-0.3,0.5-0.5s0.3-0.2,0.4-0.3c0.7-0.3,1.4-0.5,2.1-0.6l0.4,0.7c-0.7,1.3-0.1,3-0.6,4.4
				c0,0.2,0.3,0.3,0.4,0.4c0.3,0,0.6-0.3,0.8-0.4c0.3-1.8-0.1-3.7,0.7-5.3c0.3,0.3,0.6,0.8,1.1,0.6c1.1,0,2.3-2.4,3.2-0.6
				L502.2,511.7z"/>
			<path class="st2" d="M451.5,529.3h2.8v0.3h-2.9l-0.1,0.7h2.9v0.4l0,0c0,0.3,0,0.7-0.1,1v0.4c0,0.1,0,0.2-0.1,0.3
				c0,0.1-0.1,0.2-0.2,0.2c-0.1,0-0.2,0.1-0.3,0.1h-0.4l-0.2-0.1l-0.1-0.3c0.2,0,0.4,0.1,0.6,0.2c0.1,0,0.1,0,0.2-0.1l0,0
				c0.1-0.2,0.1-0.4,0.1-0.6c0.1-0.4,0.1-0.7,0.1-1.1h-2.9l0.2-0.9v-0.1l0.2-1l0.3,0.1L451.5,529.3z M453.6,531.5h-3v-0.3h3V531.5z"
				/>
			<path class="st2" d="M458.7,532.1l-0.1-0.1v-0.7h-0.3v0.8c0,0.2,0.1,0.4,0.3,0.4c0,0,0.1,0,0.1,0h1c0.1,0,0.2-0.1,0.3-0.2
				c0.1-0.1,0.1-0.3,0.1-0.5l-0.3-0.1v0.3c0,0.1,0,0.1-0.1,0.2c-0.1,0.1-0.1,0.1-0.2,0.1h-0.9C458.8,532.2,458.7,532.2,458.7,532.1
				 M458.4,529.8l0.3,0.2c0.2-0.2,0.4-0.4,0.5-0.6h1.5c-0.1,0.1-0.1,0.3-0.1,0.4l0.3,0.1c0.1-0.2,0.1-0.5,0.2-0.7h-1.7l0.2-0.4
				l-0.2-0.1C459.1,529,458.8,529.4,458.4,529.8 M458.1,529.5c0.1-0.2,0.3-0.5,0.4-0.7l-0.3-0.1c-0.1,0.2-0.2,0.4-0.3,0.6
				c-0.1,0.2-0.2,0.2-0.3,0.4c-0.1,0.2-0.3,0.3-0.5,0.4l0.2,0.2c0.1-0.1,0.3-0.2,0.5-0.4v1.2h0.3L458.1,529.5L458.1,529.5z
				 M459.7,530.7c0,0.1,0,0.1-0.1,0.1h-0.3l0.1,0.3h0.3c0.1,0,0.2,0,0.2-0.1c0-0.1,0.1-0.1,0.1-0.2v-1.1h-0.3L459.7,530.7z
				 M459.5,529.9l-0.2-0.1c-0.2,0.4-0.5,0.6-0.9,0.8l0.2,0.2C459,530.6,459.3,530.3,459.5,529.9 M460.7,530.1
				c-0.2-0.2-0.3-0.3-0.4-0.3l-0.2,0.1c0.3,0.3,0.6,0.6,0.8,0.9l0.2-0.2C461,530.5,460.9,530.3,460.7,530.1 M459.1,531.1l-0.2,0.1
				c0.3,0.3,0.4,0.5,0.4,0.7l0.3-0.1C459.5,531.5,459.3,531.3,459.1,531.1 M458.2,531.5l-0.2-0.1c-0.2,0.3-0.5,0.6-0.8,0.7l0.2,0.2
				C457.7,532.1,457.9,531.8,458.2,531.5 M460.8,531.7c-0.2-0.2-0.3-0.3-0.4-0.3l-0.2,0.1c0.3,0.2,0.6,0.5,0.8,0.9l0.3-0.2
				C461.1,532,461,531.8,460.8,531.7"/>
			<path class="st2" d="M465.1,529.6v0.2l0,0l0.1-0.1c0-0.1,0.1-0.1,0.1-0.2c0-0.1,0.1-0.2,0.2-0.3c0.1-0.1,0.1-0.2,0.1-0.3v-0.2
				c0.1,0,0.1,0,0.2,0.1c0,0.2-0.1,0.3-0.1,0.4h0.8c-0.1-0.1-0.2-0.3-0.3-0.4c0.1,0,0.2-0.1,0.3-0.1c0.1,0.2,0.3,0.3,0.3,0.5h0.9
				v0.3h-0.9v0.3h0.8v0.3h-0.8v0.3h0.8v0.3h-0.8v0.3h1v0.3h-2.4v-1.1l0,0l-0.3,0.3l-0.2-0.2l0.2-0.2h-0.4v0.9l0.4-0.2v0.3l-0.4,0.2
				v1.4c0,0.1,0,0.2-0.1,0.2s-0.1,0.1-0.2,0.1h-0.3c0-0.1,0-0.1-0.1-0.1l0,0c0-0.1,0-0.1-0.1-0.1h0.4c0.1,0,0.1,0,0.1-0.1l0,0v-1.2
				l-0.4,0.2l-0.2-0.2l0.2-0.1c0.2-0.1,0.3-0.1,0.4-0.2v-1h-0.6v-0.3h0.6v-0.9h0.3v0.9L465.1,529.6L465.1,529.6z M465.7,529.7h0.8
				v-0.3h-0.8V529.7z M466.5,530h-0.8v0.3h0.8V530z M466.5,530.5h-0.8v0.3h0.8V530.5z M465.2,531.5v-0.3h2v0.2
				c-0.1,0.1-0.1,0.2-0.2,0.3h0.7v0.5c0,0.1,0,0.1-0.1,0.2c-0.1,0.1-0.1,0.1-0.2,0.1h-0.2c-0.2,0-0.3,0-0.5-0.1l-0.1-0.3
				c0.1,0,0.2,0,0.3,0.1h0.3c0.1,0,0.1,0,0.2-0.1c0.1-0.1,0.1-0.1,0.1-0.2v-0.2h-0.8v-0.2c0.1-0.1,0.2-0.2,0.2-0.3h-0.8
				c0,0.3-0.1,0.6-0.3,0.8c-0.2,0.2-0.5,0.4-0.8,0.4l-0.2-0.3c0.5,0,0.9-0.4,1-0.9h-0.6V531.5z"/>
			<path class="st2" d="M472.4,532.7h-0.6l-0.1-0.3h0.6l0.1-0.1c0.1-0.1,0-0.1,0-0.1v-1h-1.7v-0.3h1.7V530H471v-0.3h1.4V529
				l-0.7,0.1H471l-0.2-0.3c1,0,1.9-0.1,2.9-0.3c0.1,0,0.1,0,0.2-0.1l0.2,0.2c-0.4,0.2-0.9,0.3-1.4,0.3v0.7h1.3v0.3h-1.3v0.8h1.7v0.3
				h-1.7v1.1c0,0.1,0,0.2-0.1,0.2C472.6,532.6,472.5,532.6,472.4,532.7"/>
			<path class="st2" d="M481,530.1l0.1-0.3h0.7c0,0.5-0.2,1-0.4,1.5l0,0C481.2,530.9,481.1,530.5,481,530.1 M482.4,529.6h-1.2
				c0-0.2,0-0.5,0.1-0.7l-0.3-0.1c0,0.8-0.2,1.6-0.6,2.3l0.3,0.1c0.1-0.2,0.2-0.3,0.3-0.5l0,0c0.1,0.4,0.2,0.7,0.4,1
				c-0.3,0.3-0.7,0.6-1.1,0.8l0.2,0.2c0.4-0.2,0.7-0.5,1-0.8l0,0c0.3,0.3,0.6,0.6,0.9,0.8l0.2-0.2c-0.4-0.2-0.7-0.5-0.9-0.8
				c0.3-0.5,0.5-1.2,0.5-1.8h0.3L482.4,529.6L482.4,529.6z M479.2,530.6h0.9v0.2h0.3v-1.7h-1.5v0.3h1.3v1H479v1.8l-0.2,0.2l0.3,0.2
				l1.5-0.6v-0.3l-1.3,0.5L479.2,530.6L479.2,530.6z"/>
			<path class="st2" d="M485.4,530.7l0.2,0.2c0.3-0.3,0.6-0.6,0.8-1l-0.2-0.2C486,530.1,485.7,530.4,485.4,530.7 M489.2,529.3h-1.8
				l0.1-0.1l-0.5-0.5l-0.2,0.1c0.2,0.1,0.4,0.3,0.4,0.4h-1.8v0.2h1.3v1.2h0.2v-1.2h0.6v1.2h0.3v-1.2h1.3v-0.1H489.2z M488.4,529.8
				l-0.2,0.1c0.3,0.2,0.6,0.5,0.7,0.9l0.2-0.1C488.9,530.3,488.7,530,488.4,529.8 M487.6,531.9c0.3-0.2,0.5-0.4,0.7-0.7v-0.3h-2.2
				v0.3h0.3c0.2,0.3,0.4,0.6,0.7,0.8c-0.5,0.3-1.2,0.5-1.8,0.5c0.1,0.1,0.1,0.2,0.2,0.3c0.7-0.1,1.3-0.3,1.9-0.6
				c0.3,0.2,0.6,0.3,1,0.4c0.2,0.1,0.5,0.1,0.7,0.2l0.2-0.2C488.6,532.2,488,532,487.6,531.9 M487.4,531.6c-0.2-0.1-0.5-0.4-0.6-0.6
				h1.2C487.9,531.3,487.6,531.5,487.4,531.6"/>
			<path class="st2" d="M492.3,532.2h1.6v-1h-1.2v-0.3h1.2v-0.9H493c-0.1,0.3-0.3,0.7-0.6,0.9l-0.3-0.2c0.3-0.2,0.5-0.5,0.6-0.8
				c0.1-0.3,0.2-0.6,0.2-0.9l0.3,0.1c0,0.2,0,0.4-0.1,0.6h0.8v-1h0.3v1h1.5v0.3h-1.5v0.9h1.3v0.3h-1.3v1h1.8v0.3h-3.7L492.3,532.2
				L492.3,532.2z"/>
			<path class="st2" d="M500.5,531.3h1.5v0.8h-1.5L500.5,531.3z M502.2,531.1h-0.9v-0.8h1.3V530h-1.3v-0.7c0.4-0.1,0.7-0.2,1-0.4
				l-0.2-0.2c-0.7,0.3-1.4,0.5-2.2,0.4l0.1,0.3c0.3,0,0.7,0,1-0.1v0.7h-1.3v0.3h1.3v0.8h-0.8v1.6h0.3v-0.3h1.5v0.3h0.3L502.2,531.1
				L502.2,531.1z M499.2,528.9l-0.2,0.2c0.3,0.1,0.5,0.3,0.7,0.6l0.2-0.2C499.7,529.2,499.5,529,499.2,528.9 M499.4,530.7l0.2-0.2
				c-0.2-0.2-0.4-0.5-0.7-0.6l-0.2,0.2C499,530.2,499.2,530.4,499.4,530.7 M498.8,532.4l0.2,0.2c0.4-0.4,0.7-0.9,0.8-1.5l-0.2-0.1
				C499.4,531.5,499.1,531.9,498.8,532.4"/>
		</g>
	</g>
	<g id="Carlsberg_A_S">
		<g id="p_457.66812550027686">
			<circle class="st0" cx="310" cy="119.3" r="67.8"/>
		</g>
	</g>
	<text transform="matrix(1 0 0 1 281.01 100.39)" class="st2 st5 st10">$9.48B</text>
	<text transform="matrix(1 0 0 1 281.79 145.39)" class="st2 st5 st7">Carlsbe</text>
	<text transform="matrix(1 0 0 1 312.73 145.39)" class="st2 st5 st7">r</text>
	<text transform="matrix(1 0 0 1 315.93 145.39)" class="st2 st5 st7">g A/S</text>
	<text transform="matrix(1 0 0 1 265.77 156.39)" class="st2 st8 st7">Copenhagen, Denmark</text>
	<g class="st1">
		<path class="st2" d="M334.8,125.4c-1.4,2.2-3.6,3.2-6.1,3.8c-2.4,0.5-4.8,0.5-7.2,0.2c-2.6-0.4-5.3-0.9-7.9-1.4
			c-2.8-0.5-5.7-0.4-8.4,0.4c-2.1,0.7-4.1,2-5.7,3.6c-0.1,0.2-0.4,0.3-0.7,0.1c0,0,0,0,0,0c-1.9-1-3.7-2-5.6-3
			c-0.4-0.2-0.4-0.2-0.1-0.5c2.7-2.2,5.9-3.7,9.3-4.4c3.3-0.8,6.7-0.8,10,0c2.6,0.5,5,1.4,7.5,2.1c1.7,0.6,3.4,0.9,5.2,1.1
			c2,0.3,4,0.1,5.9-0.5c1.1-0.3,2.1-1,2.7-1.9c0.2-0.4,0.4-0.7,0.5-1.1c0-0.1,0.1-0.2,0.2-0.2h0.3c0.1,0,0.3,0.1,0.3,0.2
			c0,0,0,0,0,0.1c0.1,0.9,0.8,1.6,1.7,1.5c0,0,0,0,0.1,0c0.8,0,1.6-0.6,1.6-1.4c0-0.1,0-0.1,0-0.2v-1.6c0-0.3-0.2-0.4-0.4-0.2
			c-0.7,0.7-1.7,0.8-2.6,0.5c-0.9-0.3-1.7-1-2.1-1.9c-0.8-1.6-0.4-3.6,0.8-4.9c1.1-1,2.7-1.2,3.9-0.3c0.4,0.4,0.5,0.3,0.8-0.2
			c0-0.1,0.2-0.2,0.3-0.2h2.1c0.1,0,0.3,0.1,0.3,0.2c0,0.1,0.1,0.4-0.2,0.5c-0.6,0.1-0.6,0.4-0.6,0.9v6.8c0.1,1.4-0.7,2.6-2,3.1
			c-1.2,0.6-2.7,0.4-3.7-0.6C335.2,125.8,335,125.6,334.8,125.4z M338.7,118.9v-1.1c0-0.4-0.2-0.7-0.5-0.9c-0.8-0.5-1.8-0.3-2.3,0.5
			c0,0,0,0.1-0.1,0.1c-0.5,0.8-0.5,1.9,0,2.7c0.3,0.6,1,0.9,1.6,0.8c0.7,0.1,1.2-0.4,1.3-1.1c0-0.1,0-0.1,0-0.2V118.9z"/>
		<path class="st2" d="M296.3,106.7c-0.1,0.1-0.1,0.2-0.2,0.3c-1.3,1.8-2.7,3.5-4,5.3c-0.1,0.2-0.2,0.3-0.4,0.1
			c-1.8-1.5-4.4-1.7-6.4-0.3c-3.3,2.2-4.1,6.6-1.9,9.9c0.2,0.2,0.3,0.5,0.5,0.7c2.8,3.3,7.7,3.7,11,0.9c0,0,0,0,0,0
			c0.1,0,0.1-0.1,0.2-0.1c0.2-0.1,0.3-0.1,0.5,0c0.1,0.1,0.2,0.3,0,0.5c0,0,0,0,0,0l-0.6,0.6c-2,1.7-4.6,2.6-7.2,2.4
			c-3.7-0.2-7-2.4-8.5-5.8c-1.4-2.9-1.4-6.4,0.1-9.3c0.8-1.9,2.1-3.6,3.7-4.9c0.1-0.1,0.3-0.2,0.5-0.2H296
			C296,106.6,296.1,106.7,296.3,106.7z"/>
		<path class="st2" d="M319.4,118.7c0-1.3,0.7-2.4,1.7-3.1c0.8-0.6,1.8-0.8,2.8-0.6c0.7,0.1,1.3,0.5,1.7,1.1
			c0.4-0.3,0.8-0.6,1.3-0.8c0.4-0.2,0.9-0.3,1.3-0.4c0.4-0.1,0.8,0.1,1,0.4l0,0c0.2,0.2,0.3,0.4,0.6,0.3c0.3-0.1,0.2-0.4,0.1-0.7
			c-0.1-0.4,0.2-0.8,0.6-0.8c0.1,0,0.2,0,0.3,0c0.2,0,0.4,0.2,0.6,0.3c0.2,0.1,0.3,0.2,0.4,0.3c0.4,0.2,0.7,0.2,0.9,0
			c0.3-0.2,0.3-0.6,0.1-0.9c0,0,0,0,0,0c-0.2-0.3-0.4-0.5-0.6-0.8c-0.1-0.1-0.3-0.3-0.1-0.5s0.3-0.1,0.5,0c1.2,0.8,1.6,2.4,0.9,3.6
			c-0.2,0.4-0.6,0.7-1,0.8c-0.5,0.1-0.9,0.1-1.2-0.3c-0.1-0.3-0.5-0.4-0.7-0.2c0,0-0.1,0-0.1,0c-0.3,0.1-0.4,0.4-0.4,0.8v4.1
			c0,0.2,0.1,0.4,0.3,0.4c0.2,0,0.3,0.1,0.4,0.2c0.1,0.3,0,0.5-0.3,0.5h-2.4c-0.3,0-0.4-0.1-0.4-0.4v-4.8c0-0.8-0.5-0.9-1-0.7
			c-0.1,0-0.2,0.1-0.3,0.1c-0.3,0.2-0.5,0.5-0.6,0.8c-0.2,1.1-1.1,2-2.3,2.2c-0.5,0.1-0.9,0.2-1.4,0.2c0,0.1,0.1,0.2,0.1,0.3
			c0.7,1.1,2.3,1.4,3.4,0.7c0.1-0.1,0.2-0.2,0.3-0.3l0.1-0.1c0.1,0,0.3-0.1,0.4-0.1s0.1,0.3,0,0.4c-0.1,0.1-0.3,0.5-0.4,0.7
			c-1.5,1.5-4,1.5-5.5,0c-0.3-0.3-0.5-0.6-0.7-0.9c0-0.1-0.1-0.1-0.1-0.2c-0.1-0.9-0.8-1-1.5-1.3v1.2c0.1,1.1-0.7,2.1-1.8,2.2
			c-0.1,0-0.3,0-0.4,0c-0.6,0-1.2,0-1.8-0.1c-1.2-0.1-2.1-1.3-2-2.5v-8.5c0-0.3-0.1-0.5-0.4-0.6c-0.3,0-0.4-0.3-0.3-0.6
			c0-0.1,0.1-0.1,0.2-0.1h2.7c0.2,0,0.2,0.1,0.2,0.3v9.6c0,0.5,0.2,0.9,0.7,1.1c0.5,0.2,1.1,0.2,1.5-0.2c0.2-0.1,0.3-0.4,0.3-0.6
			v-1.8c0-0.1-0.1-0.2-0.1-0.3c-0.1,0-0.1,0-0.1-0.1c0,0,0,0,0,0c-1.1-0.7-0.9-0.3-0.9-1.7v-1.1c0-0.1,0.1-0.3,0.2-0.3
			c0,0,0,0,0.1,0h1.9c0.1,0,0.3,0.1,0.3,0.2c0,0,0,0,0,0.1v2.3c0,0.2,0.1,0.4,0.3,0.5C318.8,118.3,319,118.6,319.4,118.7z
			 M321.9,119c0.2,0,0.4,0,0.6-0.1c0.9-0.1,1.6-0.8,1.8-1.6c0.1-0.3,0-0.7-0.4-0.9c-0.1-0.1-0.3-0.1-0.4,0c-0.4,0-0.8,0.2-1,0.6
			C322,117.6,321.8,118.3,321.9,119z"/>
		<path class="st2" d="M295.1,120.3c-0.3,0.4-0.7,0.7-1.1,1c-0.5,0.4-1,0.8-1.5,1.1c-0.7,0.4-1.1,0.3-1.6-0.4
			c-0.4-0.5-0.7-0.5-1.1-0.2c-1.2,1.1-3.1,1-4.2-0.2c-1.6-1.7-1.4-4.4,0.3-6c1.1-0.9,2.6-1,3.8-0.2c0.1,0,0.1,0.1,0.2,0.1
			c0.3,0.2,0.5,0.1,0.6-0.2c0.1-0.3,0.2-0.3,0.5-0.3h2c0.1,0,0.3,0.1,0.3,0.2c0,0.1,0.1,0.4-0.2,0.5c-0.5,0.2-0.5,0.2-0.5,0.7v3.3
			c0,0.6,0.4,0.9,0.9,0.6s1.1-0.8,1.6-1.1c0.1-0.1,0.1-0.2,0.1-0.3v-2.5c0-0.4-0.2-0.4-0.5-0.3c-0.1,0.1-0.4,0-0.4,0
			c-0.1-0.1-0.1-0.3,0-0.4c0.4-0.6,1.1-0.9,1.8-0.7c0.3,0.1,0.6,0.3,0.8,0.6c0.1,0.1,0.1,0.2,0.2,0.3s0.3,0.2,0.5,0
			c0.1-0.1,0.2-0.2,0.3-0.4c0.5-0.6,1.4-0.8,2.1-0.5c0.7,0.3,1.1,1,1,1.8c-0.1,0.8-0.7,1.4-1.5,1.5c-0.3,0-0.6-0.1-0.8-0.4
			c-0.2-0.3-0.2-0.6,0-0.9c0.1-0.2,0.2-0.4-0.1-0.6c-0.2-0.1-0.5-0.1-0.7,0.1c-0.1,0.1-0.2,0.3-0.2,0.5v4.2c0,0.2,0.1,0.3,0.3,0.4
			c0.2,0,0.3,0.1,0.4,0.2c0.2,0.3,0,0.5-0.3,0.5h-2.5c-0.3,0-0.3-0.1-0.3-0.3C295.1,121.4,295,120.9,295.1,120.3z M290.1,118.8v-1.1
			c0-0.3-0.1-0.6-0.4-0.8c-0.7-0.5-1.7-0.4-2.3,0.3c-0.5,0.6-0.6,1.4-0.4,2.1c0,0.9,0.8,1.7,1.8,1.6c0,0,0.1,0,0.1,0
			c0.7,0,1.2-0.5,1.2-1.2c0,0,0-0.1,0-0.1L290.1,118.8z"/>
		<path class="st2" d="M304.1,115.5v5.1c0,0.2,0.2,0.5,0.4,0.5c0.2,0,0.4,0,0.6-0.2c0.2-0.2,0.2-0.5,0.1-0.7
			c-0.3-0.4,0.2-0.4,0.3-0.5c0.1-0.1,0.3,0,0.4,0.2c0.3,0.8,1.2,1.3,2,1.1c0.4-0.1,0.6-0.4,0.7-0.8c0.1-0.4-0.1-0.8-0.4-1
			c-0.2-0.2-0.4-0.3-0.7-0.4s-0.5-0.2-0.7-0.4c-0.9-0.6-1.1-1.7-0.5-2.6c0.3-0.5,0.9-0.8,1.4-0.8h3.5c0.2,0,0.3,0.1,0.2,0.3
			c-0.2,0.5-0.5,1-0.7,1.6c-0.1,0.2-0.2,0.2-0.3,0.1c-0.5-0.3-1-0.4-1.6-0.4c-0.3,0-0.6,0.2-0.7,0.5c-0.1,0.3,0.1,0.5,0.4,0.7
			s0.6,0.3,0.9,0.5s0.5,0.2,0.7,0.3c0.7,0.3,1.1,1,1,1.7c-0.1,0.7-0.5,1.4-1.2,1.7c-0.3,0.1-0.7,0.2-1,0.2H304
			c-1.3,0.1-2.4-0.8-2.5-2.1c0-0.1,0-0.3,0-0.4v-8.5c0-0.4-0.1-0.6-0.5-0.6c-0.1,0-0.3-0.1-0.3-0.2c0,0,0,0,0-0.1
			c0-0.3,0.1-0.4,0.4-0.4h2.4c0.3,0,0.4,0.1,0.4,0.4C304,112,304.1,113.7,304.1,115.5z"/>
		<path class="st2" d="M328.2,108.8c0-0.3-0.1-0.7-0.4-0.9c-0.3-0.3-0.4-0.6-0.2-0.9c0.2-0.3,0.5-0.4,0.8-0.3c0.3,0.1,0.7,0,1-0.2
			c0.4-0.3,0.7-0.1,0.7,0.4v0.6c0,0.2,0.1,0.4,0.4,0.3c0.3-0.1,0.3-0.1,0.3-0.4v-0.6c0-0.2,0.2-0.5,0.4-0.5c0.1,0,0.2,0,0.3,0.1
			c0.3,0.2,0.7,0.3,1.1,0.1c0.3-0.1,0.6,0,0.8,0.3c0.2,0.2,0.1,0.6-0.1,0.8c0,0-0.1,0-0.1,0c-0.3,0.3-0.4,0.6-0.4,1
			c0,0.4-0.3,0.6-0.7,0.4c-0.2-0.1-0.3-0.2-0.5-0.3s-0.4-0.1-0.5,0.1c-0.1,0.2,0,0.4,0.2,0.5c0,0,0,0,0,0c0.2,0.1,0.3,0.2,0.5,0.3
			c0.2,0.1,0.3,0.3,0.3,0.5c0,0.1-0.1,0.2-0.3,0.3c-0.3,0.2-0.6,0.4-0.7,0.8c-0.1,0.4-0.3,0.5-0.7,0.5c-0.3,0-0.6-0.2-0.6-0.5
			c-0.1-0.4-0.3-0.7-0.7-0.8c-0.2-0.1-0.3-0.3-0.3-0.5c0-0.1,0.1-0.2,0.3-0.3c0.2-0.1,0.3-0.2,0.5-0.3c0.2-0.1,0.2-0.3,0.1-0.5
			s-0.3-0.2-0.5-0.1c-0.2,0.1-0.3,0.2-0.5,0.3C328.5,109.6,328.2,109.5,328.2,108.8z"/>
	</g>
	<g id="Molson_Coors_Beverage_Co.">
		<g id="p_651.6362360511373">
			<path class="st0" d="M451,238.6c-39.6,0-71.7-32-71.7-71.6s32-71.7,71.6-71.7l0,0c39.6,0,71.7,32,71.7,71.6
				C522.6,206.4,490.6,238.5,451,238.6L451,238.6z"/>
		</g>
	</g>
	<text transform="matrix(1 0 0 1 417.09 147.2)" class="st2 st5 st11">$10.6B</text>
	<text transform="matrix(1 0 0 1 421.65 192.2)" class="st2 st5 st7">Molson Coors</text>
	<text transform="matrix(1 0 0 1 423.95 203)" class="st2 st5 st7">B</text>
	<text transform="matrix(1 0 0 1 429.69 203)" class="st2 st5 st7">ev</text>
	<text transform="matrix(1 0 0 1 438.99 203)" class="st2 st5 st7">e</text>
	<text transform="matrix(1 0 0 1 443.86 203)" class="st2 st5 st7">r</text>
	<text transform="matrix(1 0 0 1 447.01 203)" class="st2 st5 st7">age Co.</text>
	<text transform="matrix(1 0 0 1 421.05 215.2)" class="st2 st8 st7">Chicago, Illinois</text>
	<g class="st1">
		<path class="st2" d="M491,170.1c-0.5,0-0.9,0-1.4,0.1c0,0.1,0,0.1-0.1,0.2c0.2,0.1,0.4,0.2,0.6,0.2c0.3,0,0.5-0.1,0.8-0.2
			c-0.1,0.4-0.5,0.7-0.9,0.6c0,0-0.1,0-0.1,0c-0.3-0.1-0.6-0.4-0.8-0.7c-0.2-0.4,0-0.9,0.4-1.1c0.4-0.1,0.7,0,1.1,0.1
			c0.1,0,0.2,0.3,0.3,0.4C491,169.8,491,169.9,491,170.1z"/>
		<path class="st2" d="M419.3,170.7c-0.1-1.7-1.2-3.2-2.8-3.9c-1.6-0.7-3.4-0.3-4.7,0.8c-1.2-2.2-1-4.9,0.6-6.8
			c1.8-2.3,5-3.1,7.6-1.9c2.6,1.2,4.2,3.9,3.9,6.7C423.4,167.8,421.3,170.4,419.3,170.7z"/>
		<path class="st2" d="M439.2,164.8c-1,0.2-1.1,0.2-1.2-0.7c-0.2-1.1-0.4-2.3-0.6-3.6c-0.9,1.4-1.7,2.7-2.6,4
			c-0.9-1.4-1.7-2.6-2.6-4c-0.2,1.1-0.3,2-0.5,2.9c0,0.2-0.1,0.4-0.1,0.6c-0.1,0.9-0.2,1-1.2,0.7c0.3-2.3,0.7-4.7,1-7h0.1
			c0.5,0.8,1.1,1.6,1.6,2.4s1.1,1.6,1.6,2.5c1.1-1.7,2.2-3.2,3.2-4.8h0.1C438.5,160.2,438.9,162.6,439.2,164.8z"/>
		<path class="st2" d="M411.6,168.8c0.8,1,1.8,1.8,3,2.3c1.2,0.5,2.5,0.6,3.8,0.5c-0.1,1.4-1.1,2.5-2.5,2.9
			c-1.7,0.5-3.4-0.2-4.4-1.6C410.7,171.7,410.7,170.1,411.6,168.8z"/>
		<path class="st2" d="M442.8,167.8c2.1,0,3.8,1.7,3.8,3.8s-1.7,3.8-3.8,3.8c-2.1,0-3.8-1.7-3.8-3.8
			C439,169.5,440.6,167.8,442.8,167.8C442.7,167.8,442.7,167.8,442.8,167.8z M445.3,171.5c-0.1-1.4-1.3-2.6-2.7-2.5
			c-1.4,0.1-2.6,1.3-2.5,2.7c0.1,1.4,1.2,2.5,2.6,2.5c1.4,0.1,2.5-1,2.6-2.4C445.3,171.8,445.3,171.7,445.3,171.5L445.3,171.5z"/>
		<path class="st2" d="M444.9,165.1c-2,0-3.7-1.6-3.7-3.7c0,0,0,0,0,0c0-2.1,1.6-3.8,3.7-3.8c2.1,0,3.8,1.7,3.8,3.8
			S446.9,165.1,444.9,165.1z M447.5,161.3c0-1.4-1.2-2.6-2.6-2.6s-2.6,1.2-2.6,2.6c0,1.5,1.1,2.7,2.6,2.7c1.4,0.1,2.5-1,2.6-2.4
			C447.5,161.5,447.5,161.4,447.5,161.3z"/>
		<path class="st2" d="M471.6,161.4c0,2.1-1.7,3.8-3.8,3.8s-3.8-1.7-3.8-3.8s1.7-3.8,3.8-3.8S471.6,159.3,471.6,161.4z M470.5,161.4
			c0-1.4-1.2-2.6-2.6-2.6s-2.6,1.2-2.6,2.6s1.2,2.6,2.6,2.6S470.5,162.8,470.5,161.4z"/>
		<path class="st2" d="M448.3,171.6c0-2,1.6-3.7,3.6-3.7c0.1,0,0.1,0,0.2,0c2,0,3.7,1.7,3.7,3.7c0,0,0,0.1,0,0.1
			c0,2.1-1.7,3.7-3.8,3.7C449.9,175.4,448.2,173.7,448.3,171.6z M452,174.4c1.5,0.1,2.7-1.1,2.8-2.6c0.1-1.5-1.1-2.7-2.6-2.8
			c-1.5-0.1-2.7,1.1-2.8,2.6c0,0,0,0.1,0,0.1C449.3,173.1,450.4,174.3,452,174.4C451.9,174.4,452,174.4,452,174.4L452,174.4z"/>
		<path class="st2" d="M478.9,162.2v-3.9c0-0.6,0.2-0.7,0.7-0.7c0.3,0,0.5,0.1,0.5,0.5v6.5c0,0.1,0,0.1-0.1,0.3
			c-1.6-1.5-3.1-3-4.8-4.6v4.1c0,0.4-0.1,0.6-0.6,0.6s-0.6-0.1-0.6-0.5v-6.2c0-0.2,0-0.3,0.1-0.5
			C475.8,159.2,477.3,160.7,478.9,162.2z"/>
		<path class="st2" d="M461.5,172.6c0.6,0.9,1.2,1.7,1.8,2.6c-0.8,0.3-1.2,0.2-1.6-0.4s-0.8-1.1-1.2-1.7c-0.3-0.4-0.6-0.6-1.1-0.4
			v2.1c0,0.4-0.1,0.6-0.6,0.6s-0.6-0.2-0.6-0.6v-6.1c0-0.5,0.1-0.7,0.6-0.6h2.4c1.1,0,2,0.8,2.1,1.9c0.3,1.1-0.4,2.3-1.5,2.6
			c0,0,0,0,0,0C461.8,172.5,461.7,172.6,461.5,172.6z M459.4,171.6h1.8c0.6-0.1,1-0.6,1-1.2c0-0.7-0.3-1.3-0.8-1.3
			c-0.7-0.1-1.3-0.1-2,0V171.6z"/>
		<path class="st2" d="M456.9,162.8c0.6-0.1,1-0.2,1.3,0.5s1.7,0.9,2.3,0.3c0.4-0.4,0.5-1,0.1-1.4c-0.1-0.1-0.1-0.1-0.2-0.2
			c-0.4-0.2-0.8-0.3-1.2-0.4c-0.5-0.2-1-0.3-1.4-0.5c-0.8-0.4-1.1-1.3-0.8-2.1c0.4-1,1.5-1.7,2.6-1.5c1.1,0,2,0.8,2.1,1.9v0.2
			c-0.7,0.3-0.9,0.2-1.2-0.4c-0.2-0.4-0.6-0.6-1.1-0.6c-0.5,0-1,0.1-1.2,0.6c-0.3,0.4-0.1,0.9,0.2,1.2c0,0,0,0,0.1,0
			c0.3,0.2,0.7,0.2,1.1,0.4l0.9,0.3c0.9,0.2,1.5,1,1.4,1.9c0,1-0.7,1.8-1.6,2c-0.9,0.3-1.9,0.2-2.7-0.4
			C457.2,164.1,457,163.5,456.9,162.8z"/>
		<path class="st2" d="M470.4,170c-0.6,0.1-1,0.2-1.3-0.5s-1.8-0.8-2.3,0c-0.3,0.4-0.2,0.9,0.2,1.2c0,0,0.1,0.1,0.1,0.1
			c0.3,0.2,0.7,0.2,1.1,0.4c0.4,0.1,0.8,0.2,1.2,0.4c1,0.4,1.4,1.6,1,2.6c-0.1,0.3-0.4,0.6-0.7,0.8c-1.5,1.1-4,0.3-4.2-1.4v-0.2
			c0.5-0.1,1-0.2,1.3,0.5s1.7,0.9,2.4,0.3c0.4-0.3,0.4-0.9,0.1-1.3c-0.1-0.1-0.1-0.1-0.2-0.2c-0.2-0.1-0.5-0.2-0.7-0.3
			c-0.4-0.1-0.9-0.2-1.3-0.4c-0.9-0.2-1.5-1-1.5-1.9c0-0.9,0.6-1.7,1.5-1.9c0.8-0.3,1.8-0.2,2.5,0.3
			C470.1,168.8,470.4,169.4,470.4,170z"/>
		<path class="st2" d="M417.3,171c-1.9,0-3.7-0.8-4.9-2.3c-0.5-0.5-0.4-0.6,0.1-1c1.8-1.2,4.2-0.7,5.4,1c0.3,0.4,0.5,0.9,0.6,1.5
			c0.1,0.7,0.1,0.7-0.6,0.8C417.7,171.1,417.5,171,417.3,171z"/>
		<path class="st2" d="M436.2,173.5c0.2,0.2,0.5,0.4,0.7,0.6c-0.9,1.1-2.4,1.6-3.8,1.2c-1.6-0.4-2.7-1.9-2.7-3.5
			c0-1.6,1-3.1,2.5-3.6c1.4-0.5,3-0.1,4,1.1c-0.2,0.2-0.5,0.4-0.7,0.6c-1.8-1.2-3.1-1.1-4.1,0.1c-0.9,1.1-0.8,2.6,0.1,3.6
			C433.3,174.6,434.6,174.6,436.2,173.5z"/>
		<path class="st2" d="M455.2,164v1h-2.7c-1.4,0-1.4,0-1.4-1.4v-5.9h1.1v5.6c0,0.5,0.2,0.6,0.6,0.6C453.6,164,454.4,164,455.2,164z"
			/>
		<path class="st2" d="M488.7,169.1c0,0.7,0,1.3-0.1,2c-0.1,0.3-0.4,0.6-0.7,0.7c-0.4,0.2-0.7,0-1-0.5c0.5-0.1,1.3,0.6,1.4-0.4
			c-0.9,0.2-1.5-0.1-1.5-0.8c-0.1-0.5,0.3-0.9,0.7-1c0.1,0,0.2,0,0.4,0H488.7z M487.6,170.6h0.3c0.1-0.2,0.4-0.5,0.4-0.7
			c0-0.3-0.2-0.5-0.5-0.5s-0.5,0.2-0.5,0.5C487.2,170.2,487.4,170.4,487.6,170.6z"/>
		<path class="st2" d="M474.1,170.8v-2.5c0-0.1,0.1-0.2,0.2-0.3c0.1,0.1,0.2,0.2,0.2,0.3v0.7c0.2,0,0.3-0.1,0.5-0.1
			c0.3,0.1,0.8,0.2,0.9,0.5c0.1,0.3,0.1,0.7-0.1,1c-0.3,0.2-0.6,0.3-0.9,0.4C474.7,171,474.5,170.8,474.1,170.8z M475.3,169.2H475
			c-0.1,0.2-0.4,0.4-0.4,0.7c0.1,0.3,0.2,0.4,0.5,0.5c0.3,0.1,0.5-0.1,0.6-0.4c0,0,0-0.1,0-0.1C475.5,169.7,475.4,169.5,475.3,169.2
			L475.3,169.2z"/>
		<path class="st2" d="M478.5,173.4c0.6,0.1,1.1,0.2,1.6,0.3c0.1,0,0.2-0.1,0.3-0.2c0.3-0.2,0.7-0.1,0.9,0.2c0,0.1,0.1,0.2,0.1,0.3
			c0.1,0.3,0.1,0.7,0,1c0,0.1-0.1,0.2-0.2,0.3c-0.1-0.1-0.2-0.2-0.2-0.3v-0.6c-0.1-0.2-0.3-0.4-0.4-0.6c-0.1,0.2-0.3,0.4-0.4,0.6
			s0,0.3,0,0.5c0.1,0.1,0.1,0.3,0,0.4c-0.1,0.1-0.3,0.1-0.4-0.1c-0.1-0.1-0.1-0.2,0-0.3v-0.6c-0.1-0.2-0.2-0.3-0.4-0.4
			c-0.1,0.1-0.4,0.3-0.4,0.4s0,0.5,0,0.7s-0.1,0.2-0.2,0.3c-0.1-0.1-0.2-0.2-0.2-0.3C478.5,174.5,478.4,173.9,478.5,173.4z"/>
		<path class="st2" d="M482.4,175.2v0.7c0,0.1-0.1,0.2-0.2,0.2c-0.1-0.1-0.2-0.1-0.2-0.2v-2.4c0.4,0,0.6-0.1,0.9-0.1
			c0.3,0.1,0.6,0.2,0.9,0.4c0.3,0.3,0.3,0.8,0,1.1c-0.3,0.2-0.6,0.3-0.9,0.4C482.8,175.4,482.6,175.3,482.4,175.2z M483.6,174.5
			v-0.3c-0.2-0.2-0.4-0.4-0.6-0.4c-0.3,0.1-0.4,0.2-0.5,0.5c-0.1,0.3,0.1,0.5,0.4,0.6c0,0,0.1,0,0.1,0
			C483.2,174.8,483.4,174.7,483.6,174.5z"/>
		<path class="st2" d="M482.4,170.1h-1.3c0,0.1,0,0.1-0.1,0.2c0.2,0.1,0.4,0.2,0.6,0.2c0.2,0,0.4-0.1,0.7-0.1
			c-0.2,0.4-0.6,0.6-1,0.4c0,0,0,0-0.1,0c-0.5-0.2-0.7-0.7-0.6-1.2c0.1-0.5,0.6-0.8,1.1-0.7c0,0,0,0,0,0
			C482.2,169.1,482.4,169.4,482.4,170.1z"/>
		<path class="st2" d="M476.8,170.1c0.4,0.7,0.9,0.2,1.4,0.3c-0.2,0.4-0.7,0.7-1.2,0.5c-0.5-0.2-0.7-0.8-0.5-1.3
			c0.1-0.3,0.4-0.5,0.7-0.6c0.4-0.1,0.9,0.2,1,0.6c0.1,0.3,0.1,0.5-0.3,0.5L476.8,170.1z"/>
		<path class="st2" d="M486.2,169.1v1.7c-0.3,0-0.6,0.1-0.9,0.1c-0.3-0.1-0.6-0.2-0.9-0.4c-0.2-0.3-0.2-0.8,0-1.1
			c0.2-0.3,0.5-0.4,0.8-0.4C485.6,169,485.9,169.1,486.2,169.1z M485.9,170.2c0-0.5-0.2-0.8-0.6-0.7c-0.2,0.1-0.5,0.3-0.5,0.5
			s0.2,0.6,0.6,0.5C485.5,170.5,485.7,170.3,485.9,170.2L485.9,170.2z"/>
		<path class="st2" d="M486.3,175.2c-0.4,0-0.7,0.1-0.9,0.1s-0.8-0.2-0.9-0.4c-0.1-0.4-0.1-0.7,0-1.1c0.1-0.2,0.6-0.3,0.9-0.4
			s0.4,0,0.6,0s0.2,0.2,0.3,0.3V175.2z M485.9,174.5v-0.3c-0.2-0.2-0.4-0.4-0.7-0.4c-0.3,0.1-0.4,0.2-0.5,0.5
			c-0.1,0.3,0.1,0.5,0.4,0.6c0,0,0.1,0,0.1,0C485.4,174.9,485.7,174.7,485.9,174.5L485.9,174.5z"/>
		<path class="st2" d="M477.1,175.4c-0.6,0-1-0.4-1-1s0.4-1,1-1s1,0.4,1,1S477.6,175.4,477.1,175.4z M477.7,174.5v-0.3
			c-0.2-0.2-0.4-0.4-0.6-0.4c-0.3,0.1-0.4,0.2-0.5,0.5c-0.1,0.3,0.1,0.5,0.4,0.6c0,0,0.1,0,0.1,0
			C477.3,174.8,477.5,174.7,477.7,174.5z"/>
		<path class="st2" d="M486.8,173.5c0.4,0,0.6-0.1,0.9-0.1s0.7,0.1,0.8,0.5c0.1,0.4,0.1,0.7,0,1.1c0,0.1-0.1,0.2-0.2,0.2
			c-0.1-0.1-0.2-0.2-0.2-0.3v-0.7c-0.1-0.2-0.3-0.3-0.4-0.5c-0.2,0.2-0.4,0.3-0.5,0.5s0,0.4,0,0.6s-0.1,0.2-0.2,0.3
			c-0.1-0.1-0.2-0.2-0.2-0.3L486.8,173.5z"/>
		<path class="st2" d="M489.2,176.2c0.8-1-0.1-1.8-0.2-2.7c0.3,0,0.3,0,0.9,1.1c0.4-0.3,0.2-1,0.8-1.2
			C490.6,174.3,489.7,176.1,489.2,176.2z"/>
		<path class="st2" d="M475.8,173.8c-0.4,0.2-1.3-0.3-1.3,0.6s0.8,0.3,1.3,0.5c-0.3,0.4-1,0.5-1.4,0.2c-0.4-0.4-0.4-1-0.1-1.4
			C474.7,173.3,475.3,173.3,475.8,173.8C475.7,173.7,475.7,173.7,475.8,173.8z"/>
		<path class="st2" d="M479.4,170.2c0.4-0.3,0.2-1,1-1.1c-0.2,0.6-0.4,1.1-0.7,1.6c-0.2,0.3-0.4,0.3-0.5,0l-0.6-1.5
			C478.8,169.1,478.8,169.1,479.4,170.2z"/>
		<path class="st2" d="M482.9,169.1c0.4,0,0.6-0.1,0.9-0.1c0.1,0,0.2,0.1,0.3,0.2c-0.1,0.1-0.1,0.2-0.2,0.2c-0.5,0-0.6,0.4-0.6,0.8
			v0.5c0,0.1-0.1,0.2-0.2,0.2l-0.2-0.2L482.9,169.1z"/>
	</g>
	<g id="Heineken_N.V.">
		<g id="p_965.9637880029716">
			<circle class="st0" cx="573.1" cy="337.1" r="118.5"/>
		</g>
	</g>
	<rect x="516.5" y="287.1" class="st4" width="113.3" height="54.1"/>
	<text transform="matrix(1 0 0 1 530.64 317.84)" class="st2 st5 st12">$29B</text>
	<rect x="541.5" y="370.5" class="st4" width="63.2" height="11.3"/>
	<text transform="matrix(1 0 0 1 544.14 378.15)" class="st2 st5 st7">Heine</text>
	<text transform="matrix(1 0 0 1 567.66 378.15)" class="st2 st5 st7">k</text>
	<text transform="matrix(1 0 0 1 572.37 378.15)" class="st2 st5 st7">en N.</text>
	<text transform="matrix(1 0 0 1 593.49 378.15)" class="st2 st5 st7">V</text>
	<text transform="matrix(1 0 0 1 598.43 378.15)" class="st2 st5 st7">.</text>
	<rect x="519.3" y="382.5" class="st4" width="107.7" height="11.3"/>
	<text transform="matrix(1 0 0 1 524.58 390.15)" class="st2 st8 st7">Amste</text>
	<text transform="matrix(1 0 0 1 549.88 390.15)" class="st2 st8 st7">r</text>
	<text transform="matrix(1 0 0 1 552.81 390.15)" class="st2 st8 st7">dam, Netherlands</text>
	<g class="st1">
		<path class="st2" d="M648.6,335.8v0.7c-0.5,0.2-0.8,0.7-0.8,1.3v15.9c0,0.6-0.4,1-1,1h-3.1l-6.8-10.9c0,0,0.1,0.9,0.1,2v8.9h-3.8
			v-18.9h2.5c1.1-0.1,2.2,0.5,2.8,1.5l5.7,9.1c-0.2-0.7-0.2-1.3-0.2-2v-8.5h4.6V335.8z M575.4,335.8v17.9c0,0.6-0.4,1-1,1h-3.2
			l-6.8-10.9c0,0,0.1,0.9,0.1,2v8.9h-3.8v-18.9h2.5c1.1-0.1,2.2,0.5,2.8,1.5l5.7,9.1c-0.2-0.7-0.2-1.3-0.2-2v-8.5
			C571.5,335.8,575.4,335.8,575.4,335.8z M528.1,335.8H523v7.2h-4.4v-7.2h-5.9v0.7c0.5,0.2,0.8,0.7,0.8,1.3v16.9h5.1v-8.1h4.4v8.1
			h5.1L528.1,335.8L528.1,335.8z M544.7,335.8h-11.4V353c0.1,1,0.9,1.8,1.9,1.7c0,0,0,0,0,0h9.5c0.6,0,1-0.4,1-1v-2.4h-6.5
			c-0.4,0-0.8-0.3-0.8-0.8c0,0,0,0,0,0v-4h5.8v-3.4h-5.8v-3.8h7.2v-2.4C545.6,336.4,545.2,335.9,544.7,335.8
			C544.7,335.8,544.7,335.8,544.7,335.8z M555.5,335.8h-5.1v17.9c0,0.6,0.4,1,1,1h4.1V335.8z M627.8,335.8h-11.4V353
			c0.1,1,0.9,1.7,1.9,1.7h9.5c0.6,0,1-0.4,1-1v-2.4h-6.6c-0.4,0-0.8-0.3-0.8-0.8c0,0,0,0,0,0v-4h5.8v-3.4h-5.8v-3.8h7.2v-2.4
			c0.1-0.4-0.1-0.9-0.5-1.1C627.9,335.9,627.8,335.8,627.8,335.8L627.8,335.8z M591.9,335.8h-11.4V353c0.1,1,0.9,1.7,1.9,1.7h9.5
			c0.6,0,1-0.4,1-1v-2.4h-6.5c-0.4,0-0.8-0.3-0.8-0.8c0,0,0,0,0,0v-4h5.8v-3.4h-5.8v-3.8h7.2v-2.4
			C592.8,336.4,592.4,335.9,591.9,335.8C591.9,335.8,591.9,335.8,591.9,335.8L591.9,335.8z M613.4,335.8h-3.7
			c-0.9-0.1-1.7,0.3-2.3,1l-5.2,5.9v-7h-5.1v17.9c0,0.6,0.4,1,1,1h4.1v-8.5l4.5,7c0.6,1.1,1.7,1.7,2.9,1.6h4.2l-7.1-11.2
			L613.4,335.8L613.4,335.8z"/>
		<path class="st2" d="M502.7,342.8c-0.1,0.1-0.3,0.1-0.4,0c0,0,0,0,0-0.1c-0.1-0.1-0.1-0.2,0-0.3c0,0,0,0,0,0
			c0.1-0.4,2.7-8.5,2.7-8.5l-7.2-5.2c-0.1-0.1-0.1-0.4,0-0.5c0.1-0.1,0.1-0.1,0.2-0.1h8.9c0,0,2.6-8.1,2.7-8.5
			c0.1-0.1,0.2-0.2,0.4-0.2c0.1,0,0.2,0.1,0.2,0.2c0.1,0.4,2.7,8.5,2.7,8.5h8.9c0.2,0,0.3,0.2,0.3,0.4c0,0.1,0,0.2-0.1,0.2l-4.2,3.1
			h-5l-1.5-4.8l-1.5,4.8h-5l4.1,3l-1.5,4.8L502.7,342.8"/>
	</g>
</g>
<image style="overflow:visible;enable-background:new    ;" width="3114" height="2462" xlink:href="empresotas2.png"  transform="matrix(0.24 0 0 0.24 0 0)">
</image>
</svg>
